<svg width="24" height="22" viewBox="0 0 24 22" fill="none" xmlns="http://www.w3.org/2000/svg">
<path d="M2.63635 15.6225V4.02539H0.0761719V21.1636L4.31419 18.1826H18.4068V15.6348L18.3894 15.6225H2.63635Z" fill="url(#paint0_linear_5875_15758)"/>
<path d="M3.98242 14.2764H18.838L23.076 17.2574V0.119141H3.98242V14.2764Z" fill="url(#paint1_linear_5875_15758)"/>
<path d="M17.0767 3.06055H14.759C14.636 3.06055 14.5181 3.10938 14.4312 3.19631C14.3443 3.28324 14.2954 3.40115 14.2954 3.52408C14.2954 3.64702 14.3443 3.76492 14.4312 3.85185C14.5181 3.93878 14.636 3.98762 14.759 3.98762H15.4543V6.76884H13.1598C13.4665 6.36999 13.6336 5.88138 13.6354 5.37823C13.6353 4.86805 13.467 4.37213 13.1564 3.96738C12.8458 3.56263 12.4103 3.27167 11.9175 3.13962C11.4247 3.00758 10.9021 3.04182 10.4308 3.23705C9.95943 3.43227 9.56566 3.77757 9.31055 4.21939C9.27791 4.27216 9.25619 4.33094 9.24668 4.39226C9.23718 4.45358 9.24008 4.51618 9.25522 4.57635C9.27036 4.63653 9.29742 4.69305 9.33481 4.74257C9.3722 4.79209 9.41915 4.8336 9.47287 4.86464C9.5266 4.89568 9.58602 4.91561 9.64759 4.92326C9.70917 4.93092 9.77165 4.92613 9.83134 4.90918C9.89103 4.89223 9.94671 4.86348 9.99508 4.82461C10.0435 4.78575 10.0835 4.73757 10.1129 4.68293C10.235 4.47154 10.4105 4.29601 10.6219 4.17395C10.8333 4.0519 11.073 3.98764 11.3171 3.98762C11.5612 3.9876 11.801 4.05183 12.0124 4.17385C12.2238 4.29587 12.3994 4.47138 12.5214 4.68274C12.6435 4.89411 12.7078 5.13388 12.7079 5.37797C12.7079 5.62205 12.6437 5.86185 12.5217 6.07326C12.3997 6.28467 12.2242 6.46025 12.0129 6.58235C11.8015 6.70445 11.5618 6.76877 11.3177 6.76884C11.1947 6.76884 11.0768 6.81768 10.9899 6.90461C10.903 6.99154 10.8541 7.10944 10.8541 7.23238C10.8541 7.35532 10.903 7.47322 10.9899 7.56015C11.0768 7.64708 11.1947 7.69592 11.3177 7.69592C11.5618 7.69599 11.8015 7.76031 12.0129 7.88241C12.2242 8.00451 12.3997 8.18009 12.5217 8.3915C12.6437 8.60292 12.7079 8.84271 12.7079 9.0868C12.7078 9.33088 12.6435 9.57066 12.5214 9.78202C12.3994 9.99339 12.2238 10.1689 12.0124 10.2909C11.801 10.4129 11.5612 10.4772 11.3171 10.4771C11.073 10.4771 10.8333 10.4129 10.6219 10.2908C10.4105 10.1688 10.235 9.99322 10.1129 9.78184C10.0495 9.67935 9.9487 9.60558 9.83182 9.57618C9.71495 9.54678 9.59122 9.56405 9.48686 9.62434C9.38251 9.68462 9.30573 9.78318 9.27282 9.89912C9.23991 10.0151 9.25344 10.1392 9.31055 10.2454C9.56566 10.6872 9.95943 11.0325 10.4308 11.2277C10.9021 11.4229 11.4247 11.4572 11.9175 11.3251C12.4103 11.1931 12.8458 10.9021 13.1564 10.4974C13.467 10.0926 13.6353 9.59671 13.6354 9.08653C13.6336 8.58339 13.4665 8.09477 13.1598 7.69592H15.4543V10.9407C15.4543 11.0636 15.5031 11.1815 15.59 11.2684C15.677 11.3554 15.7949 11.4042 15.9178 11.4042C16.0407 11.4042 16.1587 11.3554 16.2456 11.2684C16.3325 11.1815 16.3813 11.0636 16.3813 10.9407V3.98762H17.0767C17.1996 3.98762 17.3175 3.93878 17.4044 3.85185C17.4914 3.76492 17.5402 3.64702 17.5402 3.52408C17.5402 3.40115 17.4914 3.28324 17.4044 3.19631C17.3175 3.10938 17.1996 3.06055 17.0767 3.06055Z" fill="white"/>
<defs>
<linearGradient id="paint0_linear_5875_15758" x1="9.24151" y1="4.02539" x2="9.24151" y2="21.1636" gradientUnits="userSpaceOnUse">
<stop stop-color="#F8BE2C"/>
<stop offset="1" stop-color="#754F0A"/>
</linearGradient>
<linearGradient id="paint1_linear_5875_15758" x1="13.5292" y1="0.119141" x2="13.5292" y2="17.2574" gradientUnits="userSpaceOnUse">
<stop stop-color="#CE9B1C"/>
<stop offset="1" stop-color="#754F0A"/>
</linearGradient>
</defs>
</svg>
