<svg width="28" height="29" viewBox="0 0 28 29" fill="none" xmlns="http://www.w3.org/2000/svg">
<g clip-path="url(#clip0_6092_15959)">
<path d="M21.8953 26.0644L14.5707 16.2769L11.373 16.287L19.397 12.6016L27.0973 20.3498C27.4143 20.6967 27.59 21.1497 27.59 21.6195V25.6595C27.59 26.2366 27.1222 26.7045 26.5451 26.7045H23.1738C22.6706 26.7045 22.1968 26.4673 21.8953 26.0644Z" fill="#F1B0A2"/>
<path d="M27.5899 21.6195V25.6598C27.5899 26.2368 27.1223 26.7044 26.5448 26.7044H24.6445C25.2214 26.7044 25.6895 26.2368 25.6895 25.6598V21.6195C25.6895 21.1498 25.5134 20.697 25.1968 20.3497L18.0918 13.2009L19.3972 12.6016L27.0972 20.3497C27.4144 20.697 27.5899 21.1498 27.5899 21.6195Z" fill="#EB9C8D"/>
<path d="M21.4397 9.0096C21.043 8.53847 20.3283 8.50746 19.8923 8.94244L20.4266 8.4093C20.8226 8.01418 20.8484 7.38106 20.4858 6.95499C20.0866 6.48577 19.375 6.44864 18.929 6.87373L18.9275 6.8752C19.3846 6.43945 19.409 5.71812 18.9825 5.25241C18.5536 4.78406 17.8276 4.74786 17.3542 5.17125L17.3805 5.14779C17.8347 4.74151 17.8659 4.04113 17.4495 3.59608C17.1391 3.26424 16.6549 3.16077 16.2359 3.3367L14.83 3.92694L9.43906 8.30993L8.75328 12.684L0.972672 20.3358C0.612828 20.6897 0.410156 21.1732 0.410156 21.678V25.6595C0.410156 26.2366 0.878008 26.7045 1.45512 26.7045H4.86812C5.34767 26.7045 5.8018 26.4889 6.10509 26.1175L13.559 16.9882L15.0371 16.6503C15.4929 16.5461 15.9074 16.3087 16.2278 15.9683L20.8785 11.0274L21.438 10.3662C21.7691 9.97489 21.7698 9.40176 21.4397 9.0096Z" fill="#FFDFCF"/>
<path d="M21.4399 9.00965C21.0432 8.53852 20.3285 8.50751 19.8925 8.94249L20.4268 8.40934C20.8228 8.01423 20.8486 7.38111 20.486 6.95504C20.0868 6.48582 19.3752 6.44869 18.9292 6.87377L18.9277 6.87525C19.3848 6.4395 19.4092 5.71817 18.9827 5.25245C18.5538 4.78411 17.8278 4.74791 17.3544 5.1713L17.3605 5.16588C17.7828 4.78826 17.8674 4.14536 17.529 3.69096C17.2268 3.28512 16.6927 3.14496 16.2362 3.33669L14.8303 3.92694L14.3286 4.33485L14.8824 4.10232C15.3014 3.92639 15.7856 4.02991 16.0961 4.3617C16.2784 4.55661 16.2828 4.88287 16.23 5.18809C16.1861 5.44233 16.3908 5.67634 16.6473 5.64839C17.0022 5.60973 17.3698 5.73496 17.6291 6.01797C17.8523 6.26171 17.8272 6.69451 17.7525 7.05162C17.7117 7.2468 17.8858 7.41239 18.0804 7.36897C18.4549 7.28541 18.848 7.41994 19.1324 7.72055C19.5434 8.1551 19.6395 9.19482 19.6395 9.19482C19.7288 9.83122 19.658 10.2015 19.3268 10.5928L14.3275 15.9682C14.007 16.3086 13.5926 16.546 13.1368 16.6502L12.2683 16.8487C11.8732 16.939 11.5195 17.1585 11.2632 17.4724L4.20475 26.1175C3.90145 26.489 3.44733 26.7045 2.96777 26.7045H4.86833C5.34788 26.7045 5.80201 26.489 6.1053 26.1175L13.5592 16.9882L15.0374 16.6504C15.4931 16.5462 15.9076 16.3088 16.228 15.9684L20.8787 11.0274L21.4382 10.3663C21.7693 9.97494 21.77 9.40181 21.4399 9.00965Z" fill="#FFCEBF"/>
<path d="M13.8115 7.88563L13.7304 7.9979C13.4253 8.42053 12.8281 8.50065 12.4224 8.17334L10.6387 6.73424C10.2481 6.41902 10.1849 5.8477 10.4974 5.45483L10.5381 5.40353C10.8475 5.01454 11.411 4.94426 11.8065 5.24532L13.6251 6.63017C14.0174 6.92887 14.1001 7.48587 13.8115 7.88563Z" fill="#F1B0A2"/>
<path d="M13.8115 7.88573L13.7305 7.99784C13.433 8.41019 12.8577 8.49605 12.453 8.19691C12.5269 8.14277 12.5936 8.07605 12.6499 7.99784L12.7309 7.88573C13.0196 7.48597 12.937 6.9287 12.5449 6.63011L10.726 5.24542C10.7216 5.24214 10.7173 5.23886 10.7129 5.23558C11.0312 5.00152 11.4769 4.99441 11.8061 5.24542L13.625 6.63011C14.0171 6.9287 14.1002 7.48597 13.8115 7.88573Z" fill="#EB9C8D"/>
<path d="M11.5165 10.3452L9.34522 8.61469C8.89394 8.25501 8.81596 7.5992 9.17033 7.14371L9.27424 7.01016C9.63605 6.54515 10.3089 6.46722 10.7674 6.83718L12.9302 8.58215C13.4173 8.97519 13.4921 9.68936 13.0969 10.1748C12.7059 10.6552 12.0009 10.7312 11.5165 10.3452Z" fill="#F1B0A2"/>
<path d="M13.0966 10.1764C12.8735 10.451 12.5481 10.5932 12.2194 10.5932C12.0346 10.5932 11.8492 10.5483 11.6802 10.4559C11.806 10.3875 11.9208 10.2946 12.0165 10.1764C12.4114 9.69135 12.337 8.97713 11.8497 8.58393L9.68684 6.83885C9.64801 6.80713 9.60699 6.77924 9.56543 6.75463C9.93293 6.53479 10.4136 6.55393 10.7675 6.83885L12.9298 8.58393C13.4171 8.97713 13.492 9.69135 13.0966 10.1764Z" fill="#EB9C8D"/>
<path d="M11.245 10.1297L9.39538 8.65552C8.92474 8.28042 8.23612 8.37509 7.88415 8.86323C7.55159 9.32435 7.64489 9.96622 8.09502 10.3136L9.96747 11.7587C10.429 12.1149 11.0935 12.0199 11.4368 11.5486C11.7629 11.1005 11.6784 10.4751 11.245 10.1297Z" fill="#F1B0A2"/>
<path d="M11.6358 10.9398C11.6358 11.1514 11.5707 11.3647 11.4373 11.5484C11.1163 11.9892 10.5141 12.1008 10.0602 11.8219C10.1729 11.7535 10.2741 11.6622 10.3566 11.5484C10.4906 11.3647 10.5552 11.1514 10.5552 10.9398C10.5552 10.6346 10.4206 10.3333 10.1652 10.1293L8.31516 8.65547C8.27797 8.62539 8.23914 8.5986 8.19922 8.57453C8.56398 8.35688 9.04141 8.37328 9.39578 8.65547L11.2453 10.1293C11.5013 10.3333 11.6358 10.6346 11.6358 10.9398Z" fill="#EB9C8D"/>
<path d="M10.1455 13.0503C9.83895 13.4436 9.27283 13.5166 8.87651 13.214L7.52846 12.1843C7.13892 11.8868 7.05367 11.3348 7.33531 10.9336C7.63445 10.5075 8.22879 10.4172 8.64097 10.7353L9.98382 11.7717C10.3827 12.0795 10.4552 12.6529 10.1455 13.0503Z" fill="#F1B0A2"/>
<path d="M10.1455 13.0502C9.84203 13.4395 9.28422 13.515 8.88828 13.2224C8.95336 13.1748 9.01352 13.1169 9.06547 13.0502C9.375 12.6526 9.30227 12.0795 8.90359 11.7716L7.56102 10.7352C7.555 10.7309 7.54898 10.7259 7.54297 10.7221C7.70156 10.6051 7.89188 10.5449 8.08438 10.5449C8.27852 10.5449 8.47484 10.6067 8.64109 10.7352L9.98422 11.7716C10.3829 12.0795 10.4556 12.6526 10.1455 13.0502Z" fill="#EB9C8D"/>
<path d="M14.2559 4.3943L12.4313 3.55698C12.127 3.41731 11.7664 3.51678 11.5767 3.79268C11.4206 4.01975 11.415 4.31779 11.5621 4.55076C11.8198 4.95884 12.2279 5.56729 12.4865 5.76417L14.2559 4.3943Z" fill="#F1B0A2"/>
<path d="M10.605 20.7755L5.41756 16.0612C5.18891 15.8534 5.17201 15.4995 5.37982 15.2709L5.85713 14.7457C6.06495 14.517 6.41877 14.5001 6.64742 14.7079L11.8349 19.4223C12.0635 19.6301 12.0804 19.9839 11.8726 20.2126L11.3953 20.7378C11.1875 20.9664 10.8337 20.9833 10.605 20.7755Z" fill="#FE646F"/>
<path d="M27.4 20.0732C27.3961 20.069 27.3921 20.0649 27.388 20.0607L21.0393 13.6725C20.8796 13.5119 20.6199 13.5111 20.4592 13.6708C20.2986 13.8304 20.2978 14.0901 20.4574 14.2508L26.7998 20.6325C27.0448 20.9038 27.1797 21.254 27.1797 21.6197V25.66C27.1797 26.0098 26.8949 26.2944 26.5448 26.2944H23.1738C22.8014 26.2944 22.4462 26.1168 22.2236 25.819L15.5591 16.9141C15.9239 16.7651 16.2531 16.5403 16.5267 16.25L21.7511 10.6315C22.2129 10.0858 22.2139 9.2927 21.7534 8.74577C21.5595 8.51532 21.299 8.35224 21.012 8.27535C21.4767 7.35906 20.7347 6.14587 19.6883 6.16829C19.7974 5.30702 19.0141 4.4435 18.1468 4.46888C18.2768 3.38377 17.0705 2.50827 16.0771 2.9589L14.6787 3.54603C14.5886 3.57435 14.2749 3.85742 14.195 3.91506L12.6024 3.18416C12.1156 2.96076 11.5421 3.11897 11.2387 3.5603C11.0141 3.88689 10.9851 4.30427 11.1532 4.65602C10.7764 4.68249 10.4112 4.87799 10.1761 5.20038C9.94159 5.49536 9.8542 5.86182 9.9033 6.20969C9.52388 6.26241 9.18646 6.45671 8.95032 6.76006C8.63658 7.10985 8.47826 7.58349 8.55925 8.02805C8.15139 8.07727 7.79144 8.29126 7.55125 8.62425C7.18867 9.1271 7.18736 9.77641 7.50307 10.2681C7.30357 10.3647 7.13092 10.5111 6.99934 10.6984C6.58968 11.2819 6.71262 12.078 7.27923 12.5108L7.87916 12.9691L6.61177 14.2152C6.4896 14.1693 6.35852 14.1479 6.22475 14.1544C5.96602 14.1668 5.72759 14.2792 5.55346 14.4708L5.07609 14.9961C4.71652 15.3917 4.74589 16.0062 5.14155 16.3658L9.96149 20.7462L5.78774 25.8583C5.56112 26.1355 5.22599 26.2946 4.86828 26.2946H1.45523C1.10513 26.2946 0.820312 26.01 0.820312 25.6601V21.6783C0.820312 21.2863 0.980766 20.9038 1.26049 20.6288L4.28985 17.6495C4.45134 17.4907 4.45353 17.231 4.29466 17.0695C4.13591 16.908 3.8762 16.9059 3.71465 17.0646L0.685289 20.0439C0.249813 20.472 0 21.0677 0 21.6783V25.6601C0 26.4622 0.652805 27.1148 1.45523 27.1148H4.86828C5.47318 27.1148 6.0398 26.846 6.42305 26.3772L10.6049 21.2552C10.7251 21.3057 10.8528 21.3317 10.9807 21.3317C11.2446 21.3317 11.5077 21.2249 11.6987 21.0146L12.176 20.4894C12.3502 20.2977 12.4393 20.0497 12.427 19.791C12.4176 19.5952 12.3508 19.4112 12.2358 19.2577L13.7879 17.3568L14.7085 17.1466L21.5668 26.3104C21.9434 26.8141 22.5441 27.1148 23.1739 27.1148H26.5448C27.3472 27.1148 28.0001 26.4622 28.0001 25.6601V21.6198C28 21.0461 27.7869 20.4969 27.4 20.0732ZM11.9146 4.02503C11.9681 3.94727 12.0546 3.90417 12.1439 3.90417C12.183 3.90417 12.2225 3.91243 12.2602 3.92971L13.4691 4.48457L12.525 5.21563C12.3771 5.03424 12.1708 4.74663 11.9088 4.33183C11.8492 4.23733 11.8514 4.11691 11.9146 4.02503ZM10.8182 5.71094C10.9789 5.46293 11.3221 5.39036 11.5577 5.57253L13.3764 6.95738C13.5934 7.12259 13.6384 7.42534 13.4787 7.64649C13.3305 7.93727 12.9464 8.08011 12.6797 7.85502L10.896 6.41592C10.6816 6.24288 10.6467 5.92668 10.8182 5.71094ZM9.49386 7.39739C9.69429 7.04088 10.1773 6.8777 10.5097 7.15819L12.6725 8.90316C12.8225 9.02424 12.9163 9.19656 12.9363 9.38835C12.9564 9.58014 12.9005 9.76804 12.7787 9.91767C12.5307 10.2223 12.0791 10.271 11.7719 10.0261L9.65087 8.33567C9.34139 8.12714 9.26095 7.6938 9.49386 7.39739ZM8.21669 9.10403C8.41958 8.80975 8.86309 8.74779 9.13921 8.97688L10.9893 10.4514C11.2517 10.6605 11.3025 11.0368 11.105 11.308C11.0048 11.4457 10.8568 11.5348 10.6882 11.5588C10.5199 11.5831 10.3526 11.5389 10.2179 11.4349L8.34542 9.98974C8.06892 9.77641 8.01238 9.38736 8.21669 9.10403ZM7.67074 11.1698C7.82622 10.9382 8.17141 10.8848 8.38972 11.0602L9.73306 12.097C9.83894 12.1787 9.90642 12.2967 9.92321 12.4294C9.94 12.562 9.90396 12.6932 9.82177 12.7987C9.65431 13.0137 9.34188 13.0539 9.12527 12.8886L7.77722 11.859C7.56175 11.6943 7.51499 11.3916 7.67074 11.1698ZM11.5689 19.9377L11.0916 20.4629C11.0363 20.5239 10.9416 20.5284 10.8807 20.473L5.69324 15.7586C5.63232 15.7033 5.62784 15.6087 5.68318 15.5477L6.16055 15.0225C6.19675 14.9827 6.24083 14.9749 6.26391 14.9738C6.28698 14.9722 6.33161 14.9763 6.37148 15.0125L11.5589 19.7268C11.5987 19.7629 11.6065 19.8071 11.6076 19.8302C11.6087 19.8532 11.6051 19.8978 11.5689 19.9377ZM13.4679 16.5884C13.379 16.6087 13.2993 16.6582 13.2415 16.7289L11.6393 18.6913L7.26884 14.7195L8.53765 13.4719C9.10399 13.9728 9.99775 13.9117 10.4688 13.3029C10.6755 13.0375 10.7716 12.7108 10.7422 12.3775C11.4445 12.3285 12.0363 11.6822 12.0449 10.9905C13.257 11.1836 14.2207 9.70302 13.5393 8.66674C13.7909 8.55699 13.9935 8.35601 14.1437 8.1266C14.5659 7.54188 14.447 6.74163 13.8733 6.30479L13.1932 5.7869L15.0432 4.28267L16.3947 3.71523C16.6541 3.60629 16.9577 3.6712 17.15 3.87672C17.2753 4.01065 17.3399 4.18538 17.3317 4.36858C17.3236 4.55184 17.2438 4.72011 17.107 4.84239L16.2497 5.60911C15.8464 5.96261 16.4072 6.57796 16.7966 6.22063L17.6276 5.47742C17.9321 5.20513 18.4042 5.22865 18.68 5.52981C18.9536 5.82857 18.9377 6.29894 18.6447 6.57856L17.7692 7.41303C17.3828 7.78261 17.9444 8.37499 18.3352 8.00678L19.2105 7.17252C19.2108 7.17224 19.2111 7.17192 19.2114 7.17164L19.212 7.17104C19.3453 7.04411 19.52 6.9804 19.7036 6.98904C19.8873 6.99867 20.0542 7.08113 20.1735 7.22124C20.3958 7.48254 20.3797 7.87706 20.1369 8.11938L19.1756 9.07849C18.793 9.44861 19.3843 10.0402 19.755 9.65921L20.182 9.23314C20.3107 9.1049 20.4811 9.03791 20.6629 9.04639C20.8444 9.05426 21.0089 9.13514 21.1258 9.2741C21.3279 9.51413 21.3275 9.86216 21.1248 10.1017L15.9294 15.6877C15.6637 15.9697 15.3234 16.1646 14.9455 16.2511L13.4679 16.5884Z" fill="black"/>
<path d="M3.4054 8.11311L4.72156 8.3766C4.74874 8.38201 4.77581 8.38458 4.8025 8.38458C4.99396 8.38458 5.16524 8.24983 5.20423 8.05493C5.24869 7.83279 5.1047 7.61666 4.88256 7.5722L3.5664 7.30872C3.34404 7.26469 3.12813 7.40825 3.08372 7.63039C3.03932 7.85253 3.18331 8.06865 3.4054 8.11311Z" fill="black"/>
<path d="M3.89354 3.04158L6.22208 4.83779C6.29673 4.89538 6.38483 4.92321 6.47233 4.92321C6.5951 4.92321 6.71657 4.86831 6.79739 4.76358C6.93575 4.58421 6.9025 4.32668 6.72318 4.18827L4.39459 2.39206C4.21516 2.2537 3.95769 2.28695 3.81928 2.46627C3.68097 2.6457 3.71417 2.90322 3.89354 3.04158Z" fill="black"/>
<path d="M23.8894 8.05491C23.9285 8.24982 24.0997 8.38457 24.2911 8.38457C24.3178 8.38457 24.3449 8.38194 24.3721 8.37658L25.6882 8.1131C25.9104 8.06864 26.0544 7.85246 26.0099 7.63037C25.9655 7.40823 25.7492 7.26473 25.5272 7.3087L24.2111 7.57219C23.9889 7.61665 23.8449 7.83277 23.8894 8.05491Z" fill="black"/>
<path d="M22.6214 4.9232C22.7089 4.9232 22.797 4.89536 22.8717 4.83778L25.2002 3.04156C25.3796 2.90321 25.4128 2.64568 25.2745 2.46625C25.1362 2.28699 24.8786 2.25368 24.6992 2.39204L22.3706 4.18825C22.1912 4.32661 22.158 4.58413 22.2964 4.76356C22.3772 4.86829 22.4986 4.9232 22.6214 4.9232Z" fill="black"/>
</g>
<defs>
<clipPath id="clip0_6092_15959">
<rect width="28" height="28" fill="white" transform="translate(0 0.710938)"/>
</clipPath>
</defs>
</svg>
