<svg width="29" height="29" viewBox="0 0 29 29" fill="none" xmlns="http://www.w3.org/2000/svg">
<path d="M23.0496 7.94922H3.68963C3.33954 7.94922 3.0038 8.08829 2.75625 8.33584C2.5087 8.58339 2.36963 8.91913 2.36963 9.26922V22.6292C2.36963 22.9793 2.5087 23.3151 2.75625 23.5626C3.0038 23.8102 3.33954 23.9492 3.68963 23.9492H22.8966C23.0901 23.9494 23.2817 23.9113 23.4605 23.8374C23.6392 23.7634 23.8017 23.6549 23.9385 23.5181C24.0753 23.3813 24.1838 23.2188 24.2578 23.0401C24.3317 22.8613 24.3697 22.6697 24.3696 22.4762V9.26922C24.3696 8.91913 24.2305 8.58339 23.983 8.33584C23.7355 8.08829 23.3997 7.94922 23.0496 7.94922Z" fill="#FFCC29"/>
<path d="M4.13263 22.9357C4.033 22.9373 3.93405 22.919 3.84155 22.882C3.74904 22.845 3.66483 22.7899 3.59382 22.72C3.5228 22.6501 3.46641 22.5668 3.42792 22.4749C3.38943 22.383 3.36962 22.2843 3.36963 22.1847V8.01367C3.08655 8.0808 2.83418 8.24094 2.65288 8.46847C2.47159 8.69599 2.37185 8.97776 2.36963 9.26867V22.6287C2.36963 22.9788 2.5087 23.3145 2.75625 23.5621C3.0038 23.8096 3.33954 23.9487 3.68963 23.9487H22.8966C23.2642 23.948 23.6181 23.8094 23.8884 23.5604C24.1588 23.3113 24.3258 22.9699 24.3566 22.6037L4.13263 22.9357Z" fill="#F4AE00"/>
<path d="M23.0496 7.94922H3.68963C3.33954 7.94922 3.0038 8.08829 2.75625 8.33584C2.5087 8.58339 2.36963 8.91913 2.36963 9.26922V10.9492H24.3696V9.26922C24.3696 8.91913 24.2305 8.58339 23.983 8.33584C23.7355 8.08829 23.3997 7.94922 23.0496 7.94922Z" fill="#F58634"/>
<path d="M3.36963 10.9487V8.01367C3.08656 8.0808 2.83418 8.24094 2.65288 8.46847C2.47159 8.69599 2.37185 8.97776 2.36963 9.26867V10.9487H3.36963Z" fill="#EA6C18"/>
<path d="M16.3696 6.94922L21.3696 4.94922L26.3696 6.94922V12.1172C26.3699 12.981 26.1463 13.83 25.7208 14.5817C25.2953 15.3333 24.6823 15.9619 23.9416 16.4062L21.3696 17.9492L18.7976 16.4062C18.0569 15.9619 17.444 15.3333 17.0185 14.5817C16.593 13.83 16.3694 12.981 16.3696 12.1172V6.94922Z" fill="#00AF91"/>
<path d="M19.4976 15.7258C18.8487 15.3365 18.3116 14.7857 17.9387 14.1271C17.5657 13.4685 17.3697 12.7246 17.3696 11.9678V6.54883L16.3696 6.94883V12.1168C16.3694 12.9806 16.593 13.8296 17.0185 14.5813C17.444 15.3329 18.0569 15.9615 18.7976 16.4058L21.3696 17.9488L22.2866 17.3988L19.4976 15.7258Z" fill="#00997C"/>
<path d="M26.5556 6.4851L21.5556 4.4851C21.4362 4.43726 21.303 4.43726 21.1836 4.4851L16.1836 6.4851C16.0909 6.52225 16.0115 6.58629 15.9555 6.66899C15.8996 6.75169 15.8697 6.84925 15.8696 6.9491V12.1171C15.8722 13.0667 16.1193 13.9996 16.5872 14.826C17.055 15.6523 17.7277 16.3442 18.5406 16.8351L21.1126 18.3781C21.1903 18.4246 21.2791 18.4492 21.3696 18.4492C21.4602 18.4492 21.549 18.4246 21.6266 18.3781L23.8696 17.0321V22.6321C23.8694 22.8495 23.7829 23.0579 23.6292 23.2116C23.4754 23.3654 23.267 23.4518 23.0496 23.4521H3.68963C3.47223 23.4518 3.26382 23.3654 3.11009 23.2116C2.95637 23.0579 2.86989 22.8495 2.86963 22.6321V11.4491H14.3696C14.5022 11.4491 14.6294 11.3964 14.7232 11.3027C14.817 11.2089 14.8696 11.0817 14.8696 10.9491C14.8696 10.8165 14.817 10.6893 14.7232 10.5955C14.6294 10.5018 14.5022 10.4491 14.3696 10.4491H2.86963V9.2691C2.86989 9.0517 2.95637 8.84329 3.11009 8.68957C3.26382 8.53584 3.47223 8.44937 3.68963 8.4491H14.3696C14.5022 8.4491 14.6294 8.39642 14.7232 8.30265C14.817 8.20889 14.8696 8.08171 14.8696 7.9491C14.8696 7.81649 14.817 7.68932 14.7232 7.59555C14.6294 7.50178 14.5022 7.4491 14.3696 7.4491H3.68963C3.20702 7.44937 2.74425 7.6412 2.40299 7.98246C2.06173 8.32372 1.86989 8.78649 1.86963 9.2691V22.6291C1.86989 23.1117 2.06173 23.5745 2.40299 23.9157C2.74425 24.257 3.20702 24.4488 3.68963 24.4491H23.0496C23.5322 24.4488 23.995 24.257 24.3363 23.9157C24.6775 23.5745 24.8694 23.1117 24.8696 22.6291V16.3491C25.4925 15.8327 25.9944 15.1859 26.34 14.4543C26.6856 13.7227 26.8664 12.9242 26.8696 12.1151V6.9491C26.8696 6.84925 26.8397 6.75169 26.7837 6.66899C26.7278 6.58629 26.6483 6.52225 26.5556 6.4851ZM25.8696 12.1171C25.8676 12.8941 25.6654 13.6575 25.2825 14.3336C24.8996 15.0097 24.3489 15.5757 23.6836 15.9771L21.3696 17.3661L19.0556 15.9771C18.3903 15.5757 17.8397 15.0097 17.4568 14.3336C17.0739 13.6575 16.8717 12.8941 16.8696 12.1171V7.2871L21.3696 5.4871L25.8696 7.2871V12.1171Z" fill="#231F20"/>
<path d="M19.7234 10.682C19.677 10.6355 19.6219 10.5986 19.5612 10.5734C19.5005 10.5482 19.4355 10.5352 19.3698 10.5352C19.3041 10.5351 19.239 10.548 19.1783 10.5731C19.1176 10.5982 19.0624 10.635 19.0159 10.6815C18.9694 10.7279 18.9325 10.783 18.9074 10.8437C18.8822 10.9044 18.8692 10.9694 18.8691 11.0351C18.8691 11.1008 18.882 11.1659 18.9071 11.2266C18.9322 11.2873 18.969 11.3425 19.0154 11.389L20.3494 12.722C20.4432 12.8157 20.5703 12.8683 20.7029 12.8683C20.8355 12.8683 20.9627 12.8157 21.0564 12.722L23.7234 10.055C23.8172 9.96106 23.8698 9.83378 23.8697 9.7011C23.8696 9.56841 23.8168 9.4412 23.7229 9.34745C23.629 9.2537 23.5017 9.20108 23.3691 9.20117C23.2364 9.20127 23.1092 9.25406 23.0154 9.34795L20.7024 11.662L19.7234 10.682Z" fill="#231F20"/>
<path d="M5.36963 20.4492C5.23702 20.4492 5.10984 20.5019 5.01608 20.5957C4.92231 20.6894 4.86963 20.8166 4.86963 20.9492C4.86963 21.0818 4.92231 21.209 5.01608 21.3028C5.10984 21.3965 5.23702 21.4492 5.36963 21.4492H9.36963C9.50224 21.4492 9.62942 21.3965 9.72319 21.3028C9.81695 21.209 9.86963 21.0818 9.86963 20.9492C9.86963 20.8166 9.81695 20.6894 9.72319 20.5957C9.62942 20.5019 9.50224 20.4492 9.36963 20.4492H5.36963Z" fill="#231F20"/>
</svg>
