<svg width="26" height="26" viewBox="0 0 26 26" fill="none" xmlns="http://www.w3.org/2000/svg">
<g clip-path="url(#clip0_6105_16802)">
<path d="M12.3855 7.70662C12.4221 7.75676 12.47 7.79755 12.5254 7.82568C12.5807 7.8538 12.6419 7.86845 12.704 7.86845C12.7661 7.86845 12.8273 7.8538 12.8827 7.82568C12.938 7.79755 12.986 7.75676 13.0226 7.70662C13.0256 7.70232 15.1414 4.72142 15.1552 4.70217C15.4787 4.21734 15.6457 3.64495 15.6337 3.06222C15.6435 2.67135 15.5749 2.28247 15.432 1.9185C15.2892 1.55453 15.075 1.22283 14.8019 0.94293C14.5289 0.663028 14.2027 0.440589 13.8424 0.288713C13.4821 0.136836 13.095 0.0585938 12.704 0.0585938C12.313 0.0585937 11.926 0.136836 11.5657 0.288713C11.2054 0.440589 10.8791 0.663028 10.6061 0.94293C10.3331 1.22283 10.1189 1.55453 9.97603 1.9185C9.83318 2.28247 9.7646 2.67135 9.77435 3.06222C9.7671 3.64429 9.93365 4.21528 10.2527 4.70217L12.3855 7.70662ZM12.704 0.83988C13.2834 0.850504 13.8349 1.09041 14.2376 1.50699C14.6403 1.92358 14.8614 2.48286 14.8525 3.06222C14.8684 3.48186 14.7524 3.89594 14.5208 4.24621C14.5191 4.24849 14.5181 4.25004 12.704 6.80568L10.8895 4.24955C10.6648 3.8948 10.5487 3.48209 10.5556 3.06222C10.5466 2.48286 10.7677 1.92358 11.1705 1.50699C11.5732 1.09041 12.1247 0.850503 12.704 0.83988Z" fill="#2D4356"/>
<path d="M12.7039 4.16016C12.9357 4.1602 13.1623 4.0915 13.355 3.96275C13.5478 3.834 13.698 3.65099 13.7867 3.43685C13.8754 3.22272 13.8987 2.98708 13.8535 2.75974C13.8083 2.53241 13.6967 2.32358 13.5328 2.15968C13.3689 1.99577 13.1601 1.88415 12.9327 1.83893C12.7054 1.7937 12.4698 1.81691 12.2556 1.90562C12.0415 1.99433 11.8585 2.14454 11.7297 2.33727C11.6009 2.53 11.5322 2.75659 11.5322 2.98838C11.5326 3.29901 11.6562 3.59681 11.8758 3.81647C12.0955 4.03613 12.3933 4.15973 12.7039 4.16016ZM12.7039 2.59766C12.7812 2.59762 12.8567 2.62049 12.921 2.66339C12.9852 2.70628 13.0353 2.76727 13.0649 2.83864C13.0945 2.91001 13.1023 2.98855 13.0873 3.06433C13.0722 3.14012 13.035 3.20974 12.9804 3.26439C12.9258 3.31905 12.8562 3.35628 12.7804 3.37137C12.7047 3.38647 12.6261 3.37876 12.5547 3.34922C12.4833 3.31967 12.4223 3.26962 12.3794 3.20539C12.3364 3.14116 12.3135 3.06564 12.3135 2.98838C12.3136 2.88484 12.3548 2.78558 12.428 2.71234C12.5011 2.6391 12.6004 2.59786 12.7039 2.59766Z" fill="#2D4356"/>
<path d="M12.7043 17.248C11.9178 17.2589 11.1677 17.5813 10.6185 18.1444C10.0693 18.7075 9.76583 19.4654 9.77461 20.252C9.76794 20.8342 9.9345 21.4052 10.2531 21.8926L12.3859 24.8965C12.4225 24.9467 12.4703 24.9876 12.5257 25.0157C12.581 25.0439 12.6422 25.0586 12.7043 25.0586C12.7664 25.0586 12.8276 25.0439 12.8829 25.0157C12.9383 24.9876 12.9861 24.9467 13.0227 24.8965C13.0266 24.8926 15.1418 21.9121 15.1555 21.8926C15.4788 21.4074 15.6458 20.8349 15.634 20.252C15.6428 19.4654 15.3393 18.7075 14.7901 18.1444C14.2409 17.5813 13.4908 17.2589 12.7043 17.248ZM14.5207 21.4355C14.5187 21.4395 14.5187 21.4395 12.7043 23.9961L10.8898 21.4395C10.6654 21.0845 10.5493 20.6718 10.5559 20.252C10.5461 19.9637 10.5944 19.6764 10.698 19.4072C10.8015 19.138 10.9582 18.8924 11.1587 18.685C11.3591 18.4776 11.5993 18.3126 11.8648 18.2C12.1304 18.0874 12.4159 18.0293 12.7043 18.0293C12.9927 18.0293 13.2782 18.0874 13.5438 18.2C13.8093 18.3126 14.0495 18.4776 14.2499 18.685C14.4504 18.8924 14.6071 19.138 14.7106 19.4072C14.8142 19.6764 14.8625 19.9637 14.8527 20.252C14.8685 20.6715 14.7524 21.0854 14.5207 21.4355Z" fill="#2D4356"/>
<path d="M12.7039 18.0293C12.1245 18.04 11.573 18.2799 11.1703 18.6966C10.7675 19.1132 10.5464 19.6726 10.5554 20.252C10.5489 20.6718 10.665 21.0845 10.8894 21.4395L12.7039 23.9961C14.5183 21.4395 14.5183 21.4395 14.5203 21.4355C14.752 21.0854 14.8681 20.6715 14.8523 20.252C14.8613 19.6726 14.6402 19.1132 14.2375 18.6966C13.8348 18.2799 13.2833 18.04 12.7039 18.0293ZM12.7039 21.3516C12.4721 21.3516 12.2455 21.2828 12.0528 21.1541C11.8601 21.0253 11.7099 20.8423 11.6212 20.6281C11.5325 20.414 11.5093 20.1784 11.5545 19.9511C11.5997 19.7237 11.7113 19.5149 11.8752 19.351C12.0391 19.1872 12.2479 19.0755 12.4753 19.0303C12.7026 18.9851 12.9382 19.0083 13.1523 19.097C13.3665 19.1857 13.5495 19.3359 13.6783 19.5286C13.807 19.7213 13.8758 19.9479 13.8758 20.1797C13.8755 20.4904 13.752 20.7883 13.5322 21.0081C13.3125 21.2278 13.0146 21.3513 12.7039 21.3516Z" fill="#FC785E"/>
<path d="M12.7041 19.0078C12.4723 19.0078 12.2458 19.0765 12.053 19.2053C11.8603 19.3341 11.7101 19.5171 11.6214 19.7312C11.5327 19.9454 11.5095 20.181 11.5547 20.4083C11.6 20.6356 11.7116 20.8444 11.8755 21.0083C12.0394 21.1722 12.2482 21.2838 12.4755 21.329C12.7028 21.3743 12.9384 21.3511 13.1526 21.2624C13.3667 21.1737 13.5497 21.0235 13.6785 20.8307C13.8072 20.638 13.876 20.4115 13.876 20.1797C13.8757 19.869 13.7522 19.571 13.5325 19.3513C13.3128 19.1316 13.0148 19.0081 12.7041 19.0078ZM12.7041 20.5703C12.6268 20.5703 12.5513 20.5474 12.4871 20.5045C12.4228 20.4616 12.3728 20.4006 12.3432 20.3292C12.3136 20.2578 12.3059 20.1793 12.321 20.1035C12.3361 20.0277 12.3733 19.9581 12.4279 19.9035C12.4825 19.8488 12.5521 19.8116 12.6279 19.7966C12.7037 19.7815 12.7822 19.7892 12.8536 19.8188C12.925 19.8484 12.986 19.8984 13.0289 19.9627C13.0718 20.0269 13.0947 20.1024 13.0947 20.1797C13.0944 20.2832 13.0532 20.3824 12.98 20.4556C12.9068 20.5288 12.8076 20.57 12.7041 20.5703Z" fill="#2D4356"/>
<path d="M8.97196 18.4589C8.0635 18.007 7.27956 17.3395 6.68868 16.5147C6.77108 16.5014 6.84703 16.4619 6.90538 16.4023C6.96374 16.3426 7.00143 16.2657 7.01293 16.1831C7.02442 16.1004 7.00912 16.0162 6.96927 15.9429C6.92941 15.8695 6.8671 15.8109 6.79147 15.7755L5.83829 15.3298C5.77624 15.3007 5.70764 15.2885 5.63938 15.2944C5.57112 15.3003 5.50561 15.324 5.44941 15.3631C5.39321 15.4023 5.34831 15.4556 5.31921 15.5176C5.29011 15.5796 5.27784 15.6482 5.28362 15.7165L5.37185 16.76C5.37834 16.8371 5.40757 16.9105 5.45585 16.9709C5.50413 17.0314 5.56927 17.0761 5.64301 17.0995C5.71675 17.1229 5.79577 17.1238 5.87005 17.1022C5.94433 17.0806 6.01051 17.0374 6.06021 16.9781C6.72443 17.9027 7.60441 18.6511 8.62368 19.1583C8.66961 19.1812 8.71958 19.1948 8.77076 19.1983C8.82194 19.2019 8.87332 19.1953 8.92197 19.179C8.97061 19.1627 9.01557 19.137 9.05427 19.1033C9.09297 19.0696 9.12466 19.0287 9.14753 18.9827C9.1704 18.9368 9.184 18.8868 9.18755 18.8356C9.1911 18.7845 9.18454 18.7331 9.16824 18.6844C9.15194 18.6358 9.12621 18.5908 9.09253 18.5521C9.05886 18.5134 9.01789 18.4818 8.97196 18.4589Z" fill="#2D4356"/>
<path d="M20.1627 15.3632C20.1065 15.324 20.041 15.3003 19.9727 15.2944C19.9045 15.2885 19.8359 15.3007 19.7738 15.3298L18.8207 15.7755C18.7451 15.8109 18.6828 15.8696 18.643 15.9429C18.6032 16.0163 18.5879 16.1004 18.5994 16.1831C18.6109 16.2658 18.6486 16.3426 18.7069 16.4023C18.7652 16.462 18.8411 16.5014 18.9235 16.5148C18.3327 17.3396 17.5487 18.0071 16.6402 18.4589C16.5475 18.5051 16.477 18.5863 16.4441 18.6845C16.4112 18.7827 16.4186 18.89 16.4648 18.9827C16.5119 19.0746 16.593 19.1444 16.6909 19.1772C16.7888 19.21 16.8956 19.2032 16.9885 19.1583C18.0079 18.6512 18.8879 17.9028 19.5522 16.9781C19.5852 17.0176 19.6258 17.0502 19.6715 17.0739C19.7172 17.0976 19.7671 17.112 19.8185 17.1163C19.9215 17.1242 20.0235 17.0913 20.1025 17.0246C20.1815 16.9579 20.231 16.8629 20.2406 16.76L20.3287 15.7165C20.3344 15.6482 20.3221 15.5797 20.293 15.5176C20.2639 15.4556 20.2189 15.4024 20.1627 15.3632Z" fill="#2D4356"/>
<path d="M5.69165 8.80547C5.78423 8.85134 5.89112 8.85902 5.98931 8.82686C6.0875 8.7947 6.16913 8.72527 6.21664 8.63352C6.66756 7.7329 7.32736 6.95319 8.14096 6.35948C8.14958 6.42364 8.17405 6.48465 8.21217 6.53699C8.25028 6.58932 8.30084 6.63133 8.35926 6.65922C8.45289 6.7029 8.55992 6.70808 8.65732 6.67364C8.75472 6.63919 8.83471 6.56789 8.88006 6.47506L9.34565 5.50032C9.37476 5.43937 9.38756 5.37192 9.38281 5.30454C9.37807 5.23717 9.35593 5.17218 9.31857 5.11591C9.2812 5.05965 9.22989 5.01404 9.16963 4.98353C9.10937 4.95302 9.04224 4.93866 8.97477 4.94184L7.96834 4.98934C7.88919 4.99302 7.81304 5.02071 7.75 5.06872C7.68696 5.11672 7.64003 5.18278 7.61544 5.2581C7.59084 5.33342 7.58976 5.41445 7.61232 5.4904C7.63489 5.56636 7.68003 5.63365 7.74176 5.68333C6.80036 6.35488 6.0375 7.2465 5.51969 8.28047C5.47288 8.3729 5.4647 8.48013 5.49695 8.57858C5.52919 8.67704 5.59923 8.75865 5.69165 8.80547Z" fill="#2D4356"/>
<path d="M16.5364 6.47507C16.582 6.56774 16.662 6.6389 16.7593 6.67332C16.8567 6.70774 16.9637 6.70268 17.0573 6.65923C17.1157 6.63133 17.1663 6.58931 17.2044 6.53698C17.2425 6.48464 17.2669 6.42364 17.2755 6.35948C18.0891 6.95325 18.7489 7.73294 19.1998 8.63353C19.2475 8.72513 19.3291 8.79442 19.4272 8.82657C19.5253 8.85871 19.6321 8.85114 19.7248 8.80548C19.8172 8.75866 19.8872 8.67706 19.9195 8.5786C19.9517 8.48015 19.9436 8.37291 19.8968 8.28048C19.3791 7.24653 18.6163 6.35496 17.6749 5.68353C17.7366 5.63382 17.7818 5.56652 17.8043 5.49055C17.8269 5.41459 17.8258 5.33356 17.8012 5.25822C17.7766 5.18289 17.7297 5.11682 17.6667 5.0688C17.6036 5.02077 17.5275 4.99306 17.4483 4.98935L16.4418 4.94185C16.3743 4.93864 16.3072 4.953 16.2469 4.9835C16.1867 5.014 16.1353 5.05961 16.098 5.11588C16.0606 5.17215 16.0384 5.23714 16.0337 5.30452C16.0289 5.37191 16.0417 5.43937 16.0708 5.50032L16.5364 6.47507Z" fill="#2D4356"/>
<path d="M12.7041 8.84766C11.9701 8.84766 11.2527 9.0653 10.6424 9.47306C10.0322 9.88082 9.55652 10.4604 9.27564 11.1385C8.99477 11.8166 8.92128 12.5627 9.06447 13.2826C9.20766 14.0024 9.56109 14.6636 10.0801 15.1826C10.5991 15.7016 11.2603 16.055 11.9801 16.1982C12.7 16.3414 13.4461 16.2679 14.1242 15.9871C14.8023 15.7062 15.3819 15.2305 15.7896 14.6203C16.1974 14.01 16.415 13.2925 16.415 12.5586C16.4142 11.5747 16.0229 10.6313 15.3272 9.93555C14.6314 9.2398 13.688 8.84854 12.7041 8.84766ZM12.7041 15.4883C12.1247 15.4883 11.5582 15.3165 11.0765 14.9945C10.5947 14.6726 10.2192 14.2151 9.99743 13.6797C9.77568 13.1444 9.71767 12.5553 9.83071 11.987C9.94375 11.4187 10.2228 10.8967 10.6325 10.487C11.0422 10.0773 11.5642 9.79824 12.1326 9.6852C12.7009 9.57216 13.2899 9.63017 13.8252 9.85192C14.3606 10.0737 14.8181 10.4492 15.14 10.9309C15.462 11.4127 15.6338 11.9792 15.6338 12.5586C15.6328 13.3353 15.3239 14.0799 14.7747 14.6292C14.2254 15.1784 13.4808 15.4873 12.7041 15.4883Z" fill="#2D4356"/>
<path d="M12.7041 9.62891C12.1247 9.62891 11.5582 9.80073 11.0765 10.1226C10.5947 10.4446 10.2192 10.9021 9.99742 11.4375C9.77568 11.9728 9.71767 12.5618 9.83071 13.1301C9.94375 13.6985 10.2228 14.2205 10.6325 14.6302C11.0422 15.0399 11.5642 15.3189 12.1325 15.432C12.7009 15.545 13.2899 15.487 13.8252 15.2653C14.3606 15.0435 14.8181 14.668 15.14 14.1862C15.462 13.7045 15.6338 13.138 15.6338 12.5586C15.6328 11.7819 15.3239 11.0373 14.7747 10.488C14.2254 9.93882 13.4808 9.62985 12.7041 9.62891ZM12.7041 13.9258C12.4337 13.9258 12.1694 13.8456 11.9445 13.6954C11.7197 13.5451 11.5445 13.3316 11.441 13.0818C11.3375 12.832 11.3104 12.5571 11.3632 12.2919C11.4159 12.0267 11.5462 11.7831 11.7374 11.5918C11.9286 11.4006 12.1722 11.2704 12.4374 11.2177C12.7026 11.1649 12.9775 11.192 13.2273 11.2955C13.4771 11.399 13.6906 11.5742 13.8409 11.799C13.9911 12.0239 14.0713 12.2882 14.0713 12.5586C14.0709 12.9211 13.9267 13.2686 13.6704 13.5249C13.4141 13.7812 13.0666 13.9254 12.7041 13.9258Z" fill="#81D9E3"/>
<path d="M12.7041 11.1914C12.4337 11.1914 12.1694 11.2716 11.9445 11.4218C11.7197 11.572 11.5445 11.7856 11.441 12.0354C11.3375 12.2852 11.3104 12.5601 11.3632 12.8253C11.4159 13.0905 11.5461 13.3341 11.7374 13.5253C11.9286 13.7165 12.1722 13.8468 12.4374 13.8995C12.7026 13.9523 12.9775 13.9252 13.2273 13.8217C13.4771 13.7182 13.6906 13.543 13.8409 13.3182C13.9911 13.0933 14.0713 12.829 14.0713 12.5586C14.0709 12.1961 13.9267 11.8486 13.6704 11.5923C13.4141 11.336 13.0666 11.1918 12.7041 11.1914ZM12.7041 13.1445C12.5882 13.1445 12.4749 13.1102 12.3786 13.0458C12.2822 12.9814 12.2071 12.8899 12.1628 12.7828C12.1184 12.6758 12.1068 12.5579 12.1294 12.4443C12.152 12.3306 12.2078 12.2262 12.2898 12.1443C12.3717 12.0623 12.4761 12.0065 12.5898 11.9839C12.7035 11.9613 12.8213 11.9729 12.9283 12.0173C13.0354 12.0616 13.1269 12.1367 13.1913 12.2331C13.2557 12.3294 13.29 12.4427 13.29 12.5586C13.2896 12.7139 13.2277 12.8626 13.1179 12.9724C13.0081 13.0822 12.8594 13.1441 12.7041 13.1445Z" fill="#2D4356"/>
<path d="M6.0637 11.6579C6.0725 10.8714 5.76901 10.1135 5.21981 9.55044C4.6706 8.98737 3.9205 8.6651 3.13402 8.6543C2.34754 8.66512 1.59745 8.98739 1.04824 9.55046C0.49904 10.1135 0.195549 10.8714 0.204328 11.6579C0.197081 12.24 0.363635 12.811 0.682686 13.2978L2.81548 16.3023C2.85209 16.3524 2.90002 16.3932 2.95537 16.4214C3.01072 16.4495 3.07193 16.4641 3.13401 16.4641C3.1961 16.4641 3.25731 16.4495 3.31266 16.4214C3.36801 16.3932 3.41594 16.3524 3.45255 16.3023C3.4556 16.298 5.57142 13.3171 5.58515 13.2978C5.90865 12.813 6.07568 12.2406 6.0637 11.6579ZM4.95077 12.8419C4.94906 12.8442 4.9481 12.8457 3.13402 15.4014L1.31946 12.8452C1.09477 12.4905 0.978716 12.0778 0.985578 11.6579C0.976605 11.0785 1.19772 10.5193 1.60046 10.1027C2.00319 9.68608 2.55468 9.44617 3.13402 9.43555C3.71335 9.44617 4.26484 9.68608 4.66757 10.1027C5.07031 10.5193 5.29143 11.0785 5.28245 11.6579C5.2984 12.0775 5.18241 12.4916 4.95077 12.8419Z" fill="#2D4356"/>
<path d="M3.13359 10.4121C2.90183 10.4121 2.67528 10.4809 2.4826 10.6097C2.28991 10.7385 2.13974 10.9215 2.05107 11.1356C1.9624 11.3498 1.93922 11.5854 1.98445 11.8127C2.02968 12.04 2.1413 12.2488 2.30518 12.4127C2.46907 12.5765 2.67787 12.6881 2.90518 12.7333C3.13249 12.7786 3.3681 12.7554 3.58222 12.6667C3.79635 12.578 3.97936 12.4278 4.10813 12.2351C4.2369 12.0424 4.30565 11.8158 4.30566 11.5841C4.30536 11.2733 4.18177 10.9754 3.96203 10.7557C3.74229 10.536 3.44434 10.4124 3.13359 10.4121ZM3.13359 11.9746C3.05634 11.9746 2.98083 11.9516 2.91662 11.9087C2.8524 11.8657 2.80237 11.8047 2.77283 11.7333C2.7433 11.6619 2.7356 11.5834 2.7507 11.5076C2.7658 11.4319 2.80303 11.3623 2.85768 11.3077C2.91233 11.2531 2.98194 11.2159 3.05771 11.2008C3.13349 11.1858 3.21202 11.1936 3.28339 11.2231C3.35475 11.2527 3.41574 11.3028 3.45864 11.3671C3.50155 11.4313 3.52443 11.5068 3.52441 11.5841C3.5243 11.6877 3.48308 11.787 3.4098 11.8602C3.33653 11.9334 3.23718 11.9746 3.13359 11.9746Z" fill="#2D4356"/>
<path d="M22.2746 8.6543C21.4882 8.6651 20.7381 8.98737 20.1889 9.55044C19.6396 10.1135 19.3362 10.8714 19.345 11.6579C19.3377 12.24 19.5043 12.811 19.8233 13.2978L21.9561 16.3023C21.9927 16.3524 22.0406 16.3932 22.096 16.4214C22.1513 16.4495 22.2126 16.4641 22.2746 16.4641C22.3367 16.4641 22.3979 16.4495 22.4533 16.4214C22.5086 16.3932 22.5566 16.3524 22.5932 16.3023C22.5962 16.298 24.712 13.3171 24.7258 13.2978C25.0493 12.813 25.2163 12.2406 25.2043 11.6579C25.2131 10.8714 24.9096 10.1135 24.3604 9.55044C23.8112 8.98737 23.0611 8.6651 22.2746 8.6543ZM24.0914 12.8419C24.0897 12.8442 24.0887 12.8457 22.2746 15.4014L20.46 12.8452C20.2354 12.4905 20.1194 12.0778 20.1262 11.6579C20.1164 11.3697 20.1648 11.0824 20.2684 10.8132C20.3719 10.544 20.5286 10.2984 20.7291 10.0911C20.9296 9.88371 21.1697 9.71881 21.4352 9.60618C21.7008 9.49356 21.9862 9.43552 22.2746 9.43552C22.5631 9.43552 22.8485 9.49356 23.1141 9.60618C23.3796 9.71881 23.6197 9.88371 23.8202 10.0911C24.0206 10.2984 24.1773 10.544 24.2809 10.8132C24.3845 11.0824 24.4328 11.3697 24.4231 11.6579C24.439 12.0775 24.323 12.4916 24.0914 12.8419Z" fill="#2D4356"/>
<path d="M22.2742 10.4121C22.0425 10.4121 21.8159 10.4809 21.6232 10.6097C21.4305 10.7385 21.2804 10.9215 21.1917 11.1356C21.103 11.3498 21.0798 11.5854 21.1251 11.8127C21.1703 12.04 21.2819 12.2488 21.4458 12.4127C21.6097 12.5765 21.8185 12.6881 22.0458 12.7333C22.2731 12.7786 22.5087 12.7554 22.7228 12.6667C22.937 12.578 23.12 12.4278 23.2488 12.2351C23.3775 12.0424 23.4463 11.8158 23.4463 11.5841C23.446 11.2733 23.3224 10.9754 23.1026 10.7557C22.8829 10.536 22.585 10.4124 22.2742 10.4121ZM22.2742 11.9746C22.197 11.9746 22.1215 11.9516 22.0572 11.9087C21.993 11.8657 21.943 11.8047 21.9135 11.7333C21.8839 11.6619 21.8762 11.5834 21.8913 11.5076C21.9064 11.4319 21.9437 11.3623 21.9983 11.3077C22.053 11.2531 22.1226 11.2159 22.1983 11.2008C22.2741 11.1858 22.3526 11.1936 22.424 11.2231C22.4954 11.2527 22.5564 11.3028 22.5993 11.3671C22.6422 11.4313 22.6651 11.5068 22.665 11.5841C22.6649 11.6877 22.6237 11.787 22.5504 11.8602C22.4772 11.9334 22.3778 11.9746 22.2742 11.9746Z" fill="#2D4356"/>
<path opacity="0.5" d="M14.8523 20.252C14.8681 20.6715 14.752 21.0854 14.5203 21.4355C14.5183 21.4395 14.5183 21.4395 12.7039 23.9961L10.8894 21.4395C10.665 21.0845 10.5489 20.6718 10.5554 20.252C10.5547 20.1867 10.558 20.1215 10.5652 20.0566C10.5854 20.4099 10.6971 20.7518 10.8894 21.0488L12.7039 23.6055C14.5183 21.0488 14.5183 21.0488 14.5203 21.0449C14.718 20.7549 14.8303 20.4152 14.8445 20.0645C14.8504 20.127 14.8523 20.1895 14.8523 20.252Z" fill="#A54B3F"/>
<path opacity="0.3" d="M14.8523 20.2519C14.8523 20.3183 14.8504 20.3867 14.8445 20.4551C14.817 19.9068 14.58 19.39 14.1826 19.0113C13.7851 18.6327 13.2575 18.421 12.7086 18.42C12.1596 18.419 11.6312 18.6287 11.2324 19.0059C10.8336 19.3832 10.5947 19.8991 10.5652 20.4472C10.5581 20.3824 10.5548 20.3172 10.5554 20.2519C10.5456 19.9637 10.594 19.6764 10.6975 19.4071C10.8011 19.1379 10.9578 18.8923 11.1582 18.6849C11.3587 18.4775 11.5989 18.3126 11.8644 18.2C12.1299 18.0873 12.4154 18.0293 12.7039 18.0293C12.9923 18.0293 13.2778 18.0873 13.5433 18.2C13.8089 18.3126 14.049 18.4775 14.2495 18.6849C14.45 18.8923 14.6067 19.1379 14.7102 19.4071C14.8138 19.6764 14.8621 19.9637 14.8523 20.2519Z" fill="#F9DBD7"/>
<path d="M12.7039 0.841797C12.1245 0.852466 11.573 1.09243 11.1703 1.50907C10.7675 1.92572 10.5464 2.48505 10.5554 3.06445C10.5489 3.48435 10.665 3.89703 10.8894 4.25195L12.7039 6.80859C14.5183 4.25195 14.5183 4.25195 14.5203 4.24805C14.752 3.89792 14.8681 3.48399 14.8523 3.06445C14.8613 2.48505 14.6402 1.92572 14.2375 1.50907C13.8348 1.09243 13.2833 0.852466 12.7039 0.841797ZM12.7039 4.16406C12.4721 4.16406 12.2455 4.09533 12.0528 3.96657C11.8601 3.8378 11.7099 3.65478 11.6212 3.44064C11.5325 3.22651 11.5093 2.99089 11.5545 2.76357C11.5997 2.53624 11.7113 2.32744 11.8752 2.16355C12.0391 1.99966 12.2479 1.88805 12.4753 1.84283C12.7026 1.79761 12.9382 1.82082 13.1523 1.90952C13.3665 1.99821 13.5495 2.14841 13.6783 2.34113C13.807 2.53384 13.8758 2.76041 13.8758 2.99219C13.8755 3.30291 13.752 3.60084 13.5322 3.82056C13.3125 4.04027 13.0146 4.16382 12.7039 4.16406Z" fill="#FC785E"/>
<path opacity="0.5" d="M14.8523 3.06445C14.8681 3.48399 14.752 3.89792 14.5203 4.24805C14.5183 4.25195 14.5183 4.25195 12.7039 6.80859L10.8894 4.25195C10.665 3.89703 10.5489 3.48435 10.5554 3.06445C10.5547 2.99921 10.558 2.93399 10.5652 2.86914C10.5854 3.22239 10.6971 3.56432 10.8894 3.86133L12.7039 6.41797C14.5183 3.86133 14.5183 3.86133 14.5203 3.85742C14.718 3.56738 14.8303 3.22768 14.8445 2.87695C14.8504 2.93945 14.8523 3.00195 14.8523 3.06445Z" fill="#A54B3F"/>
<path opacity="0.3" d="M14.8523 3.06443C14.8523 3.13083 14.8504 3.19918 14.8445 3.26755C14.817 2.71928 14.58 2.2025 14.1826 1.82383C13.7851 1.44515 13.2575 1.23348 12.7086 1.23248C12.1596 1.23147 11.6312 1.44122 11.2324 1.81844C10.8336 2.19566 10.5947 2.71158 10.5652 3.25974C10.5581 3.19489 10.5548 3.12967 10.5554 3.06443C10.5456 2.77615 10.594 2.48886 10.6975 2.21965C10.8011 1.95044 10.9578 1.70483 11.1582 1.49744C11.3587 1.29005 11.5989 1.12512 11.8644 1.01248C12.1299 0.899845 12.4154 0.841797 12.7039 0.841797C12.9923 0.841797 13.2778 0.899845 13.5433 1.01248C13.8089 1.12512 14.049 1.29005 14.2495 1.49744C14.45 1.70483 14.6067 1.95044 14.7102 2.21965C14.8138 2.48886 14.8621 2.77615 14.8523 3.06443Z" fill="#F9DBD7"/>
<path d="M22.2742 9.43555C21.6948 9.44622 21.1433 9.68618 20.7406 10.1028C20.3378 10.5195 20.1167 11.0788 20.1258 11.6582C20.1192 12.0781 20.2353 12.4908 20.4597 12.8457L22.2742 15.4023C24.0886 12.8457 24.0886 12.8457 24.0906 12.8418C24.3223 12.4917 24.4384 12.0777 24.4226 11.6582C24.4316 11.0788 24.2105 10.5195 23.8078 10.1028C23.4051 9.68618 22.8536 9.44622 22.2742 9.43555ZM22.2742 12.7578C22.0424 12.7578 21.8158 12.6891 21.6231 12.5603C21.4304 12.4315 21.2802 12.2485 21.1915 12.0344C21.1028 11.8203 21.0796 11.5846 21.1248 11.3573C21.17 11.13 21.2817 10.9212 21.4456 10.7573C21.6094 10.5934 21.8182 10.4818 22.0456 10.4366C22.2729 10.3914 22.5085 10.4146 22.7226 10.5033C22.9368 10.592 23.1198 10.7422 23.2486 10.9349C23.3773 11.1276 23.4461 11.3542 23.4461 11.5859C23.4458 11.8967 23.3223 12.1946 23.1026 12.4143C22.8828 12.634 22.5849 12.7576 22.2742 12.7578Z" fill="#FC785E"/>
<path opacity="0.5" d="M24.4226 11.6582C24.4384 12.0777 24.3223 12.4917 24.0906 12.8418C24.0886 12.8457 24.0886 12.8457 22.2742 15.4023L20.4597 12.8457C20.2353 12.4908 20.1192 12.0781 20.1258 11.6582C20.1251 11.593 20.1283 11.5277 20.1355 11.4629C20.1557 11.8161 20.2674 12.1581 20.4597 12.4551L22.2742 15.0117C24.0886 12.4551 24.0886 12.4551 24.0906 12.4512C24.2883 12.1611 24.4006 11.8214 24.4148 11.4707C24.4207 11.5332 24.4226 11.5957 24.4226 11.6582Z" fill="#A54B3F"/>
<path opacity="0.3" d="M24.4226 11.6582C24.4226 11.7246 24.4207 11.7929 24.4148 11.8613C24.3873 11.313 24.1503 10.7963 23.7529 10.4176C23.3555 10.0389 22.8278 9.82723 22.2789 9.82623C21.7299 9.82522 21.2015 10.035 20.8027 10.4122C20.4039 10.7894 20.1651 11.3053 20.1355 11.8535C20.1284 11.7886 20.1251 11.7234 20.1258 11.6582C20.116 11.3699 20.1643 11.0826 20.2678 10.8134C20.3714 10.5442 20.5281 10.2986 20.7286 10.0912C20.929 9.8838 21.1692 9.71887 21.4347 9.60623C21.7003 9.4936 21.9857 9.43555 22.2742 9.43555C22.5626 9.43555 22.8481 9.4936 23.1137 9.60623C23.3792 9.71887 23.6193 9.8838 23.8198 10.0912C24.0203 10.2986 24.177 10.5442 24.2805 10.8134C24.3841 11.0826 24.4324 11.3699 24.4226 11.6582Z" fill="#F9DBD7"/>
<path d="M3.13357 9.43555C2.55419 9.44622 2.00269 9.68618 1.59995 10.1028C1.19722 10.5195 0.976122 11.0788 0.985128 11.6582C0.978589 12.0781 1.09466 12.4908 1.31911 12.8457L3.13357 15.4023C4.94802 12.8457 4.94802 12.8457 4.94997 12.8418C5.18165 12.4917 5.29777 12.0777 5.282 11.6582C5.29101 11.0788 5.06991 10.5195 4.66718 10.1028C4.26444 9.68618 3.71294 9.44622 3.13357 9.43555ZM3.13357 12.7578C2.90179 12.7578 2.67522 12.6891 2.48251 12.5603C2.28979 12.4315 2.13959 12.2485 2.05089 12.0344C1.9622 11.8203 1.93899 11.5846 1.98421 11.3573C2.02943 11.13 2.14104 10.9212 2.30492 10.7573C2.46881 10.5934 2.67762 10.4818 2.90494 10.4366C3.13227 10.3914 3.36789 10.4146 3.58202 10.5033C3.79615 10.592 3.97918 10.7422 4.10794 10.9349C4.23671 11.1276 4.30544 11.3542 4.30544 11.5859C4.30519 11.8967 4.18165 12.1946 3.96193 12.4143C3.74222 12.634 3.44429 12.7576 3.13357 12.7578Z" fill="#FC785E"/>
<path opacity="0.5" d="M5.282 11.6582C5.29777 12.0777 5.18165 12.4917 4.94997 12.8418C4.94802 12.8457 4.94802 12.8457 3.13356 15.4023L1.31911 12.8457C1.09465 12.4908 0.978586 12.0781 0.985125 11.6582C0.984434 11.593 0.987695 11.5277 0.994891 11.4629C1.01507 11.8161 1.1268 12.1581 1.31911 12.4551L3.13356 15.0117C4.94802 12.4551 4.94802 12.4551 4.94997 12.4512C5.14767 12.1611 5.26001 11.8214 5.27419 11.4707C5.28005 11.5332 5.282 11.5957 5.282 11.6582Z" fill="#A54B3F"/>
<path opacity="0.3" d="M5.282 11.6582C5.282 11.7246 5.28005 11.793 5.27419 11.8613C5.23758 11.3155 4.9972 10.8033 4.60071 10.4264C4.20422 10.0494 3.68057 9.83518 3.13357 9.82617C2.58794 9.83481 2.06543 10.0479 1.6694 10.4233C1.27337 10.7987 1.03266 11.3091 0.994894 11.8535C0.987747 11.7887 0.984486 11.7234 0.985128 11.6582C0.976122 11.0788 1.19722 10.5195 1.59995 10.1028C2.00269 9.68618 2.55419 9.44622 3.13357 9.43555C3.71294 9.44622 4.26444 9.68618 4.66718 10.1028C5.06991 10.5195 5.29101 11.0788 5.282 11.6582Z" fill="#F9DBD7"/>
<path opacity="0.3" d="M15.6338 12.5586C15.6338 13.3356 15.3251 14.0808 14.7757 14.6302C14.2263 15.1796 13.4811 15.4883 12.7041 15.4883C11.9271 15.4883 11.1819 15.1796 10.6325 14.6302C10.0831 14.0808 9.77441 13.3356 9.77441 12.5586C9.77441 12.4922 9.77637 12.4277 9.78223 12.3633C9.83145 13.1047 10.1607 13.7997 10.7032 14.3074C11.2458 14.8151 11.961 15.0976 12.7041 15.0976C13.4472 15.0976 14.1624 14.8151 14.705 14.3074C15.2475 13.7997 15.5767 13.1047 15.626 12.3633C15.6318 12.4277 15.6338 12.4922 15.6338 12.5586Z" fill="#0F423C"/>
<path opacity="0.4" d="M15.6338 12.5586C15.6338 12.625 15.6318 12.6895 15.626 12.7539C15.5767 12.0125 15.2475 11.3175 14.705 10.8098C14.1624 10.3021 13.4472 10.0196 12.7041 10.0196C11.961 10.0196 11.2458 10.3021 10.7032 10.8098C10.1607 11.3175 9.83145 12.0125 9.78223 12.7539C9.77637 12.6895 9.77441 12.625 9.77441 12.5586C9.77441 11.7816 10.0831 11.0364 10.6325 10.487C11.1819 9.93757 11.9271 9.62891 12.7041 9.62891C13.4811 9.62891 14.2263 9.93757 14.7757 10.487C15.3251 11.0364 15.6338 11.7816 15.6338 12.5586Z" fill="#E8FBFC"/>
</g>
<defs>
<clipPath id="clip0_6105_16802">
<rect width="25" height="25" fill="white" transform="translate(0.204102 0.0585938)"/>
</clipPath>
</defs>
</svg>
