<svg width="26" height="26" viewBox="0 0 26 26" fill="none" xmlns="http://www.w3.org/2000/svg">
<g clip-path="url(#clip0_6093_16131)">
<path d="M22.6774 7.04802L22.744 3.54382C22.6954 3.07444 22.2755 2.73328 21.806 2.78186C21.6566 2.79734 21.569 2.75281 21.454 2.83313C21.2077 3.0052 21.0598 3.30217 21.0929 3.62214L21.2179 4.82971L18.2361 1.84792C17.9024 1.51423 17.3613 1.51423 17.0276 1.84792C16.6939 2.18162 16.6939 2.72268 17.0276 3.05637L20.0094 6.03821L18.8019 5.91321C18.3324 5.86458 17.9125 6.20574 17.8639 6.67517C17.8364 6.94163 17.9343 7.19207 18.11 7.3678C18.2439 7.50164 18.4229 7.59211 18.6259 7.61316L21.659 7.92717L22.1789 7.8884C22.4349 7.91492 22.6891 7.82463 22.8711 7.64265C23.0531 7.46062 22.7039 7.30403 22.6774 7.04802Z" fill="#BBEC6C"/>
<path d="M3.04165 18.3097L3.41455 21.9116C3.46313 22.381 3.88305 22.7221 4.35249 22.6735C4.82187 22.625 5.16303 22.205 5.11445 21.7356L4.98945 20.528L7.483 23.0216C7.8167 23.3553 8.35776 23.3553 8.69145 23.0216C9.02514 22.6879 9.02514 22.1469 8.69145 21.8131L6.1979 19.3196L7.40547 19.4446C7.8749 19.4932 8.29482 19.1521 8.34341 18.6826C8.37099 18.4162 8.27304 18.1657 8.09731 17.99C7.96347 17.8562 7.78447 17.7657 7.58144 17.7446L3.97959 17.3717C3.72363 17.3452 3.46933 17.4355 3.28735 17.6175C3.10542 17.7995 3.01518 18.0537 3.04165 18.3097Z" fill="#FE73C5"/>
<path d="M9.1793 22.3015L8.33682 21.459C8.53818 21.7978 8.49419 22.2418 8.20273 22.5333C7.91128 22.8248 7.46719 22.8688 7.12842 22.6674L7.9709 23.5099C8.30459 23.8436 8.84565 23.8436 9.17935 23.5099C9.51299 23.1762 9.51299 22.6352 9.1793 22.3015Z" fill="#FE2AA8"/>
<path d="M23.1657 7.04811L22.7928 3.44626C22.7442 2.97687 22.3243 2.63571 21.8548 2.6843C21.7054 2.69977 21.5691 2.75314 21.4541 2.83351C21.6509 2.97067 21.7896 3.18889 21.8162 3.44621L22.1891 7.04806C22.2156 7.30407 22.1253 7.55832 21.9434 7.7403C21.8613 7.82238 21.764 7.88469 21.6589 7.92717L22.2277 7.98605C22.4837 8.01257 22.7379 7.92228 22.9199 7.7403C23.1019 7.55837 23.1922 7.30412 23.1657 7.04811Z" fill="#97D729"/>
<path d="M12.7785 9.98047H23.5757C24.2238 9.98047 24.7492 10.5059 24.7492 11.154V20.4C24.7492 21.048 24.2238 21.5734 23.5757 21.5734H22.7566C22.627 21.5734 22.5219 21.6785 22.5219 21.8082L22.1921 23.1837C22.1921 23.3941 21.6924 23.566 21.5453 23.4156L19.8831 21.7148C19.7947 21.6244 19.6737 21.5735 19.5474 21.5735H12.7785C12.1304 21.5735 11.605 21.0481 11.605 20.4V11.154C11.605 10.5059 12.1304 9.98047 12.7785 9.98047Z" fill="#CB97E7"/>
<path d="M24.0636 9.98047H22.5987C23.2468 9.98047 23.7722 10.5059 23.7722 11.154V20.4C23.7722 21.048 23.2468 21.5734 22.5987 21.5734H21.7796C21.65 21.5734 21.5449 21.6785 21.5449 21.8081V23.4155L22.6072 24.5024C22.7543 24.6529 23.0098 24.5488 23.0098 24.3384V21.8081C23.0098 21.6785 23.1148 21.5734 23.2445 21.5734H24.0636C24.7117 21.5734 25.2371 21.048 25.2371 20.4V11.154C25.2371 10.5059 24.7117 9.98047 24.0636 9.98047Z" fill="#AF66DA"/>
<path d="M12.9404 0.785156H2.14321C1.49512 0.785156 0.969727 1.31055 0.969727 1.95864V11.2046C0.969727 11.8527 1.49512 12.3781 2.14321 12.3781H2.9623C3.09194 12.3781 3.19702 12.4832 3.19702 12.6128V15.1431C3.19702 15.3535 3.45249 15.4576 3.59956 15.3072L6.32412 12.5195C6.41245 12.4291 6.53345 12.3782 6.65981 12.3782H12.9404C13.5885 12.3782 14.1139 11.8528 14.1139 11.2047V1.95864C14.1139 1.31055 13.5885 0.785156 12.9404 0.785156Z" fill="#FFE177"/>
<path d="M13.4287 0.785156H11.9639C12.612 0.785156 13.1374 1.31055 13.1374 1.95864V11.2046C13.1374 11.8527 12.612 12.3781 11.9639 12.3781H13.4287C14.0768 12.3781 14.6022 11.8527 14.6022 11.2046V1.95864C14.6022 1.31055 14.0768 0.785156 13.4287 0.785156Z" fill="#FFC344"/>
<path d="M23.1657 7.04802L22.7928 3.44617C22.7442 2.97678 22.3243 2.63562 21.8549 2.6842C21.3855 2.73279 21.0443 3.15271 21.0929 3.62214L21.2179 4.82971L18.2361 1.84792C17.9024 1.51423 17.3613 1.51423 17.0276 1.84792C16.6939 2.18162 16.6939 2.72268 17.0276 3.05637L20.0094 6.03821L18.8019 5.91321C18.3324 5.86458 17.9125 6.20574 17.8639 6.67517C17.8364 6.94163 17.9343 7.19207 18.11 7.3678C18.2439 7.50164 18.4229 7.59211 18.6259 7.61316L22.2278 7.98606C22.4838 8.01257 22.738 7.92229 22.92 7.74031C23.1019 7.55828 23.1922 7.30403 23.1657 7.04802Z" stroke="black" stroke-miterlimit="10" stroke-linecap="round" stroke-linejoin="round"/>
<path d="M16.3086 18.8957L18.3178 13.6203C18.3588 13.5199 18.5009 13.5198 18.5422 13.6201L20.5331 18.8956" stroke="black" stroke-miterlimit="10" stroke-linecap="round" stroke-linejoin="round"/>
<path d="M16.9351 17.582H19.9165" stroke="black" stroke-miterlimit="10" stroke-linecap="round" stroke-linejoin="round"/>
<path d="M14.6022 4.03652V1.95864C14.6022 1.31055 14.0768 0.785156 13.4287 0.785156H2.14321C1.49512 0.785156 0.969727 1.31055 0.969727 1.95864V11.2046C0.969727 11.8527 1.49512 12.3781 2.14321 12.3781H2.9623C3.09194 12.3781 3.19702 12.4832 3.19702 12.6128V15.1431C3.19702 15.3535 3.45249 15.4576 3.59956 15.3072L6.32412 12.5195C6.41245 12.4291 6.53345 12.3782 6.65981 12.3782H13.4289C14.0769 12.3782 14.6022 11.8528 14.6022 11.2048V5.63252" stroke="black" stroke-miterlimit="10" stroke-linecap="round" stroke-linejoin="round"/>
<path d="M14.4158 21.5745H12.7785C12.1304 21.5745 11.605 21.0491 11.605 20.401V12.3789" stroke="black" stroke-miterlimit="10" stroke-linecap="round" stroke-linejoin="round"/>
<path d="M14.6855 9.98047H24.064C24.7121 9.98047 25.2375 10.5059 25.2375 11.154V20.4C25.2375 21.048 24.7121 21.5734 24.064 21.5734H23.2449C23.1153 21.5734 23.0102 21.6785 23.0102 21.8082V24.3384C23.0102 24.5488 22.7547 24.6529 22.6077 24.5025L19.8831 21.7148C19.7948 21.6244 19.6738 21.5735 19.5474 21.5735H15.9934" stroke="black" stroke-miterlimit="10" stroke-linecap="round" stroke-linejoin="round"/>
<path d="M4.97602 17.475L3.97915 17.3717C3.72319 17.3452 3.46889 17.4355 3.28691 17.6175C3.10498 17.7994 3.01469 18.0537 3.04116 18.3097L3.41406 21.9116C3.46264 22.381 3.88256 22.7221 4.352 22.6735C4.82138 22.625 5.16254 22.205 5.11396 21.7356L4.98896 20.528L7.9708 23.5099C8.30449 23.8436 8.84555 23.8436 9.17924 23.5099C9.51293 23.1762 9.51293 22.6352 9.17924 22.3014L6.19741 19.3196L7.40498 19.4446C7.87441 19.4932 8.29433 19.1521 8.34292 18.6826C8.3705 18.4162 8.27255 18.1657 8.09682 17.99C7.96298 17.8562 7.78398 17.7657 7.58095 17.7446L6.57197 17.6402" stroke="black" stroke-miterlimit="10" stroke-linecap="round" stroke-linejoin="round"/>
<path d="M4.5127 5.15039H11.0382" stroke="black" stroke-miterlimit="10" stroke-linecap="round" stroke-linejoin="round"/>
<path d="M7.77539 3.53906V5.15127" stroke="black" stroke-miterlimit="10" stroke-linecap="round" stroke-linejoin="round"/>
<path d="M6.18701 5.15039C6.18701 5.15039 6.34531 8.66636 10.4383 9.62139" stroke="black" stroke-miterlimit="10" stroke-linecap="round" stroke-linejoin="round"/>
<path d="M9.36401 5.15039C9.36401 5.15039 9.20571 8.66636 5.11279 9.62139" stroke="black" stroke-miterlimit="10" stroke-linecap="round" stroke-linejoin="round"/>
</g>
<defs>
<clipPath id="clip0_6093_16131">
<rect width="25" height="25" fill="white" transform="translate(0.603516 0.179688)"/>
</clipPath>
</defs>
</svg>
