<svg width="26" height="26" viewBox="0 0 26 26" fill="none" xmlns="http://www.w3.org/2000/svg">
<path d="M8.41602 14.4199C9.04863 14.2247 9.70707 14.1259 10.3691 14.127H15.8379C17.5991 14.127 19.2882 14.8266 20.5335 16.072C21.7789 17.3173 22.4785 19.0064 22.4785 20.7676C22.4785 21.5964 22.1493 22.3912 21.5632 22.9773C20.9772 23.5633 20.1823 23.8926 19.3535 23.8926H6.85352C6.02471 23.8926 5.22986 23.5633 4.64381 22.9773C4.05776 22.3912 3.72852 21.5964 3.72852 20.7676C3.72852 19.0064 4.42815 17.3173 5.67351 16.072C6.91887 14.8266 8.60794 14.127 10.3691 14.127H15.8379C16.5 14.1259 17.1584 14.2247 17.791 14.4199" fill="#B5B5B5"/>
<path d="M13.1035 12.1738C15.6924 12.1738 17.791 10.0752 17.791 7.48633C17.791 4.89749 15.6924 2.79883 13.1035 2.79883C10.5147 2.79883 8.41602 4.89749 8.41602 7.48633C8.41602 10.0752 10.5147 12.1738 13.1035 12.1738Z" fill="#FFBC00"/>
<path d="M19.709 23.9277C21.8858 23.9277 23.6504 22.1631 23.6504 19.9863C23.6504 17.8095 21.8858 16.0449 19.709 16.0449C17.5322 16.0449 15.7676 17.8095 15.7676 19.9863C15.7676 22.1631 17.5322 23.9277 19.709 23.9277Z" fill="#FFBC00"/>
<path d="M13.1035 12.5645C12.0992 12.5645 11.1174 12.2666 10.2823 11.7086C9.44717 11.1506 8.79629 10.3576 8.41194 9.42964C8.02759 8.50174 7.92703 7.4807 8.12297 6.49564C8.31891 5.51058 8.80255 4.60574 9.51274 3.89555C10.2229 3.18537 11.1278 2.70172 12.1128 2.50578C13.0979 2.30984 14.1189 2.4104 15.0468 2.79475C15.9747 3.17911 16.7678 3.82998 17.3258 4.66508C17.8838 5.50017 18.1816 6.48197 18.1816 7.48633C18.1816 8.1532 18.0503 8.81354 17.7951 9.42964C17.5399 10.0458 17.1658 10.6056 16.6943 11.0771C16.2227 11.5487 15.6629 11.9227 15.0468 12.1779C14.4307 12.4331 13.7704 12.5645 13.1035 12.5645ZM13.1035 3.18946C12.2537 3.18946 11.4229 3.44146 10.7163 3.91361C10.0097 4.38576 9.45894 5.05684 9.13372 5.84199C8.8085 6.62714 8.72341 7.4911 8.88921 8.32461C9.055 9.15812 9.46424 9.92375 10.0652 10.5247C10.6661 11.1256 11.4317 11.5348 12.2652 11.7006C13.0988 11.8664 13.9627 11.7813 14.7479 11.4561C15.533 11.1309 16.2041 10.5802 16.6762 9.87355C17.1484 9.16693 17.4004 8.33617 17.4004 7.48633C17.4004 6.34673 16.9477 5.2538 16.1419 4.44798C15.336 3.64216 14.2431 3.18946 13.1035 3.18946Z" fill="black"/>
<path d="M15.4473 24.2832H6.85352C5.92111 24.2832 5.0269 23.9128 4.36759 23.2535C3.70829 22.5942 3.33789 21.7 3.33789 20.7676C3.33789 18.9028 4.07868 17.1143 5.3973 15.7957C6.71591 14.4771 8.50434 13.7363 10.3691 13.7363H15.8379C16.5382 13.7364 17.2346 13.8404 17.9043 14.0449C17.9562 14.0572 18.005 14.08 18.0478 14.1119C18.0906 14.1438 18.1264 14.1841 18.1529 14.2304C18.1795 14.2766 18.1964 14.3278 18.2024 14.3808C18.2084 14.4338 18.2036 14.4875 18.1881 14.5385C18.1726 14.5896 18.1468 14.6369 18.1123 14.6776C18.0778 14.7183 18.0353 14.7515 17.9875 14.7752C17.9397 14.7988 17.8875 14.8124 17.8343 14.8151C17.781 14.8179 17.7277 14.8097 17.6777 14.791C17.0812 14.6099 16.4613 14.5178 15.8379 14.5176H10.3691C8.71154 14.5176 7.12183 15.1761 5.94972 16.3482C4.77762 17.5203 4.11914 19.11 4.11914 20.7676C4.11914 21.4928 4.40723 22.1883 4.92002 22.7011C5.43282 23.2139 6.12831 23.502 6.85352 23.502H15.4473C15.5509 23.502 15.6502 23.5431 15.7235 23.6164C15.7967 23.6896 15.8379 23.789 15.8379 23.8926C15.8379 23.9962 15.7967 24.0955 15.7235 24.1688C15.6502 24.242 15.5509 24.2832 15.4473 24.2832Z" fill="black"/>
<path d="M19.709 24.3184C18.8522 24.3184 18.0146 24.0643 17.3022 23.5883C16.5898 23.1123 16.0346 22.4357 15.7067 21.6441C15.3788 20.8526 15.293 19.9815 15.4602 19.1412C15.6273 18.3009 16.0399 17.529 16.6458 16.9231C17.2516 16.3173 18.0235 15.9047 18.8638 15.7375C19.7042 15.5704 20.5752 15.6562 21.3668 15.9841C22.1584 16.3119 22.8349 16.8672 23.3109 17.5796C23.7869 18.292 24.041 19.1295 24.041 19.9863C24.04 21.1349 23.5832 22.2362 22.7711 23.0484C21.9589 23.8606 20.8576 24.3173 19.709 24.3184ZM19.709 16.4355C19.0067 16.4355 18.3202 16.6438 17.7363 17.034C17.1524 17.4241 16.6972 17.9787 16.4285 18.6275C16.1597 19.2763 16.0894 19.9903 16.2264 20.6791C16.3634 21.3678 16.7016 22.0005 17.1982 22.4971C17.6948 22.9937 18.3275 23.3319 19.0163 23.4689C19.705 23.6059 20.419 23.5356 21.0678 23.2668C21.7166 22.9981 22.2712 22.543 22.6614 21.959C23.0515 21.3751 23.2598 20.6886 23.2598 19.9863C23.2577 19.0452 22.8829 18.1433 22.2175 17.4778C21.552 16.8124 20.6501 16.4376 19.709 16.4355Z" fill="black"/>
<path d="M19.7441 22.3301C19.6405 22.3301 19.5412 22.2889 19.4679 22.2157C19.3947 22.1424 19.3535 22.0431 19.3535 21.9395V18.0332C19.3535 17.9296 19.3947 17.8302 19.4679 17.757C19.5412 17.6837 19.6405 17.6426 19.7441 17.6426C19.8477 17.6426 19.9471 17.6837 20.0204 17.757C20.0936 17.8302 20.1348 17.9296 20.1348 18.0332V21.9395C20.1348 22.0431 20.0936 22.1424 20.0204 22.2157C19.9471 22.2889 19.8477 22.3301 19.7441 22.3301Z" fill="black"/>
<path d="M21.6973 20.377H17.791C17.6874 20.377 17.5881 20.3358 17.5148 20.2625C17.4415 20.1893 17.4004 20.0899 17.4004 19.9863C17.4004 19.8827 17.4415 19.7834 17.5148 19.7101C17.5881 19.6369 17.6874 19.5957 17.791 19.5957H21.6973C21.8009 19.5957 21.9002 19.6369 21.9735 19.7101C22.0467 19.7834 22.0879 19.8827 22.0879 19.9863C22.0879 20.0899 22.0467 20.1893 21.9735 20.2625C21.9002 20.3358 21.8009 20.377 21.6973 20.377Z" fill="black"/>
</svg>
