<svg width="27" height="27" viewBox="0 0 27 27" fill="none" xmlns="http://www.w3.org/2000/svg">
<g clip-path="url(#clip0_6074_15906)">
<path d="M13.5844 6.91016C12.3411 6.91018 11.1248 7.27297 10.0847 7.95405C9.04458 8.63513 8.22578 9.60489 7.72868 10.7445C7.23159 11.884 7.0778 13.1439 7.28617 14.3696C7.49454 15.5953 8.05602 16.7335 8.90176 17.6448L8.24095 20.1101C8.20188 20.2557 8.20685 20.4095 8.25524 20.5522C8.30363 20.6949 8.39326 20.8201 8.51279 20.9118C8.63232 21.0036 8.77638 21.0579 8.92675 21.0677C9.07712 21.0776 9.22703 21.0426 9.35753 20.9673L11.9428 19.4743C12.8213 19.7078 13.7394 19.7512 14.636 19.6016C15.5326 19.452 16.3869 19.1128 17.1419 18.6067C17.8969 18.1006 18.5352 17.4392 19.0143 16.6667C19.4933 15.8943 19.802 15.0285 19.9198 14.1272C20.0375 13.2259 19.9616 12.3098 19.6971 11.4402C19.4326 10.5706 18.9856 9.76744 18.386 9.08435C17.7863 8.40126 17.0478 7.85397 16.2198 7.47904C15.3918 7.10411 14.4933 6.91016 13.5844 6.91016Z" fill="#2EC4B6"/>
<path d="M13.5845 6.91016V19.6872C15.2788 19.6872 16.9038 19.0141 18.1018 17.816C19.2999 16.6179 19.973 14.993 19.973 13.2987C19.973 11.6043 19.2999 9.97939 18.1018 8.78131C16.9038 7.58323 15.2788 6.91016 13.5845 6.91016Z" fill="#2AB5A4"/>
<path d="M26.168 13.8421C26.1763 13.5313 26.1849 13.2098 26.1707 12.8732C26.1285 11.9364 25.7254 11.0523 25.0459 10.4062C24.3665 9.75997 23.4633 9.40182 22.5256 9.40673C21.0195 5.96112 17.5789 3.54688 13.5844 3.54688C9.58997 3.54688 6.14939 5.96112 4.64342 9.40673C3.70548 9.40169 2.80202 9.75997 2.12246 10.4065C1.4429 11.0529 1.04002 11.9374 0.998286 12.8744C0.984118 13.2096 0.9927 13.5313 1.00098 13.8421C1.00976 14.1722 1.01885 14.5136 1.0026 14.8963C0.962813 15.8563 1.30512 16.7929 1.95454 17.5009C2.60397 18.209 3.50755 18.6308 4.46736 18.6739C4.52048 18.6762 4.57346 18.6773 4.6263 18.6774C5.08527 18.6776 5.54005 18.5902 5.96622 18.4198C6.07454 18.3861 6.17394 18.3285 6.25717 18.2514C6.34039 18.1743 6.40534 18.0795 6.44726 17.9741C6.48918 17.8686 6.50701 17.7552 6.49946 17.642C6.4919 17.5287 6.45915 17.4187 6.4036 17.3197C5.71599 16.0914 5.35506 14.7072 5.35532 13.2995C5.35532 8.76196 9.04712 5.07036 13.5844 5.07036C18.1217 5.07036 21.8135 8.76216 21.8135 13.2995C21.8192 15.2202 21.1506 17.0819 19.9242 18.5602C18.6978 20.0384 16.9915 21.0393 15.1028 21.3883C14.9039 20.938 14.5539 20.5713 14.1133 20.3516C13.6727 20.132 13.1693 20.0732 12.6899 20.1853C12.2106 20.2975 11.7855 20.5736 11.4881 20.966C11.1907 21.3583 11.0398 21.8422 11.0614 22.3341C11.0829 22.8259 11.2757 23.2947 11.6062 23.6595C11.9368 24.0243 12.3845 24.2622 12.8718 24.3319C13.3591 24.4017 13.8555 24.299 14.2752 24.0416C14.6948 23.7843 15.0114 23.3883 15.1701 22.9223C16.5117 22.7005 17.7923 22.2009 18.9297 21.4556C20.0671 20.7103 21.0364 19.7357 21.7754 18.5942C22.0275 18.6493 22.2847 18.6771 22.5427 18.6773C22.5957 18.6773 22.6488 18.6762 22.7021 18.6739C23.6617 18.6306 24.5651 18.2088 25.2144 17.5008C25.8636 16.7929 26.2059 15.8564 26.1662 14.8966C26.15 14.5138 26.1591 14.1723 26.168 13.8421Z" fill="#2EA8E6"/>
<path d="M26.1683 13.8405C26.1766 13.5297 26.1852 13.2082 26.171 12.8716C26.1279 11.9117 25.706 11.0082 24.9979 10.3588C24.2898 9.70951 23.3531 9.36739 22.3932 9.40746C22.2271 9.41501 22.0618 9.43367 21.8982 9.46332C21.7887 9.48279 21.6848 9.526 21.5938 9.58991C21.5028 9.65383 21.4269 9.7369 21.3714 9.83328C21.316 9.92966 21.2823 10.037 21.2727 10.1478C21.2632 10.2586 21.278 10.3702 21.3161 10.4746C21.7217 11.588 21.8824 12.7757 21.7873 13.9568C21.6922 15.1378 21.3436 16.2845 20.7652 17.3187C20.7098 17.4176 20.6771 17.5277 20.6696 17.6408C20.6621 17.754 20.68 17.8674 20.722 17.9728C20.7639 18.0781 20.8289 18.1728 20.9121 18.2499C20.9953 18.327 21.0946 18.3845 21.2029 18.4182C21.6291 18.5886 22.084 18.676 22.5431 18.6757C22.596 18.6757 22.6491 18.6746 22.7024 18.6723C23.662 18.629 24.5654 18.2072 25.2147 17.4992C25.864 16.7913 26.2062 15.8548 26.1665 14.895C26.1504 14.5121 26.1594 14.1707 26.1683 13.8405Z" fill="#176F93"/>
<path d="M21.3225 10.4985C21.32 10.4911 21.3184 10.4833 21.3157 10.476C21.2776 10.3716 21.2627 10.26 21.2723 10.1492C21.2818 10.0384 21.3155 9.93106 21.371 9.83468C21.4265 9.73829 21.5024 9.65523 21.5934 9.59131C21.6844 9.5274 21.7883 9.48419 21.8978 9.46472C22.0614 9.43507 22.2267 9.41641 22.3927 9.40886C22.4372 9.40693 22.4813 9.40683 22.5255 9.40652C21.0195 5.96112 17.579 3.54693 13.5845 3.54688V5.07031C17.1392 5.07036 20.1742 7.33582 21.3225 10.4985Z" fill="#1794C6"/>
<path d="M6.4036 17.3183C5.82532 16.2841 5.47681 15.1375 5.38183 13.9565C5.28684 12.7754 5.44761 11.5878 5.85318 10.4746C5.89134 10.3701 5.90616 10.2586 5.8966 10.1478C5.88705 10.037 5.85335 9.92962 5.79787 9.83323C5.74239 9.73685 5.66648 9.65378 5.57547 9.58987C5.48446 9.52596 5.38056 9.48275 5.27107 9.46327C5.10698 9.43356 4.94108 9.4149 4.77448 9.40741C3.81453 9.36762 2.87796 9.71008 2.1701 10.3597C1.46224 11.0093 1.04084 11.9131 0.998286 12.873C0.984118 13.2081 0.9927 13.5298 1.00098 13.8407C1.00976 14.1707 1.01885 14.5122 1.0026 14.8949C0.962813 15.8548 1.30512 16.7914 1.95454 17.4995C2.60397 18.2075 3.50755 18.6293 4.46736 18.6724C4.52047 18.6747 4.57346 18.6759 4.6263 18.6759C5.08526 18.6762 5.54005 18.5888 5.96622 18.4184C6.07454 18.3846 6.17394 18.327 6.25717 18.2499C6.34039 18.1728 6.40534 18.0781 6.44725 17.9726C6.48917 17.8672 6.50701 17.7537 6.49945 17.6405C6.4919 17.5273 6.45915 17.4172 6.4036 17.3183Z" fill="#176F93"/>
<path d="M5.35509 13.298C5.35398 12.335 5.52244 11.3792 5.85275 10.4746C5.8909 10.3701 5.90573 10.2586 5.89617 10.1478C5.88662 10.037 5.85292 9.92962 5.79744 9.83324C5.74196 9.73685 5.66605 9.65379 5.57504 9.58987C5.48403 9.52596 5.38013 9.48275 5.27064 9.46328C5.10655 9.43356 4.94064 9.4149 4.77405 9.40742C4.56767 9.39886 4.36094 9.40791 4.15609 9.43448C3.63468 10.2212 3.34277 11.1376 3.31312 12.0809C3.29733 12.5118 3.30688 12.9246 3.31612 13.3239C3.32592 13.748 3.33608 14.1865 3.31795 14.678C3.25798 16.3013 3.93123 17.7692 4.99861 18.6561C5.33051 18.6219 5.65607 18.5419 5.96599 18.4183C6.07431 18.3845 6.17371 18.327 6.25694 18.2498C6.34016 18.1727 6.40511 18.078 6.44703 17.9725C6.48895 17.8671 6.50678 17.7536 6.49923 17.6404C6.49167 17.5272 6.45892 17.4171 6.40337 17.3182C5.71579 16.0899 5.35486 14.7057 5.35509 13.298Z" fill="#0D647F"/>
<path d="M21.8134 13.298C21.8145 12.335 21.646 11.3792 21.3157 10.4746C21.2776 10.3701 21.2628 10.2586 21.2723 10.1478C21.2819 10.037 21.3156 9.92962 21.371 9.83324C21.4265 9.73685 21.5024 9.65379 21.5934 9.58987C21.6844 9.52596 21.7883 9.48275 21.8978 9.46328C22.0619 9.43357 22.2279 9.4149 22.3945 9.40742C22.6008 9.39886 22.8076 9.40791 23.0124 9.43448C23.5338 10.2212 23.8257 11.1376 23.8554 12.0809C23.8711 12.5118 23.8616 12.9246 23.8524 13.3239C23.8426 13.748 23.8325 14.1865 23.8505 14.678C23.9109 16.3011 23.2377 17.769 22.1703 18.6561C21.8384 18.6219 21.5128 18.5419 21.2029 18.4182C21.0946 18.3845 20.9952 18.3269 20.9119 18.2498C20.8287 18.1727 20.7638 18.0779 20.7219 17.9725C20.6799 17.8671 20.6621 17.7536 20.6697 17.6404C20.6772 17.5272 20.71 17.4171 20.7655 17.3181C21.4529 16.0898 21.8137 14.7056 21.8134 13.298Z" fill="#0D647F"/>
<path d="M11.0466 14.0605C10.8446 14.0607 10.6508 13.9807 10.5078 13.838C10.3648 13.6953 10.2844 13.5016 10.2842 13.2996C10.284 13.0975 10.364 12.9037 10.5068 12.7607C10.6495 12.6177 10.8431 12.5373 11.0452 12.5371H11.0466C11.2487 12.5371 11.4424 12.6174 11.5853 12.7602C11.7281 12.9031 11.8084 13.0968 11.8084 13.2988C11.8084 13.5008 11.7281 13.6946 11.5853 13.8374C11.4424 13.9803 11.2487 14.0605 11.0466 14.0605Z" fill="#E6E9F2"/>
<path d="M13.5845 14.0602C13.5594 14.0603 13.5343 14.0591 13.5093 14.0566C13.4846 14.0542 13.46 14.0505 13.4357 14.0455C13.4113 14.0404 13.3869 14.0343 13.3631 14.0272C13.3393 14.02 13.3159 14.0115 13.293 14.0018C13.2699 13.9926 13.2474 13.9821 13.2255 13.9704C13.2036 13.9587 13.1823 13.9455 13.1615 13.9317C13.1408 13.918 13.1208 13.9033 13.1015 13.8876C13.0823 13.8718 13.0635 13.8545 13.0457 13.8373C13.0279 13.8201 13.0112 13.8007 12.9954 13.7815C12.9797 13.7622 12.9649 13.7422 12.9512 13.7215C12.9375 13.7007 12.9243 13.6794 12.9126 13.6575C12.901 13.6357 12.8908 13.6129 12.8812 13.59C12.8715 13.5671 12.863 13.5437 12.8558 13.5199C12.8487 13.496 12.8426 13.4716 12.8375 13.4473C12.8324 13.4229 12.8289 13.3981 12.8263 13.3737C12.8239 13.3487 12.8227 13.3236 12.8228 13.2985C12.8227 13.2736 12.8239 13.2487 12.8263 13.2239C12.8289 13.199 12.8329 13.1741 12.8375 13.1497C12.8421 13.1254 12.8487 13.101 12.8558 13.0776C12.8629 13.0536 12.8714 13.0301 12.8812 13.007C12.8908 12.9842 12.9015 12.9618 12.9126 12.94C12.9244 12.9179 12.9373 12.8964 12.9512 12.8755C12.9649 12.8552 12.9797 12.8349 12.9954 12.8156C13.0112 12.7963 13.0284 12.7775 13.0457 12.7597C13.063 12.742 13.0823 12.7257 13.1015 12.7095C13.1208 12.6943 13.1406 12.679 13.1615 12.6653C13.1823 12.6516 13.2036 12.6389 13.2255 12.6272C13.2473 12.6156 13.2701 12.6049 13.293 12.5953C13.3159 12.5858 13.3393 12.5774 13.3631 12.5703C13.4108 12.5559 13.4597 12.546 13.5093 12.5409C13.5591 12.5358 13.6093 12.5358 13.6591 12.5409C13.684 12.5431 13.7088 12.5468 13.7333 12.5521C13.7577 12.5566 13.7818 12.5627 13.8054 12.5703C13.8293 12.5774 13.8529 12.5858 13.876 12.5953C13.8988 12.6049 13.9212 12.6156 13.943 12.6272C13.965 12.6388 13.9863 12.6516 14.007 12.6653C14.0278 12.679 14.0481 12.6943 14.0674 12.7095C14.0867 12.7257 14.1055 12.7425 14.1228 12.7597C14.14 12.7769 14.1573 12.7963 14.1735 12.8156C14.1888 12.8349 14.204 12.8552 14.2177 12.8755C14.2315 12.8964 14.2442 12.9179 14.2558 12.94C14.2675 12.9618 14.2781 12.9842 14.2878 13.007C14.2974 13.0299 14.3056 13.0537 14.3132 13.0776C14.3208 13.1015 14.3264 13.1254 14.3315 13.1497C14.3365 13.1741 14.3401 13.199 14.3426 13.2239C14.3452 13.2488 14.3462 13.2736 14.3462 13.2985C14.3462 13.3234 14.3447 13.3488 14.3426 13.3737C14.3406 13.3986 14.336 13.4229 14.3315 13.4473C14.3269 13.4716 14.3203 13.496 14.3132 13.5199C14.3061 13.5438 14.2974 13.5672 14.2878 13.59C14.2781 13.6129 14.2675 13.6357 14.2558 13.6575C14.2441 13.6794 14.2314 13.7007 14.2177 13.7215C14.204 13.7424 14.1888 13.7622 14.1735 13.7815C14.1573 13.8007 14.1405 13.8195 14.1228 13.8373C14.105 13.8551 14.0867 13.8718 14.0674 13.8876C14.048 13.9033 14.0278 13.918 14.007 13.9317C13.9863 13.9457 13.965 13.9586 13.943 13.9704C13.9212 13.9821 13.8989 13.9926 13.876 14.0018C13.8529 14.0115 13.8293 14.02 13.8054 14.0272C13.782 14.0343 13.7576 14.0404 13.7333 14.0455C13.7088 14.0505 13.684 14.0542 13.6591 14.0566C13.6343 14.0591 13.6094 14.0603 13.5845 14.0602Z" fill="#E6E9F2"/>
<path d="M14.3315 13.1497C14.3264 13.1254 14.3203 13.101 14.3132 13.0776C14.3061 13.0543 14.2975 13.0299 14.2878 13.007C14.2782 12.9842 14.2675 12.9618 14.2559 12.94C14.2443 12.9179 14.2315 12.8964 14.2178 12.8755C14.2041 12.8552 14.1888 12.8349 14.1736 12.8156C14.1573 12.7963 14.1406 12.7775 14.1228 12.7597C14.105 12.742 14.0867 12.7258 14.0675 12.7095C14.0482 12.6943 14.0278 12.679 14.007 12.6653C13.9864 12.6516 13.965 12.6388 13.943 12.6272C13.9212 12.6156 13.8989 12.6049 13.876 12.5953C13.8529 12.5858 13.8294 12.5774 13.8054 12.5703C13.7818 12.5627 13.7577 12.5566 13.7333 12.5521C13.7089 12.5468 13.6841 12.5431 13.6592 12.5409C13.6344 12.5384 13.6094 12.5371 13.5845 12.5371V14.0603C13.6094 14.0604 13.6343 14.0592 13.6591 14.0567C13.684 14.0543 13.7088 14.0506 13.7333 14.0456C13.7576 14.0405 13.782 14.0344 13.8054 14.0273C13.8293 14.02 13.8529 14.0116 13.876 14.0019C13.8989 13.9926 13.9212 13.9821 13.943 13.9704C13.965 13.9586 13.9863 13.9458 14.007 13.9318C14.0278 13.9181 14.0481 13.9033 14.0674 13.8876C14.0867 13.8719 14.1055 13.8546 14.1228 13.8374C14.14 13.8201 14.1573 13.8008 14.1735 13.7815C14.1888 13.7622 14.204 13.7424 14.2177 13.7216C14.2314 13.7008 14.2441 13.6794 14.2558 13.6576C14.2675 13.6358 14.2781 13.6129 14.2878 13.5901C14.2974 13.5672 14.3056 13.5433 14.3132 13.52C14.3208 13.4966 14.3264 13.4717 14.3315 13.4473C14.3365 13.4229 14.3401 13.3981 14.3426 13.3737C14.3452 13.3494 14.3462 13.3235 14.3462 13.2986C14.3462 13.2737 14.3447 13.2488 14.3426 13.2239C14.3406 13.199 14.336 13.1741 14.3315 13.1497Z" fill="#CFD7E6"/>
<path d="M16.1238 14.0605C15.9217 14.0607 15.7279 13.9807 15.5849 13.8379C15.442 13.6952 15.3615 13.5016 15.3613 13.2995C15.3611 13.0975 15.4412 12.9037 15.5839 12.7607C15.7266 12.6177 15.9203 12.5373 16.1223 12.5371H16.1238C16.3258 12.5371 16.5195 12.6174 16.6624 12.7602C16.8052 12.9031 16.8855 13.0968 16.8855 13.2988C16.8855 13.5008 16.8052 13.6946 16.6624 13.8374C16.5195 13.9803 16.3258 14.0605 16.1238 14.0605Z" fill="#CFD7E6"/>
<path d="M13.6592 24.2861C14.794 24.0179 15.4966 22.8804 15.2283 21.7455C14.96 20.6106 13.8226 19.9081 12.6877 20.1764C11.5528 20.4446 10.8503 21.5821 11.1185 22.717C11.3868 23.8519 12.5243 24.5544 13.6592 24.2861Z" fill="#176F93"/>
<path d="M13.1714 20.1289V24.3528C13.7315 24.3528 14.2687 24.1303 14.6648 23.7342C15.0608 23.3381 15.2833 22.801 15.2833 22.2408C15.2833 21.6807 15.0608 21.1435 14.6648 20.7475C14.2687 20.3514 13.7315 20.1289 13.1714 20.1289Z" fill="#0D647F"/>
<path d="M21.2029 18.4188C21.1027 18.3876 21.0101 18.336 20.9308 18.2673C20.8515 18.1986 20.7873 18.1142 20.7421 18.0195C20.697 17.9248 20.6719 17.8218 20.6684 17.717C20.6649 17.6121 20.6831 17.5076 20.7219 17.4102C20.1301 18.4412 19.321 19.331 18.3507 20.0178C17.3804 20.7046 16.2721 21.172 15.103 21.3873C15.3179 21.8719 15.3419 22.4198 15.1703 22.9214C16.5119 22.6996 17.7925 22.2 18.9299 21.4547C20.0674 20.7094 21.0367 19.7347 21.7757 18.5932C21.5803 18.5508 21.3887 18.4925 21.2029 18.4188Z" fill="#1794C6"/>
</g>
<defs>
<clipPath id="clip0_6074_15906">
<rect width="26" height="26" fill="white" transform="translate(0.584473 0.949219)"/>
</clipPath>
</defs>
</svg>
