<svg width="26" height="26" viewBox="0 0 26 26" fill="none" xmlns="http://www.w3.org/2000/svg">
<g clip-path="url(#clip0_6084_15887)">
<path fill-rule="evenodd" clip-rule="evenodd" d="M1.96812 2.26758H15.8383C15.9629 2.26758 16.0701 2.31201 16.1582 2.4001L18.6986 4.94048C18.7867 5.02856 18.8312 5.13579 18.8312 5.2604V24.2575C18.8312 24.5067 18.6279 24.71 18.3787 24.71H1.96812C1.7189 24.71 1.51562 24.5067 1.51562 24.2575V2.72002C1.51567 2.47085 1.7189 2.26758 1.96812 2.26758Z" fill="#ECEFF1"/>
<path fill-rule="evenodd" clip-rule="evenodd" d="M1.96812 2.26758H2.79585V24.71H1.96812C1.7189 24.71 1.51562 24.5067 1.51562 24.2575V2.72002C1.51567 2.47085 1.7189 2.26758 1.96812 2.26758Z" fill="#D1D1D6"/>
<path fill-rule="evenodd" clip-rule="evenodd" d="M16.0259 2.30664C16.0739 2.32861 16.1182 2.35972 16.1584 2.39995L18.6988 4.94033C18.739 4.98057 18.7701 5.0248 18.7921 5.07285H16.2521C16.1275 5.07285 16.0259 4.97124 16.0259 4.84663V2.30664Z" fill="#A79BA7"/>
<path d="M11.9048 10.9684C13.9227 10.013 14.7841 7.60261 13.8287 5.58464C12.8733 3.56666 10.4629 2.70528 8.44489 3.66069C6.42691 4.61611 5.56553 7.02652 6.52095 9.0445C7.47636 11.0625 9.88677 11.9239 11.9048 10.9684Z" fill="#FFE177"/>
<path fill-rule="evenodd" clip-rule="evenodd" d="M10.1733 3.26758C10.0913 3.26758 10.01 3.27031 9.9292 3.2751C12.0479 3.40132 13.727 5.15898 13.727 7.30947C13.727 9.45991 12.0479 11.2176 9.9292 11.3438C10.01 11.3487 10.0914 11.3514 10.1733 11.3514C12.4058 11.3514 14.2153 9.54194 14.2153 7.30947C14.2153 5.07705 12.4059 3.26758 10.1733 3.26758Z" fill="#FFD064"/>
<path fill-rule="evenodd" clip-rule="evenodd" d="M10.1732 9.09556C10.4851 9.09556 10.738 9.34844 10.738 9.66035C10.738 9.97227 10.4851 10.2251 10.1732 10.2251C9.86128 10.2251 9.6084 9.97227 9.6084 9.66035C9.6084 9.34844 9.86128 9.09556 10.1732 9.09556ZM10.1732 8.36436C9.93599 8.36436 9.74116 8.17647 9.73267 7.9394L9.62119 4.85327C9.6167 4.72915 9.65825 4.6207 9.74448 4.5313C9.83071 4.44189 9.9376 4.39648 10.0618 4.39648H10.2847C10.4089 4.39648 10.5158 4.44189 10.6021 4.5313C10.6883 4.6207 10.7298 4.72915 10.7253 4.85327L10.6139 7.9394C10.6053 8.17647 10.4104 8.36436 10.1732 8.36436Z" fill="#FE646F"/>
<path fill-rule="evenodd" clip-rule="evenodd" d="M10.1732 9.09556C10.2241 9.09556 10.2734 9.10234 10.3203 9.11499C10.0797 9.17974 9.90264 9.39937 9.90264 9.6604C9.90264 9.92144 10.0797 10.1411 10.3203 10.2058C10.2734 10.2185 10.2241 10.2252 10.1732 10.2252C9.86128 10.2252 9.6084 9.97236 9.6084 9.66045C9.6084 9.34844 9.86128 9.09556 10.1732 9.09556ZM10.1732 8.36436C9.93599 8.36436 9.74116 8.17647 9.73267 7.9394L9.62119 4.85327C9.6167 4.72915 9.65825 4.6207 9.74448 4.5313C9.83071 4.44189 9.9376 4.39648 10.0618 4.39648H10.2847C10.2968 4.39648 10.3087 4.39692 10.3204 4.39775C10.2113 4.40571 10.1166 4.45054 10.0388 4.53125C9.95254 4.62065 9.91104 4.7291 9.91548 4.85322L10.027 7.93936C10.0336 8.12495 10.1544 8.28037 10.3204 8.33911C10.2743 8.35547 10.2248 8.36436 10.1732 8.36436Z" fill="#FD4755"/>
<path fill-rule="evenodd" clip-rule="evenodd" d="M4.10303 20.3691H5.78154C5.99644 20.3691 6.17217 20.5449 6.17217 20.7598V22.4383C6.17217 22.6532 5.99644 22.829 5.78154 22.829H4.10303C3.88813 22.829 3.7124 22.6532 3.7124 22.4383V20.7598C3.71235 20.5449 3.88813 20.3691 4.10303 20.3691Z" fill="#6CF5C2"/>
<path fill-rule="evenodd" clip-rule="evenodd" d="M5.33154 20.3691H5.78154C5.99639 20.3691 6.17217 20.5449 6.17217 20.7598V22.4382C6.17217 22.6531 5.99639 22.8289 5.78154 22.8289H5.33154C5.54639 22.8289 5.72217 22.6531 5.72217 22.4382V20.7598C5.72217 20.5449 5.54639 20.3691 5.33154 20.3691Z" fill="#00E499"/>
<path fill-rule="evenodd" clip-rule="evenodd" d="M4.10303 16.2285H5.78149C5.99634 16.2285 6.17212 16.4043 6.17212 16.6191V18.2976C6.17212 18.5125 5.99634 18.6882 5.78149 18.6882H4.10303C3.88818 18.6882 3.7124 18.5125 3.7124 18.2976V16.6191C3.7124 16.4043 3.88818 16.2285 4.10303 16.2285Z" fill="#FFE177"/>
<path fill-rule="evenodd" clip-rule="evenodd" d="M5.33154 16.2285H5.78154C5.99639 16.2285 6.17217 16.4043 6.17217 16.6191V18.2976C6.17217 18.5125 5.99639 18.6882 5.78154 18.6882H5.33154C5.54639 18.6882 5.72217 18.5125 5.72217 18.2976V16.6191C5.72217 16.4043 5.54639 16.2285 5.33154 16.2285Z" fill="#FFD064"/>
<path fill-rule="evenodd" clip-rule="evenodd" d="M4.10303 12.0879H5.78149C5.99634 12.0879 6.17212 12.2637 6.17212 12.4785V14.157C6.17212 14.3719 5.99634 14.5477 5.78149 14.5477H4.10303C3.88818 14.5477 3.7124 14.3719 3.7124 14.157V12.4785C3.7124 12.2637 3.88818 12.0879 4.10303 12.0879Z" fill="#FE646F"/>
<path fill-rule="evenodd" clip-rule="evenodd" d="M5.33154 12.0879H5.78154C5.99639 12.0879 6.17217 12.2637 6.17217 12.4785V14.157C6.17217 14.3719 5.99639 14.5477 5.78154 14.5477H5.33154C5.54639 14.5477 5.72217 14.3719 5.72217 14.157V12.4785C5.72217 12.2637 5.54639 12.0879 5.33154 12.0879Z" fill="#FD4755"/>
<path fill-rule="evenodd" clip-rule="evenodd" d="M19.8127 18.8496C19.5859 19.1731 19.3191 19.4666 19.0195 19.7228L21.1762 21.8369L21.9973 20.9907L19.8127 18.8496Z" fill="#A79BA7"/>
<path fill-rule="evenodd" clip-rule="evenodd" d="M19.8271 18.8359C19.7847 18.975 19.7056 19.0808 19.5923 19.1507L21.7347 21.2791L21.9971 20.9916L19.8271 18.8359Z" fill="#837683"/>
<path fill-rule="evenodd" clip-rule="evenodd" d="M23.9071 24.5816L24.8337 23.6267C24.9964 23.4589 24.9923 23.1887 24.8246 23.0259L22.2581 20.5355C22.0905 20.3727 21.8201 20.3768 21.6574 20.5445L20.7307 21.4994C20.5681 21.6671 20.5721 21.9375 20.7398 22.1003L23.3063 24.5907C23.474 24.7533 23.7443 24.7493 23.9071 24.5816Z" fill="#F1BA84"/>
<path fill-rule="evenodd" clip-rule="evenodd" d="M21.8785 20.5354L24.445 23.0259C24.6126 23.1886 24.6167 23.459 24.454 23.6266L23.5274 24.5816C23.4931 24.6169 23.4541 24.6449 23.4123 24.6657C23.5734 24.7459 23.7755 24.7173 23.9071 24.5817L24.8337 23.6267C24.9964 23.459 24.9923 23.1887 24.8247 23.0259L22.2582 20.5355C22.1258 20.407 21.9293 20.3825 21.7725 20.4604C21.8105 20.4793 21.8464 20.5043 21.8785 20.5354Z" fill="#E3A76F"/>
<path d="M19.6113 19.8022C21.4362 17.9774 21.4362 15.0187 19.6113 13.1939C17.7864 11.369 14.8278 11.369 13.0029 13.1939C11.1781 15.0187 11.1781 17.9774 13.0029 19.8022C14.8278 21.6271 17.7864 21.6271 19.6113 19.8022Z" fill="#8AC9FE"/>
<path fill-rule="evenodd" clip-rule="evenodd" d="M16.3104 11.8242C18.8915 11.8242 20.9839 13.9167 20.9839 16.4978C20.9839 19.0789 18.8915 21.1713 16.3104 21.1713C16.2343 21.1713 16.1587 21.1694 16.0835 21.1658C18.5592 21.0474 20.5302 19.0028 20.5302 16.4978C20.5302 13.9927 18.5592 11.9482 16.0835 11.8298C16.1587 11.8262 16.2343 11.8242 16.3104 11.8242Z" fill="#60B7FF"/>
<path d="M18.6799 18.8707C19.9903 17.5603 19.9903 15.4358 18.6799 14.1254C17.3695 12.8151 15.245 12.8151 13.9346 14.1254C12.6243 15.4358 12.6243 17.5603 13.9346 18.8707C15.245 20.181 17.3695 20.181 18.6799 18.8707Z" fill="#ECEFF1"/>
<path fill-rule="evenodd" clip-rule="evenodd" d="M16.3105 13.1406C16.3868 13.1406 16.4624 13.1435 16.5374 13.1484C14.7898 13.2651 13.4084 14.7194 13.4084 16.4965C13.4084 18.2737 14.7898 19.7279 16.5374 19.8446C16.4624 19.8497 16.3868 19.8524 16.3105 19.8524C14.4571 19.8524 12.9546 18.35 12.9546 16.4965C12.9546 14.6431 14.4571 13.1406 16.3105 13.1406Z" fill="#D1D1D6"/>
<path fill-rule="evenodd" clip-rule="evenodd" d="M9.99912 9.65874C9.99912 9.5626 10.0772 9.48447 10.1733 9.48447C10.2692 9.48447 10.3473 9.5626 10.3473 9.65874C10.3473 9.75444 10.2692 9.83262 10.1733 9.83262C10.0772 9.83262 9.99912 9.75444 9.99912 9.65874ZM10.0255 4.80083C10.0382 4.78774 10.0435 4.78521 10.0616 4.78521H10.2848C10.303 4.78521 10.3083 4.78774 10.3209 4.80083C10.3335 4.81357 10.3356 4.81939 10.3352 4.83745L10.2232 7.92344C10.2223 7.95073 10.2002 7.97173 10.1733 7.97173C10.1462 7.97173 10.1242 7.95073 10.1232 7.92344L10.0118 4.83745C10.0108 4.81939 10.0129 4.81357 10.0255 4.80083ZM11.1285 9.65874C11.1285 9.2042 10.8097 8.82285 10.3838 8.72666C10.732 8.63682 10.9908 8.32822 11.0039 7.95171L11.1158 4.86582C11.1241 4.63481 11.0434 4.42485 10.8833 4.2584C10.7229 4.09189 10.5158 4.004 10.2848 4.004H10.0616C9.83062 4.004 9.62354 4.09189 9.46333 4.2584C9.30293 4.42485 9.22227 4.63481 9.23096 4.86582L9.34219 7.95171C9.35601 8.32822 9.61431 8.63682 9.9625 8.72666C9.53662 8.8228 9.21787 9.2042 9.21787 9.65874C9.21787 10.1856 9.64648 10.6139 10.1732 10.6139C10.7003 10.6139 11.1285 10.1856 11.1285 9.65874ZM6.52207 7.30918C6.52207 9.32236 8.15981 10.9605 10.1733 10.9605C12.1866 10.9605 13.8244 9.32236 13.8244 7.30918C13.8244 5.29595 12.1867 3.65776 10.1733 3.65776C8.15981 3.65776 6.52207 5.29595 6.52207 7.30918ZM14.6056 7.30918C14.6056 4.86484 12.6173 2.87656 10.1733 2.87656C7.7291 2.87656 5.74087 4.86484 5.74087 7.30918C5.74087 9.75298 7.7291 11.7418 10.1733 11.7418C12.6173 11.7418 14.6056 9.75298 14.6056 7.30918ZM5.65283 14.0289H4.2311V12.6065H5.65283V14.0289ZM6.04355 11.8253H3.84043C3.62461 11.8253 3.44971 12.0005 3.44971 12.2159V14.4195C3.44971 14.6349 3.62461 14.8101 3.84043 14.8101H6.04355C6.25938 14.8101 6.43428 14.6349 6.43428 14.4195V12.2159C6.43423 12.0005 6.25933 11.8253 6.04355 11.8253ZM5.65283 18.1695H4.2311V16.7471H5.65283V18.1695ZM6.04355 15.9659H3.84043C3.62461 15.9659 3.44971 16.1413 3.44971 16.3565V18.5602C3.44971 18.7755 3.62461 18.9508 3.84043 18.9508H6.04355C6.25938 18.9508 6.43428 18.7755 6.43428 18.5602V16.3565C6.43423 16.1413 6.25933 15.9659 6.04355 15.9659ZM19.2754 16.4971C19.2754 18.1324 17.9454 19.4625 16.3102 19.4625C14.675 19.4625 13.345 18.1324 13.345 16.4971C13.345 14.8624 14.675 13.5323 16.3102 13.5323C17.9454 13.5323 19.2754 14.8624 19.2754 16.4971ZM12.5635 16.4971C12.5635 18.563 14.2442 20.2438 16.3102 20.2438C18.3761 20.2438 20.0568 18.563 20.0568 16.4971C20.0568 14.4317 18.3761 12.7511 16.3102 12.7511C14.2443 12.7511 12.5635 14.4317 12.5635 16.4971ZM24.5532 23.3546L23.6266 24.3096C23.6144 24.3223 23.5909 24.3228 23.5783 24.3101L21.0118 21.8198C21.0054 21.8135 21.002 21.8052 21.0015 21.7954C21.0015 21.7856 21.0044 21.7779 21.0109 21.771L21.9375 20.8164C21.944 20.8101 21.9518 20.8067 21.9615 20.8067H21.9619C21.9718 20.8067 21.9796 20.8096 21.986 20.8155L24.5523 23.3062C24.5587 23.312 24.5622 23.3203 24.5626 23.3301C24.5626 23.3399 24.5597 23.3482 24.5532 23.3546ZM18.4405 24.2574V21.0909C17.7926 21.3926 17.0705 21.5615 16.3102 21.5615C15.6007 21.5615 14.9255 21.4146 14.3116 21.1504H7.83506C7.61924 21.1504 7.44458 20.9751 7.44458 20.7597C7.44458 20.544 7.61924 20.3691 7.83506 20.3691H13.0494C12.5045 19.9092 12.0572 19.3369 11.7447 18.688H7.83506C7.61924 18.688 7.44458 18.5132 7.44458 18.2973C7.44458 18.0816 7.61924 17.9067 7.83506 17.9067H11.4459C11.3618 17.6177 11.3027 17.3179 11.2717 17.0097H7.83506C7.61924 17.0097 7.44458 16.8345 7.44458 16.6191C7.44458 16.4033 7.61924 16.2285 7.83506 16.2285H11.2531C11.2843 15.6356 11.4181 15.0693 11.6364 14.5473H7.83506C7.61924 14.5473 7.44458 14.3725 7.44458 14.1567C7.44458 13.9414 7.61924 13.7661 7.83506 13.7661H12.0469C12.2569 13.4394 12.504 13.1386 12.781 12.8691H7.83506C7.61924 12.8691 7.44458 12.6943 7.44458 12.4785C7.44458 12.2626 7.61924 12.0878 7.83506 12.0878H13.8223C14.5573 11.6713 15.4063 11.433 16.3102 11.433C17.0705 11.433 17.7926 11.602 18.4405 11.9037V5.46348H16.2516C15.9117 5.46348 15.635 5.18716 15.635 4.84683V2.65835H1.96802C1.93467 2.65835 1.90645 2.68662 1.90645 2.72026V24.2574C1.90645 24.2911 1.93472 24.3194 1.96802 24.3194H18.3787C18.4122 24.3194 18.4405 24.2911 18.4405 24.2574ZM17.8877 4.68223H16.4162V3.21055L17.8877 4.68223ZM20.5928 16.4971C20.5928 14.1358 18.6719 12.2144 16.3102 12.2144C13.9483 12.2144 12.0269 14.1358 12.0269 16.4971C12.0269 18.859 13.9483 20.7804 16.3102 20.7804C18.6719 20.7803 20.5928 18.8589 20.5928 16.4971ZM21.0518 20.607L20.7751 20.8927L19.9112 20.0542C20.0045 19.9601 20.0939 19.8619 20.1798 19.7603L21.0518 20.607ZM25.0968 22.7457L22.5298 20.255C22.377 20.1065 22.1759 20.0254 21.9626 20.0254C21.9583 20.0254 21.9542 20.0254 21.9498 20.0254C21.8419 20.027 21.7378 20.0494 21.6418 20.0904L20.6411 19.1197C21.1061 18.3541 21.3743 17.4566 21.3743 16.4971C21.3743 14.7877 20.5225 13.2735 19.2217 12.3561V5.2603C19.2217 5.03184 19.1364 4.82578 18.9746 4.66421L16.4341 2.12402C16.2725 1.96245 16.0666 1.87695 15.8379 1.87695H1.96802C1.50308 1.87695 1.125 2.25547 1.125 2.72021V24.2574C1.125 24.7223 1.50308 25.1006 1.96802 25.1006H18.3787C18.8434 25.1006 19.2217 24.7222 19.2217 24.2574V20.6388C19.2545 20.6153 19.2867 20.5919 19.3189 20.5679L20.2764 21.4971C20.2384 21.5948 20.2189 21.6993 20.2208 21.8072C20.2237 22.0254 20.3118 22.2291 20.4673 22.3804L23.0343 24.8707C23.1924 25.0245 23.3972 25.1007 23.6021 25.1007C23.815 25.1007 24.0273 25.0182 24.1871 24.8536L25.1137 23.8985C25.2652 23.7427 25.3468 23.5367 25.3433 23.3185C25.3404 23.1002 25.2526 22.897 25.0968 22.7457ZM7.83506 22.0475H16.506C16.7218 22.0475 16.8967 22.2223 16.8967 22.4381C16.8967 22.6539 16.7218 22.8287 16.506 22.8287H7.83506C7.61924 22.8287 7.44458 22.6539 7.44458 22.4381C7.44458 22.2223 7.61924 22.0475 7.83506 22.0475ZM5.65283 22.3096H4.2311V20.8878H5.65283V22.3096ZM6.04355 20.1065C6.25938 20.1065 6.43428 20.2813 6.43428 20.4971V22.7002C6.43428 22.9161 6.25938 23.0909 6.04355 23.0909H3.84043C3.62461 23.0909 3.44971 22.9161 3.44971 22.7002V20.4971C3.44971 20.2814 3.62461 20.1065 3.84043 20.1065H6.04355Z" fill="black"/>
</g>
<defs>
<clipPath id="clip0_6084_15887">
<rect width="25" height="25" fill="white" transform="translate(0.734375 0.988281)"/>
</clipPath>
</defs>
</svg>
