<svg width="27" height="27" viewBox="0 0 27 27" fill="none" xmlns="http://www.w3.org/2000/svg">
<path d="M20.691 2.29102H5.52429C5.02166 2.29159 4.53978 2.49151 4.18437 2.84693C3.82896 3.20234 3.62903 3.68422 3.62846 4.18685V23.0997C3.62607 23.4552 3.72508 23.804 3.91388 24.1053C4.10269 24.4065 4.37346 24.6477 4.69446 24.8005C5.0212 24.9576 5.38588 25.0185 5.74594 24.9761C6.10599 24.9337 6.44656 24.7898 6.72788 24.5611C6.89475 24.4136 7.11199 24.336 7.33454 24.3444C7.71588 24.3444 7.87621 24.4788 8.21854 24.8113C8.4674 25.0999 8.77554 25.3314 9.12195 25.4901C9.46837 25.6487 9.84493 25.7309 10.226 25.7309C10.607 25.7309 10.9835 25.6487 11.33 25.4901C11.6764 25.3314 11.9845 25.0999 12.2334 24.8113C12.58 24.4788 12.735 24.3444 13.1152 24.3444C13.4955 24.3444 13.6504 24.4788 13.996 24.8113C14.2445 25.0993 14.5522 25.3302 14.898 25.4886C15.2439 25.6469 15.6198 25.7288 16.0001 25.7288C16.3805 25.7288 16.7564 25.6469 17.1022 25.4886C17.4481 25.3302 17.7557 25.0993 18.0043 24.8113C18.351 24.4788 18.5059 24.3444 18.8861 24.3444C19.1041 24.3356 19.3173 24.4104 19.482 24.5535C19.7643 24.7819 20.1058 24.9254 20.4666 24.9672C20.8273 25.009 21.1926 24.9474 21.5197 24.7897C21.8398 24.6369 22.1098 24.3961 22.298 24.0955C22.4863 23.7948 22.5849 23.4468 22.5825 23.0921V4.18685C22.5819 3.68497 22.3826 3.20374 22.0281 2.84845C21.6736 2.49316 21.1928 2.29273 20.691 2.29102Z" fill="#EB423F"/>
<path d="M18.6597 8.25H10.5347C10.3192 8.25 10.1125 8.1644 9.96014 8.01202C9.80777 7.85965 9.72217 7.65299 9.72217 7.4375C9.72217 7.22201 9.80777 7.01535 9.96014 6.86298C10.1125 6.7106 10.3192 6.625 10.5347 6.625H18.6597C18.8752 6.625 19.0818 6.7106 19.2342 6.86298C19.3866 7.01535 19.4722 7.22201 19.4722 7.4375C19.4722 7.65299 19.3866 7.85965 19.2342 8.01202C19.0818 8.1644 18.8752 8.25 18.6597 8.25Z" fill="white"/>
<path d="M18.6597 13.666H10.5347C10.3192 13.666 10.1125 13.5804 9.96014 13.428C9.80777 13.2757 9.72217 13.069 9.72217 12.8535C9.72217 12.638 9.80777 12.4314 9.96014 12.279C10.1125 12.1266 10.3192 12.041 10.5347 12.041H18.6597C18.8752 12.041 19.0818 12.1266 19.2342 12.279C19.3866 12.4314 19.4722 12.638 19.4722 12.8535C19.4722 13.069 19.3866 13.2757 19.2342 13.428C19.0818 13.5804 18.8752 13.666 18.6597 13.666Z" fill="white"/>
<path d="M18.6597 19.084H10.5347C10.3192 19.084 10.1125 18.9984 9.96014 18.846C9.80777 18.6936 9.72217 18.487 9.72217 18.2715C9.72217 18.056 9.80777 17.8493 9.96014 17.697C10.1125 17.5446 10.3192 17.459 10.5347 17.459H18.6597C18.8752 17.459 19.0818 17.5446 19.2342 17.697C19.3866 17.8493 19.4722 18.056 19.4722 18.2715C19.4722 18.487 19.3866 18.6936 19.2342 18.846C19.0818 18.9984 18.8752 19.084 18.6597 19.084Z" fill="white"/>
<path d="M7.8265 13.9362C8.42481 13.9362 8.90983 13.4512 8.90983 12.8529C8.90983 12.2546 8.42481 11.7695 7.8265 11.7695C7.22819 11.7695 6.74316 12.2546 6.74316 12.8529C6.74316 13.4512 7.22819 13.9362 7.8265 13.9362Z" fill="#FFB91D"/>
<path d="M7.8265 8.52018C8.42481 8.52018 8.90983 8.03516 8.90983 7.43685C8.90983 6.83854 8.42481 6.35352 7.8265 6.35352C7.22819 6.35352 6.74316 6.83854 6.74316 7.43685C6.74316 8.03516 7.22819 8.52018 7.8265 8.52018Z" fill="#FFB91D"/>
<path d="M7.8265 19.3542C8.42481 19.3542 8.90983 18.8691 8.90983 18.2708C8.90983 17.6725 8.42481 17.1875 7.8265 17.1875C7.22819 17.1875 6.74316 17.6725 6.74316 18.2708C6.74316 18.8691 7.22819 19.3542 7.8265 19.3542Z" fill="#FFB91D"/>
</svg>
