<svg width="23" height="23" viewBox="0 0 23 23" fill="none" xmlns="http://www.w3.org/2000/svg">
<g clip-path="url(#clip0_6074_16319)">
<path d="M17.1761 1.00195H7.99805V17.8592H21.3006V5.07247L17.1761 1.00195Z" fill="#FFE4B2"/>
<path d="M11.8822 5.2832H2.7041V22.1404H16.0066V9.35368L11.8822 5.2832Z" fill="#FFCE62"/>
<path d="M16.0067 9.27809H12.0117V5.2832L16.0067 9.27809Z" fill="#FFE4B2"/>
<path d="M21.3577 5.05939H17.3628V1.06445L21.3577 5.05939Z" fill="#FFCE62"/>
<path d="M21.2358 11.168C21.4731 11.168 21.6655 10.9756 21.6655 10.7383C21.6655 10.501 21.4731 10.3086 21.2358 10.3086C20.9985 10.3086 20.8062 10.501 20.8062 10.7383C20.8062 10.9756 20.9985 11.168 21.2358 11.168Z" fill="black"/>
<path d="M21.6667 5.07133C21.6667 4.92825 21.6464 4.79745 21.5405 4.69149L17.5456 0.696555C17.4245 0.575469 17.2719 0.570312 17.1117 0.570312H7.93367C7.69592 0.570312 7.50312 0.76307 7.50312 1.00086V4.85211H2.70398C2.46624 4.85211 2.27344 5.04486 2.27344 5.28265V22.1398C2.27344 22.3776 2.4662 22.5703 2.70398 22.5703H16.0065C16.2442 22.5703 16.437 22.3776 16.437 22.1398V18.2889H21.2362C21.4739 18.2889 21.6667 18.0962 21.6667 17.8584V12.6789C21.6667 12.4411 21.474 12.2484 21.2362 12.2484C20.9984 12.2484 20.8056 12.4411 20.8056 12.6789V17.4279H16.437V13.4271H18.5855C18.8232 13.4271 19.016 13.2344 19.016 12.9966C19.016 12.7588 18.8233 12.566 18.5855 12.566H16.437V10.8344H18.5855C18.8232 10.8344 19.016 10.6417 19.016 10.4039C19.016 10.1661 18.8233 9.97334 18.5855 9.97334H16.437V9.35304C16.437 9.20987 16.4169 9.07911 16.3109 8.97302L15.5795 8.2417H18.5855C18.8232 8.2417 19.016 8.04894 19.016 7.81115C19.016 7.57336 18.8233 7.3806 18.5855 7.3806H14.7185L12.3159 4.97805C12.1947 4.85687 12.0422 4.85198 11.8821 4.85198H8.36421V1.43136H16.8106V4.99592C16.8106 5.23371 17.0033 5.42647 17.2411 5.42647H20.8056V8.80596C20.8056 9.04375 20.9984 9.23651 21.2362 9.23651C21.4739 9.23651 21.6667 9.04375 21.6667 8.80596V5.07133H21.6667ZM12.442 6.32198L14.967 8.847H12.442V6.32198ZM15.5759 9.70805V21.7093H3.13449V5.71311H11.5809V9.2775C11.5809 9.51529 11.7737 9.70805 12.0114 9.70805H15.5759ZM17.6716 4.56542V2.04036L20.1966 4.56537L17.6716 4.56542Z" fill="black"/>
<path d="M5.07471 12.2587C5.07471 12.4965 5.26746 12.6892 5.50525 12.6892H13.2055C13.4432 12.6892 13.636 12.4965 13.636 12.2587C13.636 12.0209 13.4433 11.8281 13.2055 11.8281H5.50525C5.26746 11.8281 5.07471 12.0209 5.07471 12.2587Z" fill="black"/>
<path d="M13.2055 14.4199H5.50525C5.26751 14.4199 5.07471 14.6127 5.07471 14.8505C5.07471 15.0883 5.26746 15.281 5.50525 15.281H13.2055C13.4432 15.281 13.636 15.0883 13.636 14.8505C13.636 14.6127 13.4432 14.4199 13.2055 14.4199Z" fill="black"/>
<path d="M13.2055 17.0137H5.50525C5.26751 17.0137 5.07471 17.2064 5.07471 17.4442C5.07471 17.682 5.26746 17.8748 5.50525 17.8748H13.2055C13.4432 17.8748 13.636 17.682 13.636 17.4442C13.636 17.2064 13.4432 17.0137 13.2055 17.0137Z" fill="black"/>
</g>
<defs>
<clipPath id="clip0_6074_16319">
<rect width="22" height="22" fill="white" transform="translate(0.970215 0.570312)"/>
</clipPath>
</defs>
</svg>
