<svg width="22" height="22" viewBox="0 0 22 22" fill="none" xmlns="http://www.w3.org/2000/svg">
<g clip-path="url(#clip0_6105_16787)">
<path d="M12.7544 19.8395H9.24561V1.55306C9.24561 0.87334 9.79664 0.322266 10.4764 0.322266H11.5236C12.2034 0.322266 12.7544 0.873297 12.7544 1.55306V19.8395Z" fill="#BF8F80"/>
<path d="M9.24561 12.0547H12.7544V13.5853H9.24561V12.0547Z" fill="#B47C67"/>
<path d="M11.5947 0.324414C10.948 0.360937 10.4346 0.897188 10.4346 1.55289V19.8395H9.24561V1.55289C9.24561 0.873125 9.79646 0.322266 10.4762 0.322266H11.5238C11.5479 0.322266 11.5715 0.323125 11.5947 0.324414Z" fill="#B47C67"/>
<path d="M17.9201 12.5533H4.08019C2.78357 12.5533 1.73242 11.5021 1.73242 10.2055V4.61535C1.73242 3.31872 2.78357 2.26758 4.08019 2.26758H17.9201C19.2167 2.26758 20.2679 3.31872 20.2679 4.61535V10.2055C20.2679 11.5021 19.2167 12.5533 17.9201 12.5533Z" fill="#FFE07D"/>
<path d="M5.66062 12.5534H4.08023C2.78387 12.5534 1.73242 11.5024 1.73242 10.2056V4.61539C1.73242 3.31902 2.78387 2.26758 4.08023 2.26758H5.66062C4.36383 2.26758 3.31281 3.31902 3.31281 4.61539V10.2056C3.31281 11.5024 4.36383 12.5534 5.66062 12.5534Z" fill="#FFD064"/>
<path d="M15.1434 18.1353C14.3701 18.1141 13.7366 18.7346 13.7366 19.5031C13.7366 18.7474 13.124 18.1348 12.3683 18.1348C11.6126 18.1348 11 18.7474 11 19.5031C11 18.7474 10.3874 18.1348 9.63175 18.1348C8.87605 18.1348 8.26345 18.7474 8.26345 19.5031C8.26345 18.7346 7.62996 18.1141 6.8567 18.1353C6.1114 18.1557 5.52686 18.786 5.52686 19.5315V20.7193C5.52686 21.2488 5.95607 21.678 6.48553 21.678H15.5146C16.0441 21.678 16.4733 21.2488 16.4733 20.7193V19.5315C16.4732 18.786 15.8887 18.1557 15.1434 18.1353Z" fill="#B3E59F"/>
<path d="M10.1542 21.6781H6.48549C5.95611 21.6781 5.52686 21.2488 5.52686 20.7194V19.5318C5.52686 18.7863 6.11166 18.1559 6.85674 18.1353C7.63018 18.1142 8.26354 18.7347 8.26354 19.503C8.26354 18.7476 8.87627 18.1349 9.63166 18.1349C9.79623 18.1349 9.95393 18.1636 10.1 18.2169C9.56936 18.4133 9.19553 18.9358 9.19553 19.5318V20.7194C9.19553 21.2488 9.62479 21.6781 10.1542 21.6781Z" fill="#95D6A4"/>
<path d="M17.92 1.94477H17.7623C17.5843 1.94477 17.4401 2.08905 17.4401 2.26703C17.4401 2.44501 17.5843 2.5893 17.7623 2.5893H17.92C19.0369 2.5893 19.9456 3.49796 19.9456 4.61484V10.2051C19.9456 11.322 19.037 12.2306 17.92 12.2306H4.07979C2.9629 12.2306 2.0542 11.322 2.0542 10.2051V4.61484C2.0542 3.49796 2.96286 2.5893 4.07979 2.5893H16.4733C16.6513 2.5893 16.7955 2.44501 16.7955 2.26703C16.7955 2.08905 16.6513 1.94477 16.4733 1.94477H13.0766V1.55289C13.0766 0.696609 12.3798 0 11.5233 0H10.4762C9.61988 0 8.92327 0.696609 8.92327 1.55289V1.94477H4.07979C2.60746 1.94477 1.40967 3.14256 1.40967 4.61484V10.2051C1.40967 11.6774 2.60746 12.8752 4.07979 12.8752H8.92323V14.9849C8.92323 15.1629 9.06747 15.3072 9.24549 15.3072C9.42351 15.3072 9.56776 15.1629 9.56776 14.9849V12.8752H12.4321V17.8142C12.4108 17.8133 12.3896 17.8122 12.3682 17.8122C11.8063 17.8122 11.3074 18.0878 10.9999 18.511C10.6923 18.0878 10.1935 17.8122 9.63157 17.8122C9.61013 17.8122 9.58898 17.8134 9.56776 17.8142V16.274C9.56776 16.096 9.42351 15.9517 9.24549 15.9517C9.06747 15.9517 8.92323 16.096 8.92323 16.274V17.9684C8.66004 18.0904 8.43304 18.2777 8.26396 18.51C8.20754 18.4326 8.14403 18.3593 8.07378 18.291C7.74391 17.97 7.30838 17.8003 6.84771 17.8129C5.94158 17.8377 5.20441 18.6086 5.20441 19.5313V20.7191C5.20441 21.4254 5.77903 22 6.48535 22H15.5145C16.2208 22 16.7954 21.4254 16.7954 20.7191V19.5313C16.7954 18.6086 16.0583 17.8377 15.1522 17.8129C14.6916 17.8001 14.256 17.97 13.9261 18.291C13.8558 18.3593 13.7924 18.4325 13.7359 18.51C13.5668 18.2777 13.3398 18.0904 13.0767 17.9684V12.8752H17.92C19.3923 12.8752 20.5901 11.6774 20.5901 10.2051V4.61484C20.5901 3.14256 19.3923 1.94477 17.92 1.94477ZM9.5678 1.55289C9.5678 1.052 9.97527 0.644531 10.4762 0.644531H11.5233C12.0244 0.644531 12.4321 1.052 12.4321 1.55289V1.94477H9.5678V1.55289ZM13.4142 19.5028C13.4142 19.6808 13.5585 19.8251 13.7365 19.8251C13.9145 19.8251 14.0588 19.6808 14.0588 19.5028C14.0588 19.2179 14.1712 18.9516 14.3754 18.7529C14.5795 18.5543 14.8499 18.4492 15.1344 18.4571C15.6949 18.4725 16.1508 18.9544 16.1508 19.5313V20.7191C16.1508 21.07 15.8653 21.3555 15.5144 21.3555H6.48535C6.13443 21.3555 5.84894 21.07 5.84894 20.7191V19.5313C5.84894 18.9544 6.30488 18.4725 6.86537 18.4571C6.87525 18.4569 6.88518 18.4568 6.89506 18.4568C7.16933 18.4568 7.42731 18.5613 7.62432 18.753C7.82855 18.9517 7.941 19.2179 7.941 19.5028C7.941 19.6808 8.08525 19.8251 8.26327 19.8251C8.44129 19.8251 8.58554 19.6808 8.58554 19.5028C8.58554 18.9261 9.0548 18.4568 9.63157 18.4568C10.2084 18.4568 10.6776 18.9261 10.6776 19.5028C10.6776 19.6808 10.8219 19.8251 10.9999 19.8251C11.1779 19.8251 11.3222 19.6808 11.3222 19.5028C11.3222 18.9261 11.7914 18.4568 12.3682 18.4568C12.945 18.4568 13.4142 18.926 13.4142 19.5028Z" fill="black"/>
<path d="M10.1418 5.33357C10.0779 5.17833 9.92818 5.07812 9.76035 5.07812C9.76017 5.07812 9.76 5.07812 9.75987 5.07812C9.59186 5.0783 9.44216 5.17893 9.37857 5.33443C9.37758 5.33688 9.37659 5.33929 9.37569 5.34174L7.88106 9.26603C7.81769 9.43236 7.90122 9.61855 8.06751 9.68188C8.10527 9.69628 8.14403 9.70307 8.18219 9.70307C8.312 9.70307 8.43442 9.624 8.4834 9.4954L8.77658 8.72561H10.7332L11.0233 9.4945C11.0861 9.661 11.2722 9.74509 11.4386 9.68223C11.6051 9.61936 11.6892 9.43344 11.6263 9.26693L10.1453 5.34247C10.1442 5.33946 10.143 5.3365 10.1418 5.33357ZM9.02206 8.08108L9.75936 6.14525L10.4899 8.08108H9.02206Z" fill="black"/>
<path d="M7.44812 5.77539C7.62614 5.77539 7.77039 5.6311 7.77039 5.45312C7.77039 5.27515 7.62614 5.13086 7.44812 5.13086H5.84668C5.66866 5.13086 5.52441 5.27515 5.52441 5.45312V9.40432C5.52441 9.58229 5.66866 9.72658 5.84668 9.72658C6.0247 9.72658 6.16895 9.58229 6.16895 9.40432V7.71358H7.32089C7.49891 7.71358 7.64316 7.56929 7.64316 7.39132C7.64316 7.21334 7.49891 7.06905 7.32089 7.06905H6.16895V5.77539H7.44812Z" fill="black"/>
<path d="M14.1474 5.11719C12.8723 5.11719 11.835 6.15454 11.835 7.42964C11.835 8.70469 12.8723 9.74204 14.1474 9.74204C14.677 9.74204 15.1652 9.56265 15.5555 9.26208L15.925 9.63161C15.988 9.69456 16.0704 9.72601 16.1529 9.72601C16.2354 9.72601 16.3179 9.69456 16.3808 9.63161C16.5067 9.50576 16.5067 9.3017 16.3808 9.17589L16.0071 8.80214C16.2914 8.41796 16.4598 7.9432 16.4598 7.42968C16.4598 6.15454 15.4225 5.11719 14.1474 5.11719ZM14.1474 9.09751C13.2277 9.09751 12.4795 8.3493 12.4795 7.42964C12.4795 6.50993 13.2277 5.76172 14.1474 5.76172C15.067 5.76172 15.8152 6.50993 15.8152 7.42964C15.8152 7.76509 15.7153 8.07748 15.5442 8.33933L15.1074 7.90251C14.9816 7.77665 14.7775 7.77665 14.6516 7.90251C14.5258 8.02836 14.5258 8.23242 14.6516 8.35823L15.0947 8.80128C14.8254 8.98786 14.499 9.09751 14.1474 9.09751Z" fill="black"/>
</g>
<defs>
<clipPath id="clip0_6105_16787">
<rect width="22" height="22" fill="white"/>
</clipPath>
</defs>
</svg>
