<svg width="25" height="25" viewBox="0 0 25 25" fill="none" xmlns="http://www.w3.org/2000/svg">
<g clip-path="url(#clip0_6102_16760)">
<path d="M23.6875 18.5469L21.3281 15.1758C21.2554 15.0736 21.1593 14.9901 21.0479 14.9324C20.9365 14.8747 20.813 14.8443 20.6875 14.8438H16.7969V22.6562H23.0469C23.2539 22.6556 23.4522 22.5731 23.5986 22.4268C23.745 22.2804 23.8275 22.082 23.8281 21.875V18.9961C23.8271 18.8357 23.7781 18.6792 23.6875 18.5469Z" fill="#6D8299"/>
<path d="M21.916 16.0156H18.75V18.3594H23.5563L21.916 16.0156Z" fill="#B8CAE6"/>
<path d="M16.4062 13.6719H6.64062C6.53702 13.6719 6.43767 13.713 6.36441 13.7863C6.29115 13.8595 6.25 13.9589 6.25 14.0625V22.2656C6.25 22.3692 6.29115 22.4686 6.36441 22.5418C6.43767 22.6151 6.53702 22.6562 6.64062 22.6562H16.7969V14.0625C16.7969 13.9589 16.7557 13.8595 16.6825 13.7863C16.6092 13.713 16.5099 13.6719 16.4062 13.6719Z" fill="#587399"/>
<path d="M19.9219 24.2188C20.7848 24.2188 21.4844 23.5192 21.4844 22.6562C21.4844 21.7933 20.7848 21.0938 19.9219 21.0938C19.0589 21.0938 18.3594 21.7933 18.3594 22.6562C18.3594 23.5192 19.0589 24.2188 19.9219 24.2188Z" fill="#495766"/>
<path d="M10.1562 24.2188C11.0192 24.2188 11.7188 23.5192 11.7188 22.6562C11.7188 21.7933 11.0192 21.0938 10.1562 21.0938C9.29331 21.0938 8.59375 21.7933 8.59375 22.6562C8.59375 23.5192 9.29331 24.2188 10.1562 24.2188Z" fill="#495766"/>
<path d="M7.42188 3.51562C7.42188 5.02578 4.6875 8.59375 4.6875 8.59375C4.6875 8.59375 1.95312 5.02578 1.95312 3.51562C1.95313 2.79042 2.24121 2.09492 2.754 1.58213C3.2668 1.06934 3.9623 0.78125 4.6875 0.78125C5.4127 0.78125 6.1082 1.06934 6.62099 1.58213C7.13379 2.09492 7.42187 2.79042 7.42188 3.51562Z" fill="#CC7670"/>
<path d="M4.6875 4.88281C5.44258 4.88281 6.05469 4.2707 6.05469 3.51562C6.05469 2.76055 5.44258 2.14844 4.6875 2.14844C3.93242 2.14844 3.32031 2.76055 3.32031 3.51562C3.32031 4.2707 3.93242 4.88281 4.6875 4.88281Z" fill="#E6E3DB"/>
<path d="M23.0469 4.29688C23.0469 5.80703 20.3125 9.375 20.3125 9.375C20.3125 9.375 17.5781 5.80703 17.5781 4.29688C17.5781 3.57167 17.8662 2.87617 18.379 2.36338C18.8918 1.85059 19.5873 1.5625 20.3125 1.5625C21.0377 1.5625 21.7332 1.85059 22.246 2.36338C22.7588 2.87617 23.0469 3.57167 23.0469 4.29688Z" fill="#D97D77"/>
<path d="M20.3125 5.66406C21.0676 5.66406 21.6797 5.05195 21.6797 4.29688C21.6797 3.5418 21.0676 2.92969 20.3125 2.92969C19.5574 2.92969 18.9453 3.5418 18.9453 4.29688C18.9453 5.05195 19.5574 5.66406 20.3125 5.66406Z" fill="#E6E3DB"/>
<path d="M18.6244 10.9376L18.623 10.1564C18.8691 10.1555 19.1149 10.141 19.3593 10.1133L19.4469 10.8896C19.1738 10.9207 18.8993 10.9367 18.6244 10.9376Z" fill="black"/>
<path d="M17.7943 10.8864C17.5168 10.8505 17.2424 10.7942 16.9731 10.7181L17.1872 9.9668C17.4194 10.0324 17.6561 10.0807 17.8954 10.1115L17.7943 10.8864Z" fill="black"/>
<path d="M16.1834 10.4239C15.9294 10.3045 15.6853 10.1648 15.4536 10.0063L15.8916 9.35938C16.0894 9.49493 16.2978 9.61431 16.5148 9.71637L16.1834 10.4239Z" fill="black"/>
<path d="M6.89429 9.46281L6.64062 8.72367C6.90138 8.63435 7.15546 8.55393 7.40284 8.48242L7.6212 9.23242C7.38536 9.30101 7.14306 9.3778 6.89429 9.46281Z" fill="black"/>
<path d="M14.8109 9.53625C14.6172 9.38996 14.4136 9.25726 14.2017 9.13909L14.5759 8.45312C14.8187 8.58837 15.0519 8.74004 15.2739 8.90706L14.8109 9.53625Z" fill="black"/>
<path d="M8.35759 9.03913L8.17676 8.27918C8.4487 8.21449 8.70985 8.15919 8.96022 8.11328L9.10283 8.88125C8.86516 8.92551 8.61639 8.97761 8.35759 9.03913Z" fill="black"/>
<path d="M9.8549 8.76174L9.75195 7.98734C10.0401 7.94906 10.3066 7.92172 10.5491 7.90234L10.6114 8.68119C10.3815 8.69967 10.1285 8.72539 9.8549 8.76174Z" fill="black"/>
<path d="M13.5492 8.85741C13.4832 8.8352 13.4145 8.81387 13.3429 8.79342C13.1811 8.74668 13.017 8.70881 12.8511 8.68L12.9839 7.91016C13.1776 7.9437 13.3693 7.98785 13.5581 8.04239C13.6415 8.06624 13.7215 8.09113 13.7982 8.11706L13.5492 8.85741Z" fill="black"/>
<path d="M11.3807 8.62982L11.3384 7.84968C11.6643 7.83199 11.9146 7.82657 12.1497 7.83223L12.1313 8.61315C11.9171 8.60816 11.6856 8.61318 11.3807 8.62982Z" fill="black"/>
<path d="M24.0076 18.3229L21.6457 14.9483C21.5367 14.7957 21.3929 14.6713 21.2263 14.5852C21.0597 14.4991 20.875 14.4538 20.6875 14.4531H17.1875V14.0625C17.1873 13.8554 17.1049 13.6568 16.9584 13.5103C16.812 13.3638 16.6134 13.2815 16.4062 13.2812H6.64062C6.43349 13.2815 6.23489 13.3638 6.08843 13.5103C5.94196 13.6568 5.85958 13.8554 5.85938 14.0625V22.2656C5.85958 22.4728 5.94196 22.6714 6.08843 22.8178C6.23489 22.9643 6.43349 23.0467 6.64062 23.0469H8.24261C8.33264 23.488 8.57228 23.8844 8.92099 24.1691C9.2697 24.4539 9.70607 24.6094 10.1562 24.6094C10.6064 24.6094 11.0428 24.4539 11.3915 24.1691C11.7402 23.8844 11.9799 23.488 12.0699 23.0469H18.0082C18.0983 23.488 18.3379 23.8844 18.6866 24.1691C19.0353 24.4539 19.4717 24.6094 19.9219 24.6094C20.3721 24.6094 20.8084 24.4539 21.1571 24.1691C21.5058 23.8844 21.7455 23.488 21.8355 23.0469H23.0469C23.3576 23.0465 23.6554 22.923 23.8751 22.7033C24.0948 22.4836 24.2184 22.1857 24.2188 21.875V18.996C24.2177 18.7555 24.1441 18.5209 24.0076 18.3229ZM10.1562 23.8281C9.92448 23.8281 9.69791 23.7594 9.50519 23.6306C9.31248 23.5019 9.16228 23.3188 9.07358 23.1047C8.98488 22.8906 8.96168 22.655 9.00689 22.4276C9.05211 22.2003 9.16372 21.9915 9.32761 21.8276C9.4915 21.6637 9.70031 21.5521 9.92763 21.5069C10.1549 21.4617 10.3906 21.4849 10.6047 21.5736C10.8188 21.6623 11.0019 21.8125 11.1306 22.0052C11.2594 22.1979 11.3281 22.4245 11.3281 22.6562C11.3278 22.9669 11.2042 23.2648 10.9845 23.4845C10.7648 23.7042 10.4669 23.8278 10.1562 23.8281ZM16.4062 22.2656H12.0699C11.9799 21.8245 11.7402 21.4281 11.3915 21.1434C11.0428 20.8586 10.6064 20.7031 10.1562 20.7031C9.70607 20.7031 9.2697 20.8586 8.92099 21.1434C8.57228 21.4281 8.33264 21.8245 8.24261 22.2656H6.64062V14.0625H16.4062V22.2656ZM21.666 16.4062L22.7076 17.9688H19.1406V16.4062H21.666ZM19.9219 23.8281C19.6901 23.8281 19.4635 23.7594 19.2708 23.6306C19.0781 23.5019 18.9279 23.3188 18.8392 23.1047C18.7505 22.8906 18.7273 22.655 18.7725 22.4276C18.8177 22.2003 18.9293 21.9915 19.0932 21.8276C19.2571 21.6637 19.4659 21.5521 19.6933 21.5069C19.9206 21.4617 20.1562 21.4849 20.3703 21.5736C20.5845 21.6623 20.7675 21.8125 20.8963 22.0052C21.025 22.1979 21.0938 22.4245 21.0938 22.6562C21.0934 22.9669 20.9698 23.2648 20.7501 23.4845C20.5304 23.7042 20.2326 23.8278 19.9219 23.8281ZM23.4375 21.875C23.4374 21.9786 23.3962 22.0778 23.3229 22.1511C23.2497 22.2243 23.1504 22.2655 23.0469 22.2656H21.8355C21.7455 21.8245 21.5058 21.4281 21.1571 21.1434C20.8084 20.8586 20.3721 20.7031 19.9219 20.7031C19.4717 20.7031 19.0353 20.8586 18.6866 21.1434C18.3379 21.4281 18.0983 21.8245 18.0082 22.2656H17.1875V15.2344H20.6875C20.7502 15.2347 20.8119 15.2499 20.8676 15.2786C20.9234 15.3074 20.9715 15.3489 21.0081 15.3997L21.1658 15.625H18.75C18.6464 15.625 18.547 15.6662 18.4738 15.7394C18.4005 15.8127 18.3594 15.912 18.3594 16.0156V18.3594C18.3594 18.463 18.4005 18.5623 18.4738 18.6356C18.547 18.7088 18.6464 18.75 18.75 18.75H23.353L23.3641 18.7658C23.4111 18.8335 23.4366 18.9137 23.4375 18.996L23.4375 21.875Z" fill="black"/>
<path d="M0.78125 15.625H5.07812V16.4062H0.78125V15.625Z" fill="black"/>
<path d="M1.5625 17.9688H5.07812V18.75H1.5625V17.9688Z" fill="black"/>
<path d="M2.34375 20.3125H5.07812V21.0938H2.34375V20.3125Z" fill="black"/>
<path d="M4.6875 8.98438C4.74746 8.98435 4.80662 8.97054 4.86039 8.94401C4.91417 8.91749 4.96113 8.87896 4.99766 8.83141C5.28564 8.45547 7.8125 5.11227 7.8125 3.51562C7.8125 2.68682 7.48326 1.89197 6.89721 1.30592C6.31116 0.719865 5.5163 0.390625 4.6875 0.390625C3.8587 0.390625 3.06384 0.719865 2.47779 1.30592C1.89174 1.89197 1.5625 2.68682 1.5625 3.51562C1.5625 5.11227 4.08936 8.45547 4.37736 8.83141C4.41388 8.87896 4.46084 8.91749 4.51462 8.94401C4.56839 8.97053 4.62754 8.98434 4.6875 8.98438ZM4.6875 1.17188C5.30889 1.17255 5.90464 1.4197 6.34403 1.85909C6.78342 2.29849 7.03057 2.89423 7.03125 3.51562C7.03125 4.50993 5.54638 6.75869 4.6875 7.93972C3.82862 6.75869 2.34375 4.50993 2.34375 3.51562C2.34443 2.89423 2.59158 2.29849 3.03097 1.85909C3.47036 1.4197 4.06611 1.17255 4.6875 1.17188Z" fill="black"/>
<path d="M6.44531 3.51563C6.44531 3.16796 6.34222 2.82811 6.14907 2.53904C5.95592 2.24997 5.68138 2.02466 5.36019 1.89162C5.03899 1.75857 4.68555 1.72376 4.34457 1.79159C4.00359 1.85941 3.69037 2.02683 3.44454 2.27266C3.19871 2.5185 3.03129 2.83171 2.96346 3.17269C2.89564 3.51368 2.93045 3.86711 3.06349 4.18831C3.19654 4.50951 3.42184 4.78404 3.71091 4.97719C3.99998 5.17034 4.33984 5.27344 4.6875 5.27344C5.15355 5.27293 5.60036 5.08757 5.9299 4.75803C6.25944 4.42848 6.44481 3.98167 6.44531 3.51563ZM3.71094 3.51563C3.71094 3.32248 3.76821 3.13367 3.87552 2.97308C3.98282 2.81248 4.13534 2.68731 4.31379 2.6134C4.49223 2.53949 4.68858 2.52015 4.87802 2.55783C5.06745 2.59551 5.24146 2.68852 5.37803 2.82509C5.51461 2.96167 5.60762 3.13567 5.6453 3.32511C5.68298 3.51454 5.66364 3.7109 5.58973 3.88934C5.51581 4.06778 5.39064 4.2203 5.23005 4.32761C5.06945 4.43491 4.88065 4.49219 4.6875 4.49219C4.42859 4.49188 4.18038 4.3889 3.9973 4.20582C3.81423 4.02275 3.71124 3.77453 3.71094 3.51563Z" fill="black"/>
<path d="M20.3125 9.76562C20.3725 9.7656 20.4316 9.75179 20.4854 9.72526C20.5392 9.69874 20.5861 9.66021 20.6227 9.61266C20.9106 9.23672 23.4375 5.89352 23.4375 4.29688C23.4375 3.46807 23.1083 2.67322 22.5222 2.08717C21.9362 1.50112 21.1413 1.17188 20.3125 1.17188C19.4837 1.17188 18.6888 1.50112 18.1028 2.08717C17.5167 2.67322 17.1875 3.46807 17.1875 4.29688C17.1875 5.89352 19.7144 9.23672 20.0023 9.61266C20.0389 9.66021 20.0858 9.69874 20.1396 9.72526C20.1934 9.75179 20.2525 9.7656 20.3125 9.76562ZM20.3125 1.95312C20.9339 1.9538 21.5296 2.20095 21.969 2.64034C22.4084 3.07974 22.6556 3.67548 22.6562 4.29688C22.6563 5.29118 21.1714 7.53994 20.3125 8.72097C19.4536 7.53994 17.9688 5.29118 17.9688 4.29688C17.9694 3.67548 18.2166 3.07974 18.656 2.64034C19.0954 2.20095 19.6911 1.9538 20.3125 1.95312Z" fill="black"/>
<path d="M22.0703 4.29688C22.0703 3.94921 21.9672 3.60936 21.7741 3.32029C21.5809 3.03122 21.3064 2.80591 20.9852 2.67287C20.664 2.53982 20.3106 2.50501 19.9696 2.57284C19.6286 2.64066 19.3154 2.80808 19.0695 3.05391C18.8237 3.29975 18.6563 3.61296 18.5885 3.95394C18.5206 4.29493 18.5554 4.64836 18.6885 4.96956C18.8215 5.29076 19.0468 5.56529 19.3359 5.75844C19.625 5.95159 19.9648 6.05469 20.3125 6.05469C20.7785 6.05418 21.2254 5.86882 21.5549 5.53928C21.8844 5.20973 22.0698 4.76292 22.0703 4.29688ZM19.3359 4.29688C19.3359 4.10373 19.3932 3.91492 19.5005 3.75433C19.6078 3.59373 19.7603 3.46856 19.9388 3.39465C20.1172 3.32074 20.3136 3.3014 20.503 3.33908C20.6925 3.37676 20.8665 3.46977 21.003 3.60634C21.1396 3.74292 21.2326 3.91692 21.2703 4.10636C21.308 4.29579 21.2886 4.49215 21.2147 4.67059C21.1408 4.84903 21.0156 5.00155 20.8551 5.10886C20.6945 5.21616 20.5056 5.27344 20.3125 5.27344C20.0536 5.27313 19.8054 5.17015 19.6223 4.98707C19.4392 4.804 19.3362 4.55578 19.3359 4.29688Z" fill="black"/>
</g>
<defs>
<clipPath id="clip0_6102_16760">
<rect width="25" height="25" fill="white"/>
</clipPath>
</defs>
</svg>
