<svg width="28" height="28" viewBox="0 0 28 28" fill="none" xmlns="http://www.w3.org/2000/svg">
<path d="M21.4634 4.14844V22.3439L16.8228 24.8203H4.1665C3.46619 24.8203 2.90088 24.255 2.90088 23.5547V4.14844C2.90088 3.44813 3.46619 2.88281 4.1665 2.88281H20.1978C20.8981 2.88281 21.4634 3.44813 21.4634 4.14844Z" fill="#2675E2"/>
<path d="M21.4634 4.14844V13.8516H2.90088V4.14844C2.90088 3.44813 3.46619 2.88281 4.1665 2.88281H20.1978C20.8981 2.88281 21.4634 3.44813 21.4634 4.14844Z" fill="#155FB7"/>
<path d="M19.7759 5.41406V11.3203H4.58838V5.41406H19.7759Z" fill="#EDEBEA"/>
<path d="M7.11963 15.5508V17.2383H5.43213V15.5508H7.11963Z" fill="#EDEBEA"/>
<path d="M16.8228 24.8203C21.2497 24.8203 24.8384 21.2316 24.8384 16.8047C24.8384 12.3778 21.2497 8.78906 16.8228 8.78906C12.3958 8.78906 8.80713 12.3778 8.80713 16.8047C8.80713 21.2316 12.3958 24.8203 16.8228 24.8203Z" fill="#0B4F6C"/>
<path d="M16.8228 23.1328C20.3177 23.1328 23.1509 20.2996 23.1509 16.8047C23.1509 13.3098 20.3177 10.4766 16.8228 10.4766C13.3278 10.4766 10.4946 13.3098 10.4946 16.8047C10.4946 20.2996 13.3278 23.1328 16.8228 23.1328Z" fill="#EDEBEA"/>
<path d="M17.1898 12.5859L14.2915 17.332H16.4135L15.9537 21.0234L19.354 15.9863H17.0463L17.1898 12.5859Z" fill="#FCBF49"/>
<path d="M21.7798 10.1222V4.14844C21.7798 3.27516 21.071 2.56641 20.1978 2.56641H4.1665C3.29322 2.56641 2.58447 3.27516 2.58447 4.14844V23.5547C2.58447 24.428 3.29322 25.1367 4.1665 25.1367H16.8228C21.417 25.1367 25.1548 21.3989 25.1548 16.8047C25.1548 14.0667 23.8217 11.6452 21.7798 10.1222ZM4.1665 3.19922H20.1978C20.7209 3.19922 21.147 3.62531 21.147 4.14844V9.69609C20.8095 9.48937 20.4593 9.29953 20.0923 9.14344V5.41406C20.0923 5.24109 19.9488 5.09766 19.7759 5.09766H4.58838C4.41541 5.09766 4.27197 5.24109 4.27197 5.41406V11.3203C4.27197 11.4933 4.41541 11.6367 4.58838 11.6367H10.3006C9.84072 12.2147 9.45682 12.8475 9.1615 13.5352H3.21729V4.14844C3.21729 3.62531 3.64338 3.19922 4.1665 3.19922ZM10.8532 11.0039H4.90479V5.73047H19.4595V8.90719C18.6284 8.62875 17.7467 8.47266 16.8228 8.47266C14.4813 8.47266 12.3678 9.44719 10.8532 11.0039ZM4.1665 24.5039C3.64338 24.5039 3.21729 24.0778 3.21729 23.5547V14.168H8.92525C8.64682 14.9991 8.49072 15.8808 8.49072 16.8047C8.49072 18.0492 8.77338 19.2262 9.26275 20.2852H6.27588C6.10291 20.2852 5.95947 20.4286 5.95947 20.6016C5.95947 20.7745 6.10291 20.918 6.27588 20.918H9.5876C9.79854 21.2892 10.039 21.6394 10.3006 21.9727H7.96338C7.79041 21.9727 7.64697 22.1161 7.64697 22.2891C7.64697 22.462 7.79041 22.6055 7.96338 22.6055H10.8532C11.6379 23.4155 12.5871 24.0652 13.646 24.5039H4.1665ZM16.8228 24.5039C12.5787 24.5039 9.12354 21.0487 9.12354 16.8047C9.12354 12.5606 12.5787 9.10547 16.8228 9.10547C21.0668 9.10547 24.522 12.5606 24.522 16.8047C24.522 21.0487 21.0668 24.5039 16.8228 24.5039ZM16.8228 10.1602C13.1609 10.1602 10.1782 13.1428 10.1782 16.8047C10.1782 20.4666 13.1609 23.4492 16.8228 23.4492C20.4846 23.4492 23.4673 20.4666 23.4673 16.8047C23.4673 13.1428 20.4846 10.1602 16.8228 10.1602ZM16.8228 22.8164C13.5068 22.8164 10.811 20.1206 10.811 16.8047C10.811 13.4887 13.5068 10.793 16.8228 10.793C20.1387 10.793 22.8345 13.4887 22.8345 16.8047C22.8345 20.1206 20.1387 22.8164 16.8228 22.8164ZM19.354 15.6698H17.3754L17.5062 12.5986C17.5104 12.4552 17.4218 12.3244 17.2826 12.2822C17.1434 12.24 16.9957 12.2991 16.9198 12.4214L14.0215 17.1675C13.9624 17.2645 13.9582 17.3869 14.0173 17.4881C14.0721 17.5894 14.1776 17.6484 14.2915 17.6484H16.0549L15.6373 20.9855C15.6204 21.1289 15.7048 21.2681 15.8398 21.3188C15.8778 21.3314 15.9157 21.3398 15.9495 21.3398C16.0507 21.3398 16.152 21.2892 16.211 21.2006L19.6113 16.1634C19.6746 16.0664 19.6831 15.9398 19.6282 15.8386C19.5734 15.7331 19.4679 15.6698 19.3498 15.6698H19.354ZM16.4304 19.7494L16.7257 17.37C16.7384 17.2814 16.7088 17.1886 16.6498 17.1211C16.5907 17.0536 16.5021 17.0156 16.4135 17.0156H14.8526L16.8185 13.7967L16.7257 15.9736C16.7257 16.058 16.7553 16.1423 16.8143 16.2056C16.8734 16.2689 16.9578 16.3027 17.0421 16.3027H18.7549L16.4262 19.7494H16.4304ZM7.43604 17.235V15.5475C7.43604 15.3745 7.2926 15.2311 7.11963 15.2311H5.43213C5.25916 15.2311 5.11572 15.3745 5.11572 15.5475V17.235C5.11572 17.408 5.25916 17.5514 5.43213 17.5514H7.11963C7.2926 17.5514 7.43604 17.408 7.43604 17.235ZM6.80322 16.9186H5.74854V15.8639H6.80322V16.9186Z" fill="#050819"/>
</svg>
