<svg width="28" height="27" viewBox="0 0 28 27" fill="none" xmlns="http://www.w3.org/2000/svg">
<path d="M21.4634 3.79688V21.9923L16.8228 24.4688H4.1665C3.46619 24.4688 2.90088 23.9034 2.90088 23.2031V3.79688C2.90088 3.09656 3.46619 2.53125 4.1665 2.53125H20.1978C20.8981 2.53125 21.4634 3.09656 21.4634 3.79688Z" fill="#2675E2"/>
<path d="M21.4634 3.79688V13.5H2.90088V3.79688C2.90088 3.09656 3.46619 2.53125 4.1665 2.53125H20.1978C20.8981 2.53125 21.4634 3.09656 21.4634 3.79688Z" fill="#155FB7"/>
<path d="M19.7759 5.0625V10.9688H4.58838V5.0625H19.7759Z" fill="#EDEBEA"/>
<path d="M7.11963 15.1992V16.8867H5.43213V15.1992H7.11963Z" fill="#EDEBEA"/>
<path d="M16.8228 24.4688C21.2497 24.4688 24.8384 20.88 24.8384 16.4531C24.8384 12.0262 21.2497 8.4375 16.8228 8.4375C12.3958 8.4375 8.80713 12.0262 8.80713 16.4531C8.80713 20.88 12.3958 24.4688 16.8228 24.4688Z" fill="#0B4F6C"/>
<path d="M16.8228 22.7812C20.3177 22.7812 23.1509 19.9481 23.1509 16.4531C23.1509 12.9582 20.3177 10.125 16.8228 10.125C13.3278 10.125 10.4946 12.9582 10.4946 16.4531C10.4946 19.9481 13.3278 22.7812 16.8228 22.7812Z" fill="#EDEBEA"/>
<path d="M17.1898 12.2344L14.2915 16.9805H16.4135L15.9537 20.6719L19.354 15.6347H17.0463L17.1898 12.2344Z" fill="#FCBF49"/>
<path d="M21.7798 9.77062V3.79688C21.7798 2.92359 21.071 2.21484 20.1978 2.21484H4.1665C3.29322 2.21484 2.58447 2.92359 2.58447 3.79688V23.2031C2.58447 24.0764 3.29322 24.7852 4.1665 24.7852H16.8228C21.417 24.7852 25.1548 21.0473 25.1548 16.4531C25.1548 13.7152 23.8217 11.2936 21.7798 9.77062ZM4.1665 2.84766H20.1978C20.7209 2.84766 21.147 3.27375 21.147 3.79688V9.34453C20.8095 9.13781 20.4593 8.94797 20.0923 8.79188V5.0625C20.0923 4.88953 19.9488 4.74609 19.7759 4.74609H4.58838C4.41541 4.74609 4.27197 4.88953 4.27197 5.0625V10.9688C4.27197 11.1417 4.41541 11.2852 4.58838 11.2852H10.3006C9.84072 11.8631 9.45682 12.4959 9.1615 13.1836H3.21729V3.79688C3.21729 3.27375 3.64338 2.84766 4.1665 2.84766ZM10.8532 10.6523H4.90479V5.37891H19.4595V8.55563C18.6284 8.27719 17.7467 8.12109 16.8228 8.12109C14.4813 8.12109 12.3678 9.09562 10.8532 10.6523ZM4.1665 24.1523C3.64338 24.1523 3.21729 23.7263 3.21729 23.2031V13.8164H8.92525C8.64682 14.6475 8.49072 15.5292 8.49072 16.4531C8.49072 17.6977 8.77338 18.8747 9.26275 19.9336H6.27588C6.10291 19.9336 5.95947 20.077 5.95947 20.25C5.95947 20.423 6.10291 20.5664 6.27588 20.5664H9.5876C9.79854 20.9377 10.039 21.2878 10.3006 21.6211H7.96338C7.79041 21.6211 7.64697 21.7645 7.64697 21.9375C7.64697 22.1105 7.79041 22.2539 7.96338 22.2539H10.8532C11.6379 23.0639 12.5871 23.7136 13.646 24.1523H4.1665ZM16.8228 24.1523C12.5787 24.1523 9.12354 20.6972 9.12354 16.4531C9.12354 12.2091 12.5787 8.75391 16.8228 8.75391C21.0668 8.75391 24.522 12.2091 24.522 16.4531C24.522 20.6972 21.0668 24.1523 16.8228 24.1523ZM16.8228 9.80859C13.1609 9.80859 10.1782 12.7912 10.1782 16.4531C10.1782 20.115 13.1609 23.0977 16.8228 23.0977C20.4846 23.0977 23.4673 20.115 23.4673 16.4531C23.4673 12.7912 20.4846 9.80859 16.8228 9.80859ZM16.8228 22.4648C13.5068 22.4648 10.811 19.7691 10.811 16.4531C10.811 13.1372 13.5068 10.4414 16.8228 10.4414C20.1387 10.4414 22.8345 13.1372 22.8345 16.4531C22.8345 19.7691 20.1387 22.4648 16.8228 22.4648ZM19.354 15.3183H17.3754L17.5062 12.247C17.5104 12.1036 17.4218 11.9728 17.2826 11.9306C17.1434 11.8884 16.9957 11.9475 16.9198 12.0698L14.0215 16.8159C13.9624 16.913 13.9582 17.0353 14.0173 17.1366C14.0721 17.2378 14.1776 17.2969 14.2915 17.2969H16.0549L15.6373 20.6339C15.6204 20.7773 15.7048 20.9166 15.8398 20.9672C15.8778 20.9798 15.9157 20.9883 15.9495 20.9883C16.0507 20.9883 16.152 20.9377 16.211 20.8491L19.6113 15.8119C19.6746 15.7148 19.6831 15.5883 19.6282 15.487C19.5734 15.3816 19.4679 15.3183 19.3498 15.3183H19.354ZM16.4304 19.3978L16.7257 17.0184C16.7384 16.9298 16.7088 16.837 16.6498 16.7695C16.5907 16.702 16.5021 16.6641 16.4135 16.6641H14.8526L16.8185 13.4452L16.7257 15.622C16.7257 15.7064 16.7553 15.7908 16.8143 15.8541C16.8734 15.9173 16.9578 15.9511 17.0421 15.9511H18.7549L16.4262 19.3978H16.4304ZM7.43604 16.8834V15.1959C7.43604 15.023 7.2926 14.8795 7.11963 14.8795H5.43213C5.25916 14.8795 5.11572 15.023 5.11572 15.1959V16.8834C5.11572 17.0564 5.25916 17.1998 5.43213 17.1998H7.11963C7.2926 17.1998 7.43604 17.0564 7.43604 16.8834ZM6.80322 16.567H5.74854V15.5123H6.80322V16.567Z" fill="#050819"/>
</svg>
