<svg width="25" height="25" viewBox="0 0 25 25" fill="none" xmlns="http://www.w3.org/2000/svg">
<g clip-path="url(#clip0_6074_15937)">
<path d="M18.4173 24.4791C21.7425 24.4791 24.4381 21.7835 24.4381 18.4583C24.4381 15.1331 21.7425 12.4375 18.4173 12.4375C15.0921 12.4375 12.3965 15.1331 12.3965 18.4583C12.3965 21.7835 15.0921 24.4791 18.4173 24.4791Z" fill="#FFD039"/>
<path d="M18.4167 12.4375C18.2181 12.4375 18.0218 12.4474 17.8281 12.4662C20.8772 12.762 23.2606 15.3318 23.2606 18.4585C23.2606 21.5852 20.8772 24.1549 17.8281 24.4507C18.0218 24.4695 18.2181 24.4794 18.4167 24.4794C21.742 24.4794 24.4377 21.7837 24.4377 18.4584C24.4377 15.1331 21.742 12.4375 18.4167 12.4375Z" fill="#FFAE47"/>
<path d="M20.4072 3.96289V5.09497C20.4072 5.67383 19.9379 6.14309 19.359 6.14309C18.7802 6.14309 18.3109 5.67383 18.3109 5.09497V3.96289H5.81253V5.09497C5.81253 5.67383 5.34327 6.14309 4.76441 6.14309C4.18555 6.14309 3.71628 5.67383 3.71628 5.09497V3.96289H1.14453V21.0315H12.9726C12.6032 20.2512 12.3963 19.379 12.3963 18.4583C12.3963 15.133 15.092 12.4373 18.4173 12.4373C20.2275 12.4373 21.8509 13.2363 22.9546 14.5007V3.96289H20.4072Z" fill="#EFE7E4"/>
<path d="M22.954 7.78516H1.15625V8.96228H22.954V7.78516Z" fill="#D8D1D0"/>
<path d="M4.76395 6.14277C4.18509 6.14277 3.71582 5.6735 3.71582 5.09464V2.33328C3.71582 1.75442 4.18509 1.28516 4.76395 1.28516C5.34281 1.28516 5.81207 1.75442 5.81207 2.33328V5.09464C5.81207 5.6735 5.34276 6.14277 4.76395 6.14277Z" fill="#FFD039"/>
<path d="M4.76383 1.28516C4.59442 1.28516 4.43458 1.32561 4.29297 1.39695C4.6353 1.56941 4.87023 1.92383 4.87023 2.33328V5.09464C4.87023 5.5041 4.6353 5.85852 4.29297 6.03097C4.43458 6.10231 4.59442 6.14277 4.76383 6.14277C5.34269 6.14277 5.81195 5.6735 5.81195 5.09464V2.33328C5.81195 1.75442 5.34264 1.28516 4.76383 1.28516Z" fill="#F4B008"/>
<path d="M19.3587 6.14277C18.7798 6.14277 18.3105 5.6735 18.3105 5.09464V2.33328C18.3105 1.75442 18.7798 1.28516 19.3587 1.28516C19.9375 1.28516 20.4068 1.75442 20.4068 2.33328V5.09464C20.4068 5.6735 19.9375 6.14277 19.3587 6.14277Z" fill="#FFD039"/>
<path d="M19.3586 1.28516C19.1891 1.28516 19.0293 1.32556 18.8877 1.39695C19.23 1.56941 19.465 1.92383 19.465 2.33328V5.09464C19.465 5.5041 19.23 5.85852 18.8877 6.03097C19.0293 6.10231 19.1891 6.14277 19.3586 6.14277C19.9374 6.14277 20.4067 5.6735 20.4067 5.09464V2.33328C20.4066 1.75442 19.9374 1.28516 19.3586 1.28516Z" fill="#F4B008"/>
<path d="M6.9451 10.1621H4.66992V12.4373H6.9451V10.1621Z" fill="#465A65"/>
<path d="M11.114 10.1621H8.83887V12.4373H11.114V10.1621Z" fill="#465A65"/>
<path d="M15.2835 10.1621H13.0083V12.4373H15.2835V10.1621Z" fill="#465A65"/>
<path d="M19.4529 10.1621H17.1777V12.4373H19.4529V10.1621Z" fill="#465A65"/>
<path d="M6.9451 15.0469H4.66992V17.322H6.9451V15.0469Z" fill="#465A65"/>
<path d="M11.114 15.0469H8.83887V17.322H11.114V15.0469Z" fill="#465A65"/>
<path d="M20.4067 3.96289V5.09497C20.4067 5.67383 19.9375 6.14309 19.3586 6.14309C18.7798 6.14309 18.3105 5.67383 18.3105 5.09497V3.96289H5.81211V5.09497C5.81211 5.67383 5.34284 6.14309 4.76398 6.14309C4.18513 6.14309 3.71586 5.67383 3.71586 5.09497V3.96289H1.15625V7.78531H22.9663V3.96289H20.4067Z" fill="#E93234"/>
<path d="M22.9663 6.60938H1.15625V7.7865H22.9663V6.60938Z" fill="#B32425"/>
<path d="M17.5943 20.7452C17.4024 20.7452 17.2182 20.6689 17.0825 20.5332L15.4366 18.8873C15.154 18.6047 15.154 18.1464 15.4366 17.8638C15.7192 17.5812 16.1774 17.5812 16.46 17.8638L17.5942 18.998L20.3744 16.2178C20.657 15.9352 21.1152 15.9352 21.3978 16.2178C21.6805 16.5004 21.6805 16.9587 21.3978 17.2413L18.106 20.5332C17.9703 20.6689 17.7862 20.7452 17.5943 20.7452Z" fill="#00B76C"/>
<path d="M17.5938 21.0994C17.8814 21.0994 18.1518 20.9873 18.3552 20.784L21.6471 17.4921C21.8505 17.2888 21.9625 17.0183 21.9625 16.7306C21.9625 16.443 21.8505 16.1726 21.6471 15.9691C21.2273 15.5493 20.5442 15.5494 20.1243 15.9692L17.5938 18.4997L16.7093 17.6151C16.2895 17.1953 15.6063 17.1953 15.1865 17.6151C14.7666 18.035 14.7666 18.7182 15.1865 19.138L16.8324 20.784C17.0357 20.9873 17.3062 21.0994 17.5938 21.0994ZM15.5773 18.3766C15.5773 18.2776 15.6158 18.1846 15.6858 18.1146C15.758 18.0424 15.8529 18.0062 15.9478 18.0062C16.0426 18.0062 16.1375 18.0424 16.2098 18.1146L17.344 19.2489C17.4102 19.3151 17.5 19.3523 17.5937 19.3523C17.6874 19.3523 17.7772 19.3151 17.8434 19.2489L20.6236 16.4687C20.768 16.3242 21.0031 16.3242 21.1475 16.4686C21.2176 16.5386 21.2561 16.6317 21.2561 16.7306C21.2561 16.8296 21.2175 16.9226 21.1476 16.9926L17.8556 20.2845C17.7856 20.3545 17.6926 20.3931 17.5936 20.3931C17.4947 20.3931 17.4016 20.3545 17.3317 20.2845L15.6857 18.6386C15.6159 18.5686 15.5773 18.4755 15.5773 18.3766Z" fill="black"/>
<path d="M23.3074 14.3747V11.5743C23.3074 11.3792 23.1493 11.2212 22.9542 11.2212C22.7592 11.2212 22.6011 11.3792 22.6011 11.5743V13.6499C22.1304 13.2404 21.6049 12.9045 21.0424 12.6501C21.0214 12.6405 21.0001 12.6315 20.9789 12.6221C20.9574 12.6127 20.9361 12.6031 20.9145 12.5939C20.8768 12.5777 20.8388 12.5622 20.8007 12.5468C20.7959 12.5448 20.791 12.5428 20.7862 12.5408C20.471 12.4142 20.1435 12.3121 19.806 12.2368V10.1617C19.806 9.96666 19.6479 9.80859 19.4528 9.80859H17.1775C16.9825 9.80859 16.8244 9.96666 16.8244 10.1617V12.2835C15.7246 12.565 14.717 13.1384 13.8954 13.965C13.7579 14.1034 13.7586 14.3271 13.8969 14.4645C14.0353 14.6019 14.2589 14.6012 14.3964 14.4629C15.4684 13.3842 16.8962 12.7901 18.4168 12.7901C18.4672 12.7901 18.5175 12.7908 18.5677 12.7921C18.5765 12.7924 18.5852 12.7929 18.594 12.7931C18.636 12.7944 18.678 12.796 18.7198 12.7982C18.7265 12.7985 18.733 12.7991 18.7396 12.7995C18.7841 12.802 18.8285 12.8049 18.8728 12.8085C18.876 12.8087 18.8792 12.809 18.8825 12.8093C19.535 12.8631 20.1683 13.0291 20.7562 13.2957C20.7765 13.3049 20.7965 13.3145 20.8166 13.3239C20.8373 13.3336 20.858 13.3432 20.8786 13.3531C20.9147 13.3707 20.9507 13.3885 20.9865 13.4068C20.99 13.4086 20.9935 13.4103 20.997 13.4122C22.8287 14.3526 24.0848 16.2614 24.0848 18.458C24.0848 21.5832 21.5422 24.1258 18.4169 24.1258C15.4873 24.1258 13.0697 21.8917 12.7785 19.0377C12.7783 19.0364 12.7782 19.035 12.7781 19.0336C12.7736 18.9888 12.7695 18.9437 12.766 18.8985C12.7653 18.8888 12.7648 18.879 12.7641 18.8693C12.7613 18.8315 12.7588 18.7936 12.7568 18.7556C12.7557 18.7341 12.755 18.7126 12.7542 18.6911C12.753 18.6636 12.7518 18.6363 12.751 18.6089C12.7498 18.5587 12.749 18.5084 12.749 18.4581C12.749 17.4181 13.033 16.4013 13.5704 15.5176C13.6717 15.351 13.6188 15.1338 13.4521 15.0324C13.2854 14.9311 13.0682 14.984 12.9669 15.1507C12.3623 16.145 12.0428 17.2886 12.0428 18.4581C12.0428 18.5104 12.0435 18.5626 12.0447 18.6148C12.045 18.6267 12.0455 18.6386 12.0459 18.6505C12.0471 18.6921 12.0486 18.7338 12.0506 18.7753C12.0511 18.7852 12.0517 18.7951 12.0523 18.805C12.0547 18.8506 12.0576 18.8961 12.0609 18.9416C12.0613 18.9459 12.0616 18.9503 12.0619 18.9546C12.1072 19.5473 12.2334 20.124 12.44 20.6781H1.49728V14.9683C1.49728 14.7732 1.33917 14.6151 1.14412 14.6151C0.949078 14.6151 0.791016 14.7732 0.791016 14.9683V21.0312C0.791016 21.2263 0.949125 21.3843 1.14417 21.3843H12.7553C13.8174 23.4307 15.9564 24.8322 18.4169 24.8322C21.9316 24.8322 24.791 21.9727 24.791 18.4581C24.791 16.9057 24.233 15.4815 23.3074 14.3747ZM19.0997 12.0839H17.5307V10.5149H19.0997V12.0839Z" fill="black"/>
<path d="M7.29803 10.1617C7.29803 9.96666 7.13992 9.80859 6.94488 9.80859H4.66956C4.47452 9.80859 4.31641 9.96666 4.31641 10.1617V12.437C4.31641 12.6321 4.47452 12.7902 4.66956 12.7902H6.94488C7.13992 12.7902 7.29803 12.6321 7.29803 12.437V10.1617ZM6.59172 12.0839H5.02272V10.5149H6.59177L6.59172 12.0839Z" fill="black"/>
<path d="M11.4675 10.1617C11.4675 9.96666 11.3094 9.80859 11.1143 9.80859H8.839C8.64395 9.80859 8.48584 9.96666 8.48584 10.1617V12.437C8.48584 12.6321 8.64395 12.7902 8.839 12.7902H11.1143C11.3094 12.7902 11.4675 12.6321 11.4675 12.437V10.1617ZM10.7612 12.0839H9.19215V10.5149H10.7612V12.0839Z" fill="black"/>
<path d="M13.0084 9.80859C12.8134 9.80859 12.6553 9.96666 12.6553 10.1617V12.437C12.6553 12.6321 12.8134 12.7902 13.0084 12.7902H15.2837C15.4788 12.7902 15.6369 12.6321 15.6369 12.437V10.1617C15.6369 9.96666 15.4788 9.80859 15.2837 9.80859H13.0084ZM14.9306 12.0839H13.3616V10.5149H14.9306V12.0839Z" fill="black"/>
<path d="M6.94488 14.6934H4.66956C4.47452 14.6934 4.31641 14.8514 4.31641 15.0465V17.3218C4.31641 17.5169 4.47452 17.675 4.66956 17.675H6.94488C7.13992 17.675 7.29803 17.5169 7.29803 17.3218V15.0465C7.29803 14.8514 7.13992 14.6934 6.94488 14.6934ZM6.59172 16.9687H5.02272V15.3996H6.59177L6.59172 16.9687Z" fill="black"/>
<path d="M11.1143 14.6934H8.839C8.64395 14.6934 8.48584 14.8514 8.48584 15.0465V17.3218C8.48584 17.5169 8.64395 17.675 8.839 17.675H11.1143C11.3094 17.675 11.4675 17.5169 11.4675 17.3218V15.0465C11.4674 14.8514 11.3094 14.6934 11.1143 14.6934ZM10.7612 16.9687H9.19211V15.3996H10.7612V16.9687Z" fill="black"/>
<path d="M1.14417 13.9104C1.33922 13.9104 1.49733 13.7523 1.49733 13.5573V8.13978H22.6012V10.1634C22.6012 10.3585 22.7593 10.5165 22.9543 10.5165C23.1494 10.5165 23.3075 10.3585 23.3075 10.1634V7.87723C23.3152 7.84826 23.3196 7.81803 23.3196 7.78667V3.96425C23.3196 3.76916 23.1615 3.61109 22.9665 3.61109H22.9543H20.7601V2.33492C20.7601 1.56223 20.1314 0.933594 19.3588 0.933594C18.5861 0.933594 17.9575 1.56223 17.9575 2.33492V3.61114H6.16533V2.33492C6.16533 1.56223 5.53669 0.933594 4.76405 0.933594C3.99141 0.933594 3.36277 1.56223 3.36277 2.33492V3.61114H1.15631H1.14417C0.949125 3.61114 0.791016 3.7692 0.791016 3.96425V13.5573C0.791016 13.7524 0.949125 13.9104 1.14417 13.9104ZM18.6638 2.33492C18.6638 1.95167 18.9756 1.63991 19.3587 1.63991C19.742 1.63991 20.0537 1.95172 20.0537 2.33492V5.09628C20.0537 5.14419 20.0488 5.19097 20.0396 5.23616C19.9747 5.55256 19.694 5.7913 19.3587 5.7913C18.9755 5.7913 18.6638 5.47948 18.6638 5.09628V2.33492ZM4.06908 2.33492C4.06908 1.95167 4.38085 1.63991 4.76405 1.63991C5.14725 1.63991 5.45902 1.95172 5.45902 2.33492V5.09628C5.45902 5.47953 5.14721 5.7913 4.76405 5.7913C4.38089 5.7913 4.06908 5.47948 4.06908 5.09628V2.33492ZM1.50947 4.31736H3.36277V5.09623C3.36277 5.86892 3.99136 6.49756 4.76405 6.49756C5.53674 6.49756 6.16533 5.86892 6.16533 5.09623V4.31736H17.9575V5.09623C17.9575 5.86892 18.5862 6.49756 19.3588 6.49756C20.1315 6.49756 20.7601 5.86892 20.7601 5.09623V4.31736H22.6013V7.43347H1.50947V4.31736Z" fill="black"/>
</g>
<defs>
<clipPath id="clip0_6074_15937">
<rect width="24" height="24" fill="white" transform="translate(0.791016 0.882812)"/>
</clipPath>
</defs>
</svg>
