<svg width="16" height="25" viewBox="0 0 16 25" fill="none" xmlns="http://www.w3.org/2000/svg">
<path d="M15.1596 12.5153C15.2453 12.8577 15.1382 13.2431 14.8599 13.5L7.68849 20.6715L4.15622 24.2036C3.79237 24.5889 3.2143 24.6317 2.78623 24.332C2.35809 24.011 2.20816 23.4544 2.44364 22.9834L6.16851 15.5122L0.923799 13.7568C0.581211 13.6498 0.302917 13.3501 0.217288 12.9862C0.131588 12.6437 0.238695 12.2583 0.516989 12.0014L11.2206 1.29775C11.5845 0.912419 12.1625 0.869675 12.5906 1.16931C13.0188 1.49049 13.1687 2.04707 12.9332 2.51796L9.20834 9.9891L14.453 11.7445C14.7957 11.8516 15.074 12.1513 15.1596 12.5153Z" fill="#FDBF00"/>
<path d="M14.8598 13.4999L7.68848 20.6714V4.83002L11.2207 1.29775C11.5846 0.912419 12.1627 0.869675 12.5907 1.16931C13.0189 1.49049 13.1688 2.04707 12.9333 2.51796L9.20846 9.9891L14.4532 11.7445C14.7958 11.8515 15.0741 12.1512 15.1597 12.5152C15.2453 12.8577 15.1381 13.243 14.8598 13.4999Z" fill="#FF9F00"/>
</svg>
