<svg width="25" height="25" viewBox="0 0 25 25" fill="none" xmlns="http://www.w3.org/2000/svg">
<g clip-path="url(#clip0_6102_16345)">
<path d="M18.4173 24.1276C21.7425 24.1276 24.4381 21.432 24.4381 18.1067C24.4381 14.7815 21.7425 12.0859 18.4173 12.0859C15.0921 12.0859 12.3965 14.7815 12.3965 18.1067C12.3965 21.432 15.0921 24.1276 18.4173 24.1276Z" fill="#FFD039"/>
<path d="M18.4167 12.0859C18.2181 12.0859 18.0218 12.0958 17.8281 12.1146C20.8772 12.4105 23.2606 14.9802 23.2606 18.1069C23.2606 21.2336 20.8772 23.8033 17.8281 24.0992C18.0218 24.118 18.2181 24.1278 18.4167 24.1278C21.742 24.1278 24.4377 21.4322 24.4377 18.1068C24.4377 14.7815 21.742 12.0859 18.4167 12.0859Z" fill="#FFAE47"/>
<path d="M20.4072 3.61133V4.74341C20.4072 5.32227 19.9379 5.79153 19.359 5.79153C18.7802 5.79153 18.3109 5.32227 18.3109 4.74341V3.61133H5.81253V4.74341C5.81253 5.32227 5.34327 5.79153 4.76441 5.79153C4.18555 5.79153 3.71628 5.32227 3.71628 4.74341V3.61133H1.14453V20.6799H12.9726C12.6032 19.8996 12.3963 19.0274 12.3963 18.1068C12.3963 14.7815 15.092 12.0858 18.4173 12.0858C20.2275 12.0858 21.8509 12.8848 22.9546 14.1491V3.61133H20.4072Z" fill="#EFE7E4"/>
<path d="M22.954 7.43359H1.15625V8.61072H22.954V7.43359Z" fill="#D8D1D0"/>
<path d="M4.76395 5.7912C4.18509 5.7912 3.71582 5.32194 3.71582 4.74308V1.98172C3.71582 1.40286 4.18509 0.933594 4.76395 0.933594C5.34281 0.933594 5.81207 1.40286 5.81207 1.98172V4.74308C5.81207 5.32194 5.34276 5.7912 4.76395 5.7912Z" fill="#FFD039"/>
<path d="M4.76383 0.933594C4.59442 0.933594 4.43458 0.974047 4.29297 1.04539C4.6353 1.21784 4.87023 1.57227 4.87023 1.98172V4.74308C4.87023 5.15253 4.6353 5.50695 4.29297 5.67941C4.43458 5.75075 4.59442 5.7912 4.76383 5.7912C5.34269 5.7912 5.81195 5.32194 5.81195 4.74308V1.98172C5.81195 1.40286 5.34264 0.933594 4.76383 0.933594Z" fill="#F4B008"/>
<path d="M19.3587 5.7912C18.7798 5.7912 18.3105 5.32194 18.3105 4.74308V1.98172C18.3105 1.40286 18.7798 0.933594 19.3587 0.933594C19.9375 0.933594 20.4068 1.40286 20.4068 1.98172V4.74308C20.4068 5.32194 19.9375 5.7912 19.3587 5.7912Z" fill="#FFD039"/>
<path d="M19.3586 0.933594C19.1891 0.933594 19.0293 0.974 18.8877 1.04539C19.23 1.21784 19.465 1.57227 19.465 1.98172V4.74308C19.465 5.15253 19.23 5.50695 18.8877 5.67941C19.0293 5.75075 19.1891 5.7912 19.3586 5.7912C19.9374 5.7912 20.4067 5.32194 20.4067 4.74308V1.98172C20.4066 1.40286 19.9374 0.933594 19.3586 0.933594Z" fill="#F4B008"/>
<path d="M6.9451 9.81055H4.66992V12.0857H6.9451V9.81055Z" fill="#465A65"/>
<path d="M11.114 9.81055H8.83887V12.0857H11.114V9.81055Z" fill="#465A65"/>
<path d="M15.2835 9.81055H13.0083V12.0857H15.2835V9.81055Z" fill="#465A65"/>
<path d="M19.4529 9.81055H17.1777V12.0857H19.4529V9.81055Z" fill="#465A65"/>
<path d="M6.9451 14.6953H4.66992V16.9705H6.9451V14.6953Z" fill="#465A65"/>
<path d="M11.114 14.6953H8.83887V16.9705H11.114V14.6953Z" fill="#465A65"/>
<path d="M20.4067 3.61133V4.74341C20.4067 5.32227 19.9375 5.79153 19.3586 5.79153C18.7798 5.79153 18.3105 5.32227 18.3105 4.74341V3.61133H5.81211V4.74341C5.81211 5.32227 5.34284 5.79153 4.76398 5.79153C4.18513 5.79153 3.71586 5.32227 3.71586 4.74341V3.61133H1.15625V7.43375H22.9663V3.61133H20.4067Z" fill="#E93234"/>
<path d="M22.9663 6.25781H1.15625V7.43494H22.9663V6.25781Z" fill="#B32425"/>
<path d="M17.5943 20.3936C17.4024 20.3936 17.2182 20.3173 17.0825 20.1817L15.4366 18.5357C15.154 18.2531 15.154 17.7949 15.4366 17.5122C15.7192 17.2296 16.1774 17.2296 16.46 17.5122L17.5942 18.6465L20.3744 15.8663C20.657 15.5837 21.1152 15.5836 21.3978 15.8662C21.6805 16.1488 21.6805 16.6071 21.3978 16.8897L18.106 20.1816C17.9703 20.3173 17.7862 20.3936 17.5943 20.3936Z" fill="#00B76C"/>
<path d="M17.5938 20.7478C17.8814 20.7478 18.1518 20.6358 18.3552 20.4324L21.6471 17.1405C21.8505 16.9372 21.9625 16.6667 21.9625 16.3791C21.9625 16.0915 21.8505 15.821 21.6471 15.6176C21.2273 15.1978 20.5442 15.1978 20.1243 15.6176L17.5938 18.1481L16.7093 17.2635C16.2895 16.8438 15.6063 16.8438 15.1865 17.2635C14.7666 17.6834 14.7666 18.3666 15.1865 18.7865L16.8324 20.4324C17.0357 20.6358 17.3062 20.7478 17.5938 20.7478ZM15.5773 18.025C15.5773 17.926 15.6158 17.833 15.6858 17.763C15.758 17.6908 15.8529 17.6547 15.9478 17.6547C16.0426 17.6547 16.1375 17.6908 16.2098 17.763L17.344 18.8973C17.4102 18.9635 17.5 19.0007 17.5937 19.0007C17.6874 19.0007 17.7772 18.9635 17.8434 18.8973L20.6236 16.1171C20.768 15.9726 21.0031 15.9726 21.1475 16.117C21.2176 16.1871 21.2561 16.2801 21.2561 16.3791C21.2561 16.4781 21.2175 16.5711 21.1476 16.641L17.8556 19.933C17.7856 20.003 17.6926 20.0415 17.5936 20.0415C17.4947 20.0415 17.4016 20.003 17.3317 19.933L15.6857 18.287C15.6159 18.217 15.5773 18.124 15.5773 18.025Z" fill="black"/>
<path d="M23.3074 14.0232V11.2228C23.3074 11.0277 23.1493 10.8696 22.9542 10.8696C22.7592 10.8696 22.6011 11.0277 22.6011 11.2228V13.2983C22.1304 12.8888 21.6049 12.5529 21.0424 12.2985C21.0214 12.289 21.0001 12.2799 20.9789 12.2706C20.9574 12.2611 20.9361 12.2515 20.9145 12.2423C20.8768 12.2262 20.8388 12.2107 20.8007 12.1952C20.7959 12.1933 20.791 12.1912 20.7862 12.1893C20.471 12.0626 20.1435 11.9606 19.806 11.8852V9.81019C19.806 9.61509 19.6479 9.45703 19.4528 9.45703H17.1775C16.9825 9.45703 16.8244 9.61509 16.8244 9.81019V11.9319C15.7246 12.2134 14.717 12.7868 13.8954 13.6135C13.7579 13.7519 13.7586 13.9755 13.8969 14.1129C14.0353 14.2503 14.2589 14.2497 14.3964 14.1114C15.4684 13.0327 16.8962 12.4386 18.4168 12.4386C18.4672 12.4386 18.5175 12.4393 18.5677 12.4406C18.5765 12.4408 18.5852 12.4413 18.594 12.4416C18.636 12.4429 18.678 12.4444 18.7198 12.4466C18.7265 12.447 18.733 12.4475 18.7396 12.4479C18.7841 12.4504 18.8285 12.4533 18.8728 12.4569C18.876 12.4572 18.8792 12.4575 18.8825 12.4577C19.535 12.5115 20.1683 12.6776 20.7562 12.9441C20.7765 12.9533 20.7965 12.9629 20.8166 12.9724C20.8373 12.982 20.858 12.9916 20.8786 13.0016C20.9147 13.0191 20.9507 13.037 20.9865 13.0552C20.99 13.057 20.9935 13.0588 20.997 13.0606C22.8287 14.001 24.0848 15.9098 24.0848 18.1064C24.0848 21.2316 21.5422 23.7742 18.4169 23.7742C15.4873 23.7742 13.0697 21.5401 12.7785 18.6861C12.7783 18.6848 12.7782 18.6834 12.7781 18.6821C12.7736 18.6372 12.7695 18.5921 12.766 18.547C12.7653 18.5373 12.7648 18.5275 12.7641 18.5178C12.7613 18.4799 12.7588 18.4421 12.7568 18.404C12.7557 18.3825 12.755 18.361 12.7542 18.3395C12.753 18.3121 12.7518 18.2848 12.751 18.2573C12.7498 18.2071 12.749 18.1568 12.749 18.1065C12.749 17.0665 13.033 16.0497 13.5704 15.1661C13.6717 14.9994 13.6188 14.7822 13.4521 14.6809C13.2854 14.5795 13.0682 14.6324 12.9669 14.7991C12.3623 15.7934 12.0428 16.9371 12.0428 18.1065C12.0428 18.1589 12.0435 18.2111 12.0447 18.2632C12.045 18.2751 12.0455 18.2871 12.0459 18.299C12.0471 18.3406 12.0486 18.3822 12.0506 18.4237C12.0511 18.4336 12.0517 18.4435 12.0523 18.4535C12.0547 18.499 12.0576 18.5446 12.0609 18.59C12.0613 18.5943 12.0616 18.5987 12.0619 18.6031C12.1072 19.1957 12.2334 19.7724 12.44 20.3265H1.49728V14.6167C1.49728 14.4216 1.33917 14.2635 1.14412 14.2635C0.949078 14.2635 0.791016 14.4216 0.791016 14.6167V20.6796C0.791016 20.8747 0.949125 21.0328 1.14417 21.0328H12.7553C13.8174 23.0791 15.9564 24.4806 18.4169 24.4806C21.9316 24.4806 24.791 21.6211 24.791 18.1065C24.791 16.5542 24.233 15.1299 23.3074 14.0232ZM19.0997 11.7323H17.5307V10.1633H19.0997V11.7323Z" fill="black"/>
<path d="M7.29803 9.81019C7.29803 9.61509 7.13992 9.45703 6.94488 9.45703H4.66956C4.47452 9.45703 4.31641 9.61509 4.31641 9.81019V12.0855C4.31641 12.2805 4.47452 12.4386 4.66956 12.4386H6.94488C7.13992 12.4386 7.29803 12.2805 7.29803 12.0855V9.81019ZM6.59172 11.7323H5.02272V10.1633H6.59177L6.59172 11.7323Z" fill="black"/>
<path d="M11.4675 9.81019C11.4675 9.61509 11.3094 9.45703 11.1143 9.45703H8.839C8.64395 9.45703 8.48584 9.61509 8.48584 9.81019V12.0855C8.48584 12.2805 8.64395 12.4386 8.839 12.4386H11.1143C11.3094 12.4386 11.4675 12.2805 11.4675 12.0855V9.81019ZM10.7612 11.7323H9.19215V10.1633H10.7612V11.7323Z" fill="black"/>
<path d="M13.0084 9.45703C12.8134 9.45703 12.6553 9.61509 12.6553 9.81019V12.0855C12.6553 12.2805 12.8134 12.4386 13.0084 12.4386H15.2837C15.4788 12.4386 15.6369 12.2805 15.6369 12.0855V9.81019C15.6369 9.61509 15.4788 9.45703 15.2837 9.45703H13.0084ZM14.9306 11.7323H13.3616V10.1633H14.9306V11.7323Z" fill="black"/>
<path d="M6.94488 14.3418H4.66956C4.47452 14.3418 4.31641 14.4999 4.31641 14.695V16.9703C4.31641 17.1654 4.47452 17.3234 4.66956 17.3234H6.94488C7.13992 17.3234 7.29803 17.1654 7.29803 16.9703V14.695C7.29803 14.4999 7.13992 14.3418 6.94488 14.3418ZM6.59172 16.6171H5.02272V15.0481H6.59177L6.59172 16.6171Z" fill="black"/>
<path d="M11.1143 14.3418H8.839C8.64395 14.3418 8.48584 14.4999 8.48584 14.695V16.9703C8.48584 17.1654 8.64395 17.3234 8.839 17.3234H11.1143C11.3094 17.3234 11.4675 17.1654 11.4675 16.9703V14.695C11.4674 14.4999 11.3094 14.3418 11.1143 14.3418ZM10.7612 16.6171H9.19211V15.0481H10.7612V16.6171Z" fill="black"/>
<path d="M1.14417 13.5589C1.33922 13.5589 1.49733 13.4007 1.49733 13.2057V7.78822H22.6012V9.81181C22.6012 10.0069 22.7593 10.165 22.9543 10.165C23.1494 10.165 23.3075 10.0069 23.3075 9.81181V7.52567C23.3152 7.4967 23.3196 7.46647 23.3196 7.43511V3.61269C23.3196 3.41759 23.1615 3.25953 22.9665 3.25953H22.9543H20.7601V1.98336C20.7601 1.21067 20.1314 0.582031 19.3588 0.582031C18.5861 0.582031 17.9575 1.21067 17.9575 1.98336V3.25958H6.16533V1.98336C6.16533 1.21067 5.53669 0.582031 4.76405 0.582031C3.99141 0.582031 3.36277 1.21067 3.36277 1.98336V3.25958H1.15631H1.14417C0.949125 3.25958 0.791016 3.41764 0.791016 3.61269V13.2057C0.791016 13.4008 0.949125 13.5589 1.14417 13.5589ZM18.6638 1.98336C18.6638 1.60011 18.9756 1.28834 19.3587 1.28834C19.742 1.28834 20.0537 1.60016 20.0537 1.98336V4.74472C20.0537 4.79262 20.0488 4.83941 20.0396 4.88459C19.9747 5.201 19.694 5.43973 19.3587 5.43973C18.9755 5.43973 18.6638 5.12792 18.6638 4.74472V1.98336ZM4.06908 1.98336C4.06908 1.60011 4.38085 1.28834 4.76405 1.28834C5.14725 1.28834 5.45902 1.60016 5.45902 1.98336V4.74472C5.45902 5.12797 5.14721 5.43973 4.76405 5.43973C4.38089 5.43973 4.06908 5.12792 4.06908 4.74472V1.98336ZM1.50947 3.9658H3.36277V4.74467C3.36277 5.51736 3.99136 6.146 4.76405 6.146C5.53674 6.146 6.16533 5.51736 6.16533 4.74467V3.9658H17.9575V4.74467C17.9575 5.51736 18.5862 6.146 19.3588 6.146C20.1315 6.146 20.7601 5.51736 20.7601 4.74467V3.9658H22.6013V7.08191H1.50947V3.9658Z" fill="black"/>
</g>
<defs>
<clipPath id="clip0_6102_16345">
<rect width="24" height="24" fill="white" transform="translate(0.791016 0.53125)"/>
</clipPath>
</defs>
</svg>
