<svg width="16" height="24" viewBox="0 0 16 24" fill="none" xmlns="http://www.w3.org/2000/svg">
<path d="M15.1596 11.8669C15.2453 12.2093 15.1382 12.5946 14.8599 12.8515L7.68849 20.023L4.15622 23.5551C3.79237 23.9405 3.2143 23.9833 2.78623 23.6836C2.35809 23.3626 2.20816 22.806 2.44364 22.3349L6.16851 14.8638L0.923799 13.1084C0.581211 13.0014 0.302917 12.7017 0.217288 12.3377C0.131588 11.9953 0.238695 11.6098 0.516989 11.3529L11.2206 0.649312C11.5845 0.263981 12.1625 0.221238 12.5906 0.520868C13.0188 0.842048 13.1687 1.39864 12.9332 1.86953L9.20834 9.34066L14.453 11.0961C14.7957 11.2032 15.074 11.5029 15.1596 11.8669Z" fill="#FDBF00"/>
<path d="M14.8598 12.8514L7.68848 20.023V4.18158L11.2207 0.649312C11.5846 0.263981 12.1627 0.221238 12.5907 0.520868C13.0189 0.842048 13.1688 1.39864 12.9333 1.86953L9.20846 9.34066L14.4532 11.0961C14.7958 11.2031 15.0741 11.5028 15.1597 11.8668C15.2453 12.2093 15.1381 12.5946 14.8598 12.8514Z" fill="#FF9F00"/>
</svg>
