<svg width="24" height="24" viewBox="0 0 24 24" fill="none" xmlns="http://www.w3.org/2000/svg">
<g clip-path="url(#clip0_6074_15968)">
<path d="M20.2729 6.60742L15.5562 5.25977L14.2085 0.542969H4.7749C3.65846 0.542969 2.75342 1.44801 2.75342 2.56445V21.5215C2.75342 22.6379 3.65846 23.543 4.7749 23.543H18.2515C19.3679 23.543 20.2729 22.6379 20.2729 21.5215V6.60742Z" fill="#734BBD"/>
<path d="M6.12256 12.7168C6.4947 12.7168 6.79639 12.4151 6.79639 12.043C6.79639 11.6708 6.4947 11.3691 6.12256 11.3691C5.75041 11.3691 5.44873 11.6708 5.44873 12.043C5.44873 12.4151 5.75041 12.7168 6.12256 12.7168Z" fill="#FFF5F5"/>
<path d="M6.12256 15.4121C6.4947 15.4121 6.79639 15.1104 6.79639 14.7383C6.79639 14.3661 6.4947 14.0645 6.12256 14.0645C5.75041 14.0645 5.44873 14.3661 5.44873 14.7383C5.44873 15.1104 5.75041 15.4121 6.12256 15.4121Z" fill="#FFF5F5"/>
<path d="M6.12256 18.1074C6.4947 18.1074 6.79639 17.8057 6.79639 17.4336C6.79639 17.0614 6.4947 16.7598 6.12256 16.7598C5.75041 16.7598 5.44873 17.0614 5.44873 17.4336C5.44873 17.8057 5.75041 18.1074 6.12256 18.1074Z" fill="#FFF5F5"/>
<path d="M20.2729 6.60742V21.5215C20.2729 22.6379 19.3679 23.543 18.2515 23.543H11.5132V0.542969H14.2085L15.5562 5.25977L20.2729 6.60742Z" fill="#5F45A9"/>
<path d="M15.5562 12.7168H8.81787C8.44542 12.7168 8.14404 12.4154 8.14404 12.043C8.14404 11.6705 8.44542 11.3691 8.81787 11.3691H15.5562C15.9286 11.3691 16.23 11.6705 16.23 12.043C16.23 12.4154 15.9286 12.7168 15.5562 12.7168Z" fill="#FFF5F5"/>
<path d="M15.5562 15.4121H8.81787C8.44542 15.4121 8.14404 15.1107 8.14404 14.7383C8.14404 14.3658 8.44542 14.0645 8.81787 14.0645H15.5562C15.9286 14.0645 16.23 14.3658 16.23 14.7383C16.23 15.1107 15.9286 15.4121 15.5562 15.4121Z" fill="#FFF5F5"/>
<path d="M15.5562 18.1074H8.81787C8.44542 18.1074 8.14404 17.806 8.14404 17.4336C8.14404 17.0611 8.44542 16.7598 8.81787 16.7598H15.5562C15.9286 16.7598 16.23 17.0611 16.23 17.4336C16.23 17.806 15.9286 18.1074 15.5562 18.1074Z" fill="#FFF5F5"/>
<path d="M11.5132 18.1074H15.5562C15.9286 18.1074 16.23 17.806 16.23 17.4336C16.23 17.0611 15.9286 16.7598 15.5562 16.7598H11.5132V18.1074Z" fill="#E3E7EA"/>
<path d="M11.5132 15.4121H15.5562C15.9286 15.4121 16.23 15.1107 16.23 14.7383C16.23 14.3658 15.9286 14.0645 15.5562 14.0645H11.5132V15.4121Z" fill="#E3E7EA"/>
<path d="M11.5132 12.7168H15.5562C15.9286 12.7168 16.23 12.4154 16.23 12.043C16.23 11.6705 15.9286 11.3691 15.5562 11.3691H11.5132V12.7168Z" fill="#E3E7EA"/>
<path d="M20.2729 6.60742H15.5562C14.8149 6.60742 14.2085 6.00098 14.2085 5.25977V0.542969C14.3837 0.542969 14.5589 0.610352 14.6801 0.745162L20.0708 6.13579C20.2056 6.25703 20.2729 6.43223 20.2729 6.60742Z" fill="#9B7ED0"/>
</g>
<defs>
<clipPath id="clip0_6074_15968">
<rect width="23" height="23" fill="white" transform="translate(0.0131836 0.542969)"/>
</clipPath>
</defs>
</svg>
