<svg width="23" height="23" viewBox="0 0 23 23" fill="none" xmlns="http://www.w3.org/2000/svg">
<g clip-path="url(#clip0_6074_16413)">
<path d="M12.2515 1.61719H2.62646C1.86707 1.61719 1.25146 2.2328 1.25146 2.99219V18.8047C1.25146 19.5641 1.86707 20.1797 2.62646 20.1797H12.2515C13.0109 20.1797 13.6265 19.5641 13.6265 18.8047V2.99219C13.6265 2.2328 13.0109 1.61719 12.2515 1.61719Z" fill="#6D6E71"/>
<path d="M12.2515 20.1797H2.62646C2.26179 20.1797 1.91206 20.0348 1.65419 19.777C1.39633 19.5191 1.25146 19.1694 1.25146 18.8047V20.1797C1.25146 20.5444 1.39633 20.8941 1.65419 21.152C1.91206 21.4098 2.26179 21.5547 2.62646 21.5547H12.2515C12.6161 21.5547 12.9659 21.4098 13.2237 21.152C13.4816 20.8941 13.6265 20.5444 13.6265 20.1797V19.1484C13.6103 19.1484 13.5945 19.1484 13.5783 19.1484C13.5028 19.4431 13.3314 19.7043 13.0912 19.8909C12.851 20.0776 12.5557 20.1792 12.2515 20.1797Z" fill="#414042"/>
<path d="M12.5952 3.33594C12.5947 3.15377 12.5221 2.97922 12.3932 2.8504C12.2644 2.72159 12.0899 2.64898 11.9077 2.64844H10.1615C10.072 2.65101 9.98395 2.67122 9.90233 2.70791C9.8207 2.74459 9.74712 2.79703 9.6858 2.86221C9.62449 2.92739 9.57664 3.00403 9.54501 3.08774C9.51337 3.17146 9.49858 3.26059 9.50146 3.35003C9.49778 3.52991 9.42372 3.70118 9.29519 3.82708C9.16665 3.95298 8.99389 4.02348 8.81396 4.02344H6.03681C5.94733 4.0209 5.85923 4.00073 5.77756 3.96406C5.6959 3.9274 5.62228 3.87497 5.56093 3.80979C5.49957 3.7446 5.4517 3.66794 5.42004 3.58421C5.38839 3.50047 5.37358 3.41131 5.37646 3.32184C5.37278 3.14196 5.29872 2.97069 5.17018 2.84479C5.04165 2.71889 4.86889 2.6484 4.68896 2.64844H2.97021C2.78805 2.64898 2.61349 2.72159 2.48468 2.8504C2.35587 2.97922 2.28326 3.15377 2.28271 3.33594V17.4297C2.28326 17.6119 2.35587 17.7864 2.48468 17.9152C2.61349 18.044 2.78805 18.1166 2.97021 18.1172H11.9077C12.0901 18.1172 12.2649 18.0448 12.3939 17.9158C12.5228 17.7869 12.5952 17.612 12.5952 17.4297V3.33594Z" fill="#FFCD00"/>
<path d="M12.5952 3.33594C12.5947 3.15377 12.5221 2.97922 12.3932 2.8504C12.2644 2.72159 12.0899 2.64898 11.9077 2.64844H10.1615C10.072 2.65101 9.98395 2.67122 9.90233 2.70791C9.8207 2.74459 9.74712 2.79703 9.6858 2.86221C9.62449 2.92739 9.57664 3.00403 9.54501 3.08774C9.51337 3.17146 9.49858 3.26059 9.50146 3.35003C9.49778 3.52991 9.42372 3.70118 9.29519 3.82708C9.16665 3.95298 8.99389 4.02348 8.81396 4.02344H6.03681C5.94733 4.0209 5.85923 4.00073 5.77756 3.96406C5.6959 3.9274 5.62228 3.87497 5.56093 3.80979C5.49957 3.7446 5.4517 3.66794 5.42004 3.58421C5.38839 3.50047 5.37358 3.41131 5.37646 3.32184C5.37278 3.14196 5.29872 2.97069 5.17018 2.84479C5.04165 2.71889 4.86889 2.6484 4.68896 2.64844H2.97021C2.78805 2.64898 2.61349 2.72159 2.48468 2.8504C2.35587 2.97922 2.28326 3.15377 2.28271 3.33594V16.3895L12.5952 3.43287V3.33594Z" fill="#FFDA44"/>
<path d="M21.1892 11.5859C21.1892 12.5791 20.9936 13.5625 20.6135 14.48C20.2334 15.3975 19.6764 16.2312 18.9742 16.9334C18.2719 17.6357 17.4382 18.1927 16.5207 18.5728C15.6032 18.9528 14.6198 19.1484 13.6267 19.1484H13.5785C11.6682 19.1339 9.83412 18.3968 8.44492 17.0854C7.05572 15.774 6.21433 13.9854 6.08982 12.079C5.96531 10.1727 6.56692 8.28983 7.77374 6.80887C8.98057 5.3279 10.7032 4.35856 12.5954 4.09563C12.9372 4.04887 13.2817 4.02476 13.6267 4.02344C14.6198 4.02344 15.6032 4.21905 16.5207 4.5991C17.4382 4.97915 18.2719 5.5362 18.9742 6.23844C19.6764 6.94069 20.2334 7.77437 20.6135 8.69189C20.9936 9.60942 21.1892 10.5928 21.1892 11.5859Z" fill="#D1E7F8"/>
<path d="M15.0015 9.52344V7.46094H10.8765V15.7109H17.064V9.52344H15.0015Z" fill="#FF9478"/>
<path d="M15.0015 9.52344H17.064L15.0015 7.46094V9.52344Z" fill="#ED1C24"/>
<path d="M10.5327 7.46094V15.7109C10.5327 15.8021 10.5689 15.8895 10.6334 15.954C10.6979 16.0185 10.7853 16.0547 10.8765 16.0547H17.064C17.1551 16.0547 17.2426 16.0185 17.307 15.954C17.3715 15.8895 17.4077 15.8021 17.4077 15.7109V9.52344C17.4077 9.43228 17.3715 9.34486 17.307 9.28041L15.2445 7.21791C15.18 7.15344 15.0926 7.11721 15.0015 7.11719H10.8765C10.7853 7.11719 10.6979 7.1534 10.6334 7.21787C10.5689 7.28233 10.5327 7.36977 10.5327 7.46094ZM15.3452 8.29075L16.2342 9.17969H15.3452V8.29075ZM11.2202 7.80469H14.6577V9.52344C14.6577 9.61461 14.6939 9.70204 14.7584 9.76651C14.8229 9.83097 14.9103 9.86719 15.0015 9.86719H16.7202V15.3672H11.2202V7.80469Z" fill="#231F20"/>
<path d="M11.9077 10.5547H12.5952V11.2422H11.9077V10.5547Z" fill="#231F20"/>
<path d="M13.2827 10.5547H16.0327V11.2422H13.2827V10.5547Z" fill="#231F20"/>
<path d="M11.9077 11.9297H12.5952V12.6172H11.9077V11.9297Z" fill="#231F20"/>
<path d="M13.2827 11.9297H16.0327V12.6172H13.2827V11.9297Z" fill="#231F20"/>
<path d="M11.9077 13.3047H12.5952V13.9922H11.9077V13.3047Z" fill="#231F20"/>
<path d="M13.2827 13.3047H16.0327V13.9922H13.2827V13.3047Z" fill="#231F20"/>
<path d="M6.40771 2.64844H7.09521V3.33594H6.40771V2.64844Z" fill="#231F20"/>
<path d="M7.78271 2.64844H8.47021V3.33594H7.78271V2.64844Z" fill="#231F20"/>
<path d="M21.5327 11.5859C21.5302 9.54943 20.7429 7.59224 19.3344 6.12134C17.9259 4.65044 16.0047 3.77902 13.9702 3.68828V2.99219C13.9697 2.53651 13.7884 2.09966 13.4662 1.77745C13.144 1.45524 12.7071 1.27398 12.2515 1.27344H2.62646C2.17079 1.27398 1.73394 1.45524 1.41173 1.77745C1.08952 2.09966 0.908261 2.53651 0.907715 2.99219V20.1797C0.908261 20.6354 1.08952 21.0722 1.41173 21.3944C1.73394 21.7166 2.17079 21.8979 2.62646 21.8984H12.2515C12.7071 21.8979 13.144 21.7166 13.4662 21.3944C13.7884 21.0722 13.9697 20.6354 13.9702 20.1797V19.4836C16.0047 19.3929 17.9259 18.5214 19.3344 17.0505C20.7429 15.5796 21.5302 13.6224 21.5327 11.5859ZM20.8452 11.5859C20.8452 13.0137 20.4218 14.4093 19.6286 15.5965C18.8354 16.7836 17.708 17.7088 16.389 18.2552C15.0699 18.8016 13.6185 18.9445 12.2182 18.666C10.8179 18.3874 9.5316 17.6999 8.52204 16.6904C7.51248 15.6808 6.82496 14.3945 6.54642 12.9942C6.26788 11.5939 6.41084 10.1425 6.95721 8.82344C7.50358 7.50439 8.42882 6.37697 9.61594 5.58377C10.8031 4.79056 12.1987 4.36719 13.6265 4.36719C15.5404 4.36928 17.3753 5.1305 18.7286 6.48382C20.0819 7.83715 20.8431 9.67205 20.8452 11.5859ZM12.2515 3.80172C10.7517 4.0656 9.36013 4.75732 8.24431 5.79363C7.12848 6.82993 6.33595 8.16665 5.96211 9.64287C5.58827 11.1191 5.64906 12.6719 6.13715 14.1144C6.62524 15.5569 7.51983 16.8275 8.71325 17.7734H2.97021C2.87905 17.7734 2.79161 17.7372 2.72715 17.6728C2.66268 17.6083 2.62646 17.5209 2.62646 17.4297V3.33594C2.62646 3.24477 2.66268 3.15734 2.72715 3.09287C2.79161 3.0284 2.87905 2.99219 2.97021 2.99219H4.68896C4.78013 2.99219 4.86757 3.0284 4.93203 3.09287C4.9965 3.15734 5.03271 3.24477 5.03271 3.33594C5.03271 3.60944 5.14136 3.87174 5.33476 4.06514C5.52816 4.25854 5.79046 4.36719 6.06396 4.36719H8.81396C9.08747 4.36719 9.34977 4.25854 9.54317 4.06514C9.73657 3.87174 9.84521 3.60944 9.84521 3.33594C9.84521 3.24477 9.88143 3.15734 9.9459 3.09287C10.0104 3.0284 10.0978 2.99219 10.189 2.99219H11.9077C11.9989 2.99219 12.0863 3.0284 12.1508 3.09287C12.2152 3.15734 12.2515 3.24477 12.2515 3.33594V3.80172ZM1.59521 2.99219C1.59521 2.71868 1.70386 2.45638 1.89726 2.26298C2.09066 2.06959 2.35296 1.96094 2.62646 1.96094H12.2515C12.525 1.96094 12.7873 2.06959 12.9807 2.26298C13.1741 2.45638 13.2827 2.71868 13.2827 2.99219V3.68828C13.1676 3.69344 13.0531 3.70169 12.939 3.71131V3.33594C12.939 3.06243 12.8303 2.80013 12.6369 2.60673C12.4435 2.41334 12.1812 2.30469 11.9077 2.30469H10.189C9.91546 2.30469 9.65316 2.41334 9.45976 2.60673C9.26636 2.80013 9.15771 3.06243 9.15771 3.33594C9.15771 3.42711 9.1215 3.51454 9.05703 3.57901C8.99257 3.64347 8.90513 3.67969 8.81396 3.67969H6.06396C5.9728 3.67969 5.88536 3.64347 5.8209 3.57901C5.75643 3.51454 5.72021 3.42711 5.72021 3.33594C5.72021 3.06243 5.61157 2.80013 5.41817 2.60673C5.22477 2.41334 4.96247 2.30469 4.68896 2.30469H2.97021C2.69671 2.30469 2.43441 2.41334 2.24101 2.60673C2.04761 2.80013 1.93896 3.06243 1.93896 3.33594V17.4297C1.93896 17.7032 2.04761 17.9655 2.24101 18.1589C2.43441 18.3523 2.69671 18.4609 2.97021 18.4609H9.72971C10.7439 19.0384 11.874 19.3825 13.038 19.4681C12.9417 19.5832 12.8214 19.6757 12.6855 19.7393C12.5496 19.8028 12.4015 19.8358 12.2515 19.8359H2.62646C2.35296 19.8359 2.09066 19.7273 1.89726 19.5339C1.70386 19.3405 1.59521 19.0782 1.59521 18.8047V2.99219ZM12.2515 21.2109H2.62646C2.35296 21.2109 2.09066 21.1023 1.89726 20.9089C1.70386 20.7155 1.59521 20.4532 1.59521 20.1797V20.1707C1.89097 20.3982 2.25333 20.5222 2.62646 20.5234H12.2515C12.6234 20.5238 12.9854 20.4031 13.2827 20.1797C13.2827 20.4532 13.1741 20.7155 12.9807 20.9089C12.7873 21.1023 12.525 21.2109 12.2515 21.2109Z" fill="#231F20"/>
<path d="M13.2827 5.05469H13.9702V5.74219H13.2827V5.05469Z" fill="#231F20"/>
<path d="M16.2515 6.35547L16.5952 5.76009L17.1906 6.10384L16.8468 6.69922L16.2515 6.35547Z" fill="#231F20"/>
<path d="M18.5151 8.36328L19.1105 8.01953L19.4543 8.61491L18.8589 8.95866L18.5151 8.36328Z" fill="#231F20"/>
<path d="M19.4702 11.2422H20.1577V11.9297H19.4702V11.2422Z" fill="#231F20"/>
<path d="M18.5146 14.8047L18.8584 14.2093L19.4538 14.5531L19.11 15.1484L18.5146 14.8047Z" fill="#231F20"/>
<path d="M16.25 16.8184L16.8454 16.4746L17.1891 17.07L16.5938 17.4137L16.25 16.8184Z" fill="#231F20"/>
<path d="M13.2827 17.4297H13.9702V18.1172H13.2827V17.4297Z" fill="#231F20"/>
<path d="M10.0625 17.0723L10.4062 16.4769L11.0016 16.8206L10.6579 17.416L10.0625 17.0723Z" fill="#231F20"/>
<path d="M7.79883 14.5527L8.3942 14.209L8.73795 14.8044L8.14258 15.1481L7.79883 14.5527Z" fill="#231F20"/>
<path d="M7.09521 11.2422H7.78271V11.9297H7.09521V11.2422Z" fill="#231F20"/>
<path d="M7.79785 8.61719L8.1416 8.02181L8.73698 8.36556L8.39323 8.96094L7.79785 8.61719Z" fill="#231F20"/>
<path d="M10.063 6.10156L10.6584 5.75781L11.0021 6.35319L10.4067 6.69694L10.063 6.10156Z" fill="#231F20"/>
<path d="M19.814 18.4609H19.1265V19.1484H18.439V19.8359H19.1265V20.5234H19.814V19.8359H20.5015V19.1484H19.814V18.4609Z" fill="#231F20"/>
<path d="M18.439 21.2109H20.5015V21.8984H18.439V21.2109Z" fill="#231F20"/>
<path d="M6.40771 18.8047H8.47021V19.4922H6.40771V18.8047Z" fill="#231F20"/>
</g>
<defs>
<clipPath id="clip0_6074_16413">
<rect width="22" height="22" fill="white" transform="translate(0.220215 0.585938)"/>
</clipPath>
</defs>
</svg>
