<svg width="23" height="23" viewBox="0 0 23 23" fill="none" xmlns="http://www.w3.org/2000/svg">
<g clip-path="url(#clip0_6074_16385)">
<path d="M16.7774 2.8337C16.7774 1.90187 17.5328 1.14648 18.4646 1.14648H5.33198C4.59094 1.14648 3.99023 1.74719 3.99023 2.48823V17.7673H16.7774V5.38028V2.8337Z" fill="#FFE07D"/>
<path d="M17.4459 1.14648C16.5141 1.14648 15.7587 1.90188 15.7587 2.8337V4.52091V5.38028V9.52457C15.7587 9.91825 15.5001 10.2684 15.1212 10.3753C12.3272 11.1631 10.2793 13.7306 10.2793 16.7767C10.2793 17.5775 10.4209 18.3452 10.6803 19.0563H15.7587H16.7773V5.38032V2.83374C16.7773 1.90192 17.5327 1.14653 18.4645 1.14653L17.4459 1.14648Z" fill="#FFD064"/>
<path d="M15.2359 19.057H3.67793C2.36051 19.057 1.29248 17.989 1.29248 16.6715V16.0469H15.2358V19.057H15.2359Z" fill="#EAB14D"/>
<path d="M10.2793 16.7773C10.2793 17.5782 10.4209 18.3459 10.6803 19.057H15.2358V16.0469H10.3194C10.2932 16.2868 10.2793 16.5304 10.2793 16.7773Z" fill="#E49542"/>
<path d="M16.9302 22.4942C20.0881 22.4942 22.648 19.9343 22.648 16.7764C22.648 13.6185 20.0881 11.0586 16.9302 11.0586C13.7724 11.0586 11.2124 13.6185 11.2124 16.7764C11.2124 19.9343 13.7724 22.4942 16.9302 22.4942Z" fill="#DD636E"/>
<path d="M16.9304 11.0586C16.7788 11.0586 16.6286 11.0646 16.48 11.0762C19.4273 11.3059 21.7474 13.7701 21.7474 16.7764C21.7474 19.7827 19.4273 22.2469 16.48 22.4766C16.6287 22.4882 16.7788 22.4942 16.9304 22.4942C20.0883 22.4942 22.6482 19.9343 22.6482 16.7764C22.6482 13.6185 20.0882 11.0586 16.9304 11.0586Z" fill="#DA4A54"/>
<path d="M16.9299 21.0414C19.2853 21.0414 21.1948 19.132 21.1948 16.7766C21.1948 14.4212 19.2853 12.5117 16.9299 12.5117C14.5745 12.5117 12.665 14.4212 12.665 16.7766C12.665 19.132 14.5745 21.0414 16.9299 21.0414Z" fill="#F4FBFF"/>
<path d="M16.9301 12.5117C16.7325 12.5117 16.5381 12.5255 16.3477 12.5515C18.4275 12.8355 20.0301 14.6188 20.0301 16.7766C20.0301 18.9344 18.4275 20.7176 16.3477 21.0017C16.5381 21.0277 16.7325 21.0414 16.9301 21.0414C19.2856 21.0414 21.195 19.132 21.195 16.7766C21.195 14.4212 19.2856 12.5117 16.9301 12.5117Z" fill="#DAF1F4"/>
<path d="M19.8515 5.38028H16.7773V2.8337C16.7773 1.90187 17.5327 1.14648 18.4646 1.14648C19.3964 1.14648 20.1518 1.90187 20.1518 2.8337V5.07997C20.1518 5.24583 20.0173 5.38028 19.8515 5.38028Z" fill="#EAB14D"/>
<path d="M19.0142 1.23857C18.8418 1.17918 18.6571 1.14648 18.4646 1.14648C17.5327 1.14648 16.7773 1.90188 16.7773 2.8337V5.38028H17.8766V2.83374C17.8766 2.09442 18.3523 1.4666 19.0142 1.23857Z" fill="#E49542"/>
<path d="M14.7383 3.41211H6.28516C6.10714 3.41211 5.96289 3.55636 5.96289 3.73438C5.96289 3.91239 6.10714 4.05664 6.28516 4.05664H14.7383C14.9163 4.05664 15.0605 3.91239 15.0605 3.73438C15.0605 3.55636 14.9163 3.41211 14.7383 3.41211Z" fill="black"/>
<path d="M14.7383 6.625H6.28516C6.10714 6.625 5.96289 6.76925 5.96289 6.94727C5.96289 7.12529 6.10714 7.26953 6.28516 7.26953H14.7383C14.9163 7.26953 15.0605 7.12529 15.0605 6.94727C15.0605 6.76925 14.9163 6.625 14.7383 6.625Z" fill="black"/>
<path d="M14.7383 9.83984H6.28516C6.10714 9.83984 5.96289 9.98409 5.96289 10.1621C5.96289 10.3401 6.10714 10.4844 6.28516 10.4844H14.7383C14.9163 10.4844 15.0605 10.3401 15.0605 10.1621C15.0605 9.98409 14.9163 9.83984 14.7383 9.83984Z" fill="black"/>
<path d="M16.9304 12.1895C14.401 12.1895 12.3433 14.2472 12.3433 16.7766C12.3433 19.3059 14.401 21.3638 16.9304 21.3638C19.4598 21.3638 21.5175 19.3059 21.5175 16.7766C21.5175 14.2472 19.4597 12.1895 16.9304 12.1895ZM16.9304 20.7192C14.7564 20.7192 12.9878 18.9506 12.9878 16.7766C12.9878 14.6026 14.7564 12.834 16.9304 12.834C19.1044 12.834 20.873 14.6026 20.873 16.7766C20.873 18.9506 19.1043 20.7192 16.9304 20.7192Z" fill="black"/>
<path d="M16.9302 14.1476C17.1082 14.1476 17.2524 14.0034 17.2524 13.8254V13.6777C17.2524 13.4997 17.1082 13.3555 16.9302 13.3555C16.7522 13.3555 16.6079 13.4997 16.6079 13.6777V13.8254C16.6079 14.0034 16.7522 14.1476 16.9302 14.1476Z" fill="black"/>
<path d="M18.8942 14.356L18.7898 14.4604C18.6639 14.5863 18.6638 14.7903 18.7896 14.9161C18.9154 15.042 19.1194 15.0422 19.2454 14.9163L19.3498 14.8119C19.4757 14.686 19.4757 14.482 19.3499 14.3562C19.2241 14.2302 19.02 14.2303 18.8942 14.356Z" fill="black"/>
<path d="M19.5601 16.7773C19.5601 16.9554 19.7043 17.0996 19.8823 17.0996H20.03C20.208 17.0996 20.3522 16.9554 20.3522 16.7773C20.3522 16.5993 20.208 16.4551 20.03 16.4551H19.8823C19.7043 16.4551 19.5601 16.5994 19.5601 16.7773Z" fill="black"/>
<path d="M13.9777 16.4551H13.8301C13.6521 16.4551 13.5078 16.5993 13.5078 16.7773C13.5078 16.9554 13.6521 17.0996 13.8301 17.0996H13.9777C14.1557 17.0996 14.3 16.9554 14.3 16.7773C14.3 16.5993 14.1557 16.4551 13.9777 16.4551Z" fill="black"/>
<path d="M19.2454 18.6374C19.1195 18.5115 18.9154 18.5115 18.7896 18.6375C18.6638 18.7633 18.6639 18.9674 18.7898 19.0932L18.8942 19.1976C19.0199 19.3233 19.2241 19.3234 19.3499 19.1975C19.4757 19.0716 19.4757 18.8675 19.3498 18.7417L19.2454 18.6374Z" fill="black"/>
<path d="M16.9302 19.4062C16.7522 19.4062 16.6079 19.5505 16.6079 19.7285V19.8762C16.6079 20.0542 16.7522 20.1984 16.9302 20.1984C17.1082 20.1984 17.2524 20.0542 17.2524 19.8762V19.7285C17.2524 19.5505 17.1082 19.4062 16.9302 19.4062Z" fill="black"/>
<path d="M14.6148 18.6373L14.5104 18.7417C14.3846 18.8676 14.3846 19.0716 14.5104 19.1974C14.6363 19.3233 14.8403 19.3232 14.9662 19.1974L15.0705 19.0931C15.1964 18.9672 15.1964 18.7632 15.0705 18.6373C14.9447 18.5115 14.7407 18.5115 14.6148 18.6373Z" fill="black"/>
<path d="M14.9662 14.3561C14.8403 14.2303 14.6363 14.2303 14.5104 14.3561C14.3846 14.482 14.3846 14.686 14.5104 14.8118L14.6148 14.9162C14.7407 15.0421 14.9447 15.042 15.0705 14.9162C15.1964 14.7903 15.1964 14.5863 15.0705 14.4604L14.9662 14.3561Z" fill="black"/>
<path d="M17.8085 16.4548H17.2524V15.0762C17.2524 14.8982 17.1082 14.7539 16.9302 14.7539C16.7522 14.7539 16.6079 14.8982 16.6079 15.0762V16.777C16.6079 16.9551 16.7522 17.0993 16.9302 17.0993H17.8085C17.9866 17.0993 18.1308 16.9551 18.1308 16.777C18.1308 16.599 17.9866 16.4548 17.8085 16.4548Z" fill="black"/>
<path d="M21.8324 13.2481C21.7283 13.1037 21.5269 13.0712 21.3825 13.1752C21.2382 13.2793 21.2055 13.4807 21.3096 13.6251C21.9743 14.547 22.3257 15.6368 22.3257 16.7767C22.3257 19.7518 19.9053 22.1723 16.9302 22.1723C13.9551 22.1723 11.5346 19.7518 11.5346 16.7767C11.5346 13.8016 13.9551 11.3812 16.9302 11.3812C18.242 11.3812 19.5067 11.8579 20.4911 12.7236C20.6247 12.8409 20.8284 12.828 20.946 12.6943C21.0634 12.5607 21.0504 12.357 20.9167 12.2395C19.857 11.3077 18.5074 10.7787 17.0997 10.7393V5.70259H19.8515C20.1948 5.70259 20.4741 5.42329 20.4741 5.08002V2.83374C20.4741 1.70147 19.5362 0.824219 18.4977 0.824219H10.9236C10.7456 0.824219 10.6014 0.968465 10.6014 1.14648C10.6014 1.3245 10.7456 1.46875 10.9236 1.46875H16.9916C16.659 1.82745 16.4551 2.30711 16.4551 2.83374V10.7553C14.7225 10.8907 13.1928 11.7604 12.1779 13.0526H6.28506C6.10704 13.0526 5.9628 13.1969 5.9628 13.3749C5.9628 13.5529 6.10704 13.6971 6.28506 13.6971H11.7361C11.3706 14.3113 11.1107 14.9952 10.9821 15.724H4.3125V2.48823C4.3125 1.92611 4.76986 1.46875 5.33197 1.46875H9.63512C9.81314 1.46875 9.95739 1.3245 9.95739 1.14648C9.95739 0.968465 9.81314 0.824219 9.63512 0.824219H5.33197C4.41442 0.824219 3.66796 1.57067 3.66796 2.48823V15.724H1.29248C1.11446 15.724 0.970215 15.8682 0.970215 16.0462V16.6709C0.970215 18.1639 2.18494 19.3786 3.67798 19.3786H4.71584C4.89386 19.3786 5.03811 19.2344 5.03811 19.0563C5.03811 18.8783 4.89386 18.7341 4.71584 18.7341H3.67798C2.54029 18.7341 1.61475 17.8085 1.61475 16.6709V16.3685H10.9042C10.8951 16.5035 10.8901 16.6395 10.8901 16.7767C10.8901 17.4615 11.0048 18.1199 11.2158 18.7341H6.00435C5.82633 18.7341 5.68208 18.8783 5.68208 19.0563C5.68208 19.2344 5.82633 19.3786 6.00435 19.3786H11.4799C12.4537 21.4103 14.5307 22.8168 16.9301 22.8168C20.2606 22.8168 22.9702 20.1072 22.9702 16.7768C22.9702 15.5007 22.5768 14.2805 21.8324 13.2481ZM19.8295 2.83374V5.05806H17.0997V2.83374C17.0997 2.08105 17.712 1.46875 18.4646 1.46875C19.2172 1.46875 19.8295 2.08105 19.8295 2.83374Z" fill="black"/>
</g>
<defs>
<clipPath id="clip0_6074_16385">
<rect width="22" height="22" fill="white" transform="translate(0.970215 0.820312)"/>
</clipPath>
</defs>
</svg>
