<svg width="23" height="23" viewBox="0 0 23 23" fill="none" xmlns="http://www.w3.org/2000/svg">
<g clip-path="url(#clip0_6074_16332)">
<path d="M18.3635 7.79771C17.8349 8.16437 17.2221 8.39118 16.5824 8.45728C16.4498 8.47084 16.3166 8.47763 16.1834 8.47763C14.2882 8.4778 12.6772 7.09362 12.3917 5.21998C12.1063 3.34651 13.2322 1.5454 15.0413 0.981153C16.8506 0.416905 18.8006 1.25858 19.631 2.96229C20.4612 4.66582 19.9226 6.72052 18.3635 7.79771Z" fill="#00EFD1"/>
<path d="M18.3632 7.79688V22.2746H4.20654V20.9388H16.5821V8.45644C17.2218 8.39035 17.8346 8.16353 18.3632 7.79688Z" fill="#FEDB41"/>
<path d="M16.582 8.45621V20.9386H2.42529V5.26883H5.76922V1.78906H13.6186C12.4372 2.85094 12.0328 4.53134 12.6016 6.01449C13.1704 7.49765 14.5946 8.47673 16.1829 8.47656C16.3162 8.47656 16.4494 8.46978 16.582 8.45621Z" fill="#00ACEA"/>
<path d="M5.76922 1.78906V5.26883H2.42529L5.76922 1.78906Z" fill="#FEDB41"/>
<path d="M13.9574 11.2734H8.61238C8.46488 11.2734 8.34521 11.3931 8.34521 11.5406C8.34521 11.6883 8.46488 11.8078 8.61238 11.8078H13.9574C14.1051 11.8078 14.2246 11.6883 14.2246 11.5406C14.2246 11.3931 14.1051 11.2734 13.9574 11.2734Z" fill="#083863"/>
<path d="M13.9576 13.0547H5.05037C4.90287 13.0547 4.7832 13.1744 4.7832 13.3219C4.7832 13.4695 4.90287 13.589 5.05037 13.589H13.9576C14.1053 13.589 14.2248 13.4695 14.2248 13.3219C14.2248 13.1744 14.1053 13.0547 13.9576 13.0547Z" fill="#083863"/>
<path d="M13.9576 14.8359H5.05037C4.90287 14.8359 4.7832 14.9556 4.7832 15.1031C4.7832 15.2508 4.90287 15.3703 5.05037 15.3703H13.9576C14.1053 15.3703 14.2248 15.2508 14.2248 15.1031C14.2248 14.9556 14.1053 14.8359 13.9576 14.8359Z" fill="#083863"/>
<path d="M13.9576 16.6172H5.05037C4.90287 16.6172 4.7832 16.7369 4.7832 16.8844C4.7832 17.032 4.90287 17.1515 5.05037 17.1515H13.9576C14.1053 17.1515 14.2248 17.032 14.2248 16.8844C14.2248 16.7369 14.1053 16.6172 13.9576 16.6172Z" fill="#083863"/>
<path d="M16.183 0.539063C15.2074 0.543585 14.2645 0.891631 13.5199 1.52198H5.76927C5.7244 1.52198 5.68022 1.53346 5.64091 1.5552C5.63952 1.55589 5.63813 1.55694 5.63673 1.55781C5.63065 1.56129 5.62456 1.56494 5.61882 1.56894C5.61638 1.57068 5.61395 1.57277 5.61134 1.57468C5.60699 1.57781 5.60247 1.58111 5.59795 1.58477C5.59516 1.58703 5.59273 1.58964 5.58995 1.59207C5.58612 1.59555 5.58229 1.59903 5.57864 1.60268C5.57812 1.60338 5.57742 1.6039 5.57673 1.6046L2.23263 5.08419C2.23194 5.08488 2.23159 5.08575 2.23089 5.08662C2.22011 5.09793 2.21037 5.11028 2.20184 5.12332C2.20097 5.12437 2.20028 5.12558 2.19958 5.1268C2.19123 5.14002 2.18393 5.15411 2.17784 5.16872C2.17749 5.16959 2.17732 5.17046 2.17697 5.17133C2.17088 5.18646 2.16636 5.20194 2.16323 5.21777C2.16323 5.21847 2.15297 5.21916 2.15297 5.21986C2.14653 5.23586 2.14149 5.25256 2.13818 5.26943V20.9392C2.13818 21.0868 2.27785 21.2032 2.42535 21.2032H3.91929V22.275C3.91929 22.4227 4.05896 22.539 4.20646 22.539H18.3631C18.4318 22.539 18.4977 22.5109 18.5451 22.4609C18.5924 22.4108 18.6171 22.3437 18.6134 22.275V7.93396C19.6821 7.16133 20.2769 5.94117 20.2769 4.64187C20.2783 2.37879 18.4461 0.542541 16.183 0.539063ZM5.52228 2.45323V4.99513H3.05257L5.52228 2.45323ZM2.67252 5.52946H5.76927C5.91695 5.52946 6.05662 5.4171 6.05662 5.26943V2.05631H12.9977C12.0012 3.2836 11.7988 4.97426 12.4769 6.40228C13.1553 7.83012 14.5938 8.74137 16.1745 8.74433C16.2181 8.74433 16.2534 8.74346 16.298 8.74207V20.6689H2.67252V5.52946ZM4.45362 22.0047V21.2032H16.582C16.6507 21.2032 16.7166 21.175 16.764 21.1251C16.8113 21.075 16.836 21.0079 16.8323 20.9392V8.69023C17.2776 8.61857 17.7229 8.47646 18.0791 8.27105V22.0047H4.45362ZM18.2109 7.57774C16.86 8.51108 15.0467 8.40202 13.8173 7.31353C12.5881 6.22504 12.2602 4.43836 13.0229 2.98426C13.7856 1.53032 15.4422 0.784486 17.0365 1.17723C18.6306 1.57016 19.7511 3.00009 19.751 4.64204C19.7522 5.81455 19.1763 6.91243 18.2109 7.57774Z" fill="#083863"/>
<path d="M17.5226 2.85855C17.6701 2.85855 17.7898 2.73906 17.7898 2.59138C17.7898 2.44389 17.6701 2.32422 17.5226 2.32422H14.8433C14.6958 2.32422 14.5762 2.44389 14.5762 2.59138C14.5762 2.73906 14.6958 2.85855 14.8433 2.85855H15.61C15.9957 2.86255 16.3348 3.11424 16.4505 3.48194H14.8432C14.6955 3.48194 14.576 3.60161 14.576 3.7491C14.576 3.89678 14.6955 4.01627 14.8432 4.01627H16.4505C16.4082 4.15229 16.3338 4.27613 16.2336 4.37736C16.0689 4.54434 15.8445 4.63879 15.61 4.63966H14.8433C14.7353 4.63496 14.636 4.69845 14.5949 4.79846C14.5539 4.8983 14.5798 5.01345 14.6598 5.08598L16.5759 6.89439C16.6837 6.99475 16.8525 6.98919 16.9535 6.88187C17.002 6.8323 17.0285 6.76498 17.0264 6.69558C17.0245 6.62618 16.9942 6.56061 16.9429 6.51399L15.5149 5.17399H15.61C15.9864 5.17364 16.347 5.02284 16.6116 4.75515C16.8109 4.55234 16.9464 4.29544 17.0014 4.01627H17.5226C17.6701 4.01627 17.7898 3.89678 17.7898 3.7491C17.7898 3.60161 17.6701 3.48194 17.5226 3.48194H17.001C16.956 3.25495 16.8587 3.04153 16.7171 2.85855H17.5226Z" fill="#083863"/>
</g>
<defs>
<clipPath id="clip0_6074_16332">
<rect width="22" height="22" fill="white" transform="translate(0.220215 0.539062)"/>
</clipPath>
</defs>
</svg>
