<svg width="26" height="26" viewBox="0 0 26 26" fill="none" xmlns="http://www.w3.org/2000/svg">
<g clip-path="url(#clip0_6074_15999)">
<path d="M13.4385 25.8906C20.342 25.8906 25.9385 20.2942 25.9385 13.3906C25.9385 6.48707 20.342 0.890625 13.4385 0.890625C6.53492 0.890625 0.938477 6.48707 0.938477 13.3906C0.938477 20.2942 6.53492 25.8906 13.4385 25.8906Z" fill="url(#paint0_linear_6074_15999)"/>
<path d="M24.5015 19.2153C25.2666 17.5972 25.6943 15.7881 25.6943 13.8789C25.6943 6.97558 20.0977 1.37891 13.1943 1.37891C8.396 1.37891 4.22949 4.08203 2.13428 8.04883C4.13721 3.81738 8.4458 0.890625 13.4385 0.890625C20.3418 0.890625 25.9385 6.4873 25.9385 13.3906C25.9385 15.4941 25.419 17.4761 24.5015 19.2153Z" fill="url(#paint1_linear_6074_15999)"/>
<path d="M24.7427 18.7329C22.7398 22.9644 18.4307 25.8911 13.4385 25.8911C6.53467 25.8911 0.938477 20.2944 0.938477 13.3911C0.938477 11.2876 1.45801 9.30566 2.37549 7.56641C1.61035 9.18457 1.18262 10.9937 1.18262 12.9028C1.18262 19.8061 6.77881 25.4028 13.6826 25.4028C18.4805 25.4028 22.647 22.6997 24.7427 18.7329Z" fill="url(#paint2_linear_6074_15999)"/>
<path d="M13.4385 22.9121C18.697 22.9121 22.96 18.6492 22.96 13.3906C22.96 8.13205 18.697 3.86914 13.4385 3.86914C8.17991 3.86914 3.91699 8.13205 3.91699 13.3906C3.91699 18.6492 8.17991 22.9121 13.4385 22.9121Z" fill="url(#paint3_linear_6074_15999)"/>
<path d="M13.4385 22.4238C18.4274 22.4238 22.4717 18.3795 22.4717 13.3906C22.4717 8.40172 18.4274 4.35742 13.4385 4.35742C8.44958 4.35742 4.40527 8.40172 4.40527 13.3906C4.40527 18.3795 8.44958 22.4238 13.4385 22.4238Z" fill="url(#paint4_linear_6074_15999)"/>
<path d="M22.4717 13.3906C22.4717 16.0713 21.3037 18.4795 19.4492 20.1338C20.8735 18.5371 21.7393 16.4307 21.7393 14.123C21.7393 9.13428 17.6948 5.08984 12.7061 5.08984C10.3984 5.08984 8.29199 5.95557 6.69531 7.37988C8.34961 5.52539 10.7578 4.35742 13.4385 4.35742C18.4272 4.35742 22.4717 8.40186 22.4717 13.3906Z" fill="url(#paint5_linear_6074_15999)"/>
<path d="M17.0183 8.41992C17.1687 8.48535 17.222 8.604 17.2185 8.76269C17.2137 8.99853 17.2185 9.23486 17.2171 9.47119C17.2161 9.7334 17.1302 9.82031 16.8699 9.82031C16.2893 9.8208 15.7083 9.82031 15.1277 9.82031C15.0867 9.82031 15.0462 9.82031 14.9832 9.82031C15.0579 9.93701 15.1341 10.0273 15.178 10.1309C15.2903 10.3965 15.3924 10.667 15.49 10.939C15.5159 11.0117 15.5408 11.043 15.6238 11.042C16.0496 11.0371 16.4754 11.0391 16.9012 11.04C17.1424 11.0405 17.2307 11.1289 17.2317 11.3687C17.2327 11.6162 17.2332 11.8643 17.2317 12.1118C17.2303 12.3486 17.1385 12.4385 16.8987 12.439C16.4807 12.4395 16.0623 12.4409 15.6443 12.4375C15.5691 12.437 15.5388 12.4556 15.5242 12.5352C15.3885 13.2754 15.0486 13.9033 14.4749 14.397C13.9583 14.8413 13.3543 15.105 12.6936 15.2476C12.513 15.2866 12.3304 15.3154 12.1326 15.352C12.1707 15.3955 12.2019 15.4326 12.2351 15.4683C13.5384 16.8799 14.7581 18.3618 15.9783 19.8442C16.055 19.9375 16.0965 20.0322 16.0384 20.1519C15.9798 20.272 15.8831 20.313 15.7552 20.3125C15.2288 20.3105 14.7019 20.3101 14.1756 20.3125C14.0554 20.313 13.9734 20.2612 13.8982 20.1728C13.1424 19.2812 12.3914 18.3852 11.6248 17.5029C11.0384 16.8281 10.4344 16.1685 9.83084 15.5088C9.70487 15.3711 9.63748 15.2344 9.64627 15.0444C9.65994 14.7588 9.64871 14.4717 9.65018 14.1851C9.65115 13.9639 9.75613 13.8603 9.97733 13.8569C10.4573 13.8486 10.9378 13.8579 11.4163 13.8276C11.9588 13.793 12.4778 13.6567 12.9251 13.3237C13.2 13.1191 13.3933 12.8545 13.4964 12.5264C13.5042 12.5015 13.5071 12.4751 13.5144 12.439C13.4602 12.439 13.4143 12.439 13.3689 12.439C12.2503 12.439 11.1311 12.439 10.0125 12.439C9.73319 12.439 9.65067 12.3574 9.65018 12.0825C9.65018 11.8423 9.6492 11.6025 9.65018 11.3623C9.65164 11.1309 9.74246 11.04 9.97537 11.04C11.0633 11.0391 12.1512 11.04 13.239 11.04H13.4026C13.3728 10.9858 13.3528 10.9434 13.3274 10.9038C13.1375 10.6079 12.8596 10.4258 12.5388 10.3018C12.0725 10.1216 11.5838 10.0869 11.0901 10.0854C10.7342 10.0845 10.3777 10.0854 10.0218 10.0854C9.73758 10.0854 9.64969 9.99658 9.64969 9.7085C9.64969 9.39502 9.65506 9.08105 9.64725 8.76807C9.64334 8.6084 9.69363 8.49072 9.83963 8.41992H17.0178H17.0183Z" fill="url(#paint6_linear_6074_15999)"/>
<path d="M17.0183 7.93164C17.1687 7.99707 17.222 8.11572 17.2185 8.27441C17.2137 8.51025 17.2185 8.74658 17.2171 8.98291C17.2161 9.24512 17.1302 9.33203 16.8699 9.33203C16.2893 9.33252 15.7083 9.33203 15.1277 9.33203C15.0867 9.33203 15.0462 9.33203 14.9832 9.33203C15.0579 9.44873 15.1341 9.53906 15.178 9.64258C15.2903 9.9082 15.3924 10.1787 15.49 10.4507C15.5159 10.5234 15.5408 10.5547 15.6238 10.5537C16.0496 10.5488 16.4754 10.5508 16.9012 10.5518C17.1424 10.5522 17.2307 10.6406 17.2317 10.8804C17.2327 11.1279 17.2332 11.376 17.2317 11.6235C17.2303 11.8603 17.1385 11.9502 16.8987 11.9507C16.4807 11.9512 16.0623 11.9526 15.6443 11.9492C15.5691 11.9487 15.5388 11.9673 15.5242 12.0469C15.3885 12.7871 15.0486 13.415 14.4749 13.9087C13.9583 14.353 13.3543 14.6167 12.6936 14.7593C12.513 14.7983 12.3304 14.8271 12.1326 14.8638C12.1707 14.9072 12.2019 14.9443 12.2351 14.98C13.5384 16.3916 14.7581 17.8735 15.9783 19.356C16.055 19.4492 16.0965 19.5439 16.0384 19.6636C15.9798 19.7837 15.8831 19.8247 15.7552 19.8242C15.2288 19.8223 14.7019 19.8218 14.1756 19.8242C14.0554 19.8247 13.9734 19.7729 13.8982 19.6846C13.1424 18.793 12.3914 17.897 11.6248 17.0146C11.0384 16.3398 10.4344 15.6802 9.83084 15.0205C9.70487 14.8828 9.63748 14.7461 9.64627 14.5561C9.65994 14.2705 9.64871 13.9834 9.65018 13.6968C9.65115 13.4756 9.75613 13.3721 9.97733 13.3686C10.4573 13.3603 10.9378 13.3696 11.4163 13.3394C11.9588 13.3047 12.4778 13.1685 12.9251 12.8354C13.2 12.6309 13.3933 12.3662 13.4964 12.0381C13.5042 12.0132 13.5071 11.9868 13.5144 11.9507C13.4602 11.9507 13.4143 11.9507 13.3689 11.9507C12.2503 11.9507 11.1311 11.9507 10.0125 11.9507C9.73319 11.9507 9.65067 11.8691 9.65018 11.5942C9.65018 11.354 9.6492 11.1143 9.65018 10.874C9.65164 10.6426 9.74246 10.5518 9.97537 10.5518C11.0633 10.5508 12.1512 10.5518 13.239 10.5518H13.4026C13.3728 10.4976 13.3528 10.4551 13.3274 10.4155C13.1375 10.1196 12.8596 9.9375 12.5388 9.81348C12.0725 9.6333 11.5838 9.59863 11.0901 9.59717C10.7342 9.59619 10.3777 9.59717 10.0218 9.59717C9.73758 9.59717 9.64969 9.5083 9.64969 9.22021C9.64969 8.90674 9.65506 8.59277 9.64725 8.27978C9.64334 8.12012 9.69363 8.00244 9.83963 7.93164H17.0178H17.0183Z" fill="url(#paint7_linear_6074_15999)"/>
<path d="M9.65063 9.22021C9.65063 9.13574 9.65063 9.05127 9.65112 8.9668C9.65209 9.07031 9.65209 9.17383 9.65209 9.27734C9.65112 9.25928 9.65063 9.24023 9.65063 9.22021ZM16.9021 10.5522C16.4763 10.5513 16.0505 10.5493 15.6248 10.5542C15.5417 10.5552 15.5168 10.5239 15.491 10.4512C15.4153 10.2397 15.3367 10.0293 15.2522 9.8208C15.2112 9.8208 15.1702 9.8208 15.1291 9.8208H14.9846C15.0593 9.9375 15.1355 10.0278 15.1794 10.1313C15.2917 10.397 15.3938 10.6675 15.4914 10.9395C15.5173 11.0122 15.5422 11.0435 15.6252 11.0425C16.051 11.0376 16.4768 11.0396 16.9026 11.0405C17.1438 11.041 17.2317 11.1289 17.2331 11.3687C17.2331 11.2061 17.2341 11.0435 17.2331 10.8809C17.2322 10.6406 17.1438 10.5527 16.9026 10.5522H16.9021ZM9.97631 11.0405C11.0642 11.0396 12.1521 11.0405 13.24 11.0405H13.4036C13.3738 10.9863 13.3538 10.9438 13.3284 10.9043C13.2375 10.7627 13.1257 10.6479 12.9997 10.5522C11.9919 10.5522 10.9841 10.5522 9.97631 10.5522C9.74291 10.5522 9.65258 10.6431 9.65112 10.8745C9.64965 11.0933 9.65014 11.312 9.65112 11.5308C9.65112 11.4746 9.65112 11.4189 9.65112 11.3628C9.65258 11.1313 9.7434 11.0405 9.97631 11.0405ZM13.4973 12.5269C13.5051 12.502 13.508 12.4756 13.5154 12.4395H13.3054C13.2048 12.5903 13.0784 12.7227 12.926 12.8359C12.4788 13.1685 11.9602 13.3052 11.4172 13.3398C10.9387 13.3706 10.4578 13.3613 9.97826 13.3691C9.75707 13.373 9.65209 13.4761 9.65112 13.6973C9.65014 13.8477 9.65307 13.998 9.65356 14.1484C9.66625 13.9536 9.77026 13.8608 9.97826 13.8574C10.4582 13.8491 10.9387 13.8584 11.4172 13.8281C11.9597 13.7935 12.4788 13.6572 12.926 13.3242C13.2009 13.1196 13.3943 12.855 13.4973 12.5269ZM9.84106 8.41992H17.0193C17.1497 8.47656 17.2068 8.57373 17.2175 8.70166C17.217 8.55908 17.2165 8.41699 17.2195 8.27441C17.2229 8.11572 17.1697 7.99707 17.0193 7.93164H9.84106C9.69457 8.00244 9.64477 8.11963 9.64867 8.27978C9.65209 8.4165 9.65258 8.55322 9.65258 8.68945C9.66576 8.56934 9.72045 8.47852 9.84155 8.41992H9.84106ZM9.6516 14.3965C9.65063 14.4502 9.64965 14.5034 9.64721 14.5566C9.64526 14.6011 9.64721 14.6421 9.65356 14.6812C9.65356 14.5864 9.65258 14.4912 9.6516 14.396V14.3965ZM17.218 8.98291C17.218 8.95068 17.218 8.91846 17.218 8.88623C17.218 8.92725 17.2175 8.96826 17.2175 9.00928C17.2175 9.00049 17.218 8.99219 17.218 8.98291ZM12.512 15.2837C12.3899 15.3066 12.2649 15.3276 12.1331 15.352C12.1711 15.3955 12.2024 15.4326 12.2356 15.4683C13.5212 16.8608 14.7263 18.3223 15.9299 19.7852C15.9744 19.7598 16.011 19.7207 16.0388 19.6641C16.0969 19.5444 16.0554 19.4497 15.9788 19.3564C14.8455 17.98 13.7117 16.604 12.512 15.2842V15.2837Z" fill="url(#paint8_linear_6074_15999)"/>
</g>
<defs>
<linearGradient id="paint0_linear_6074_15999" x1="4.59961" y1="4.55176" x2="22.2773" y2="22.2295" gradientUnits="userSpaceOnUse">
<stop stop-color="#FFDE24"/>
<stop offset="1" stop-color="#FFAE00"/>
</linearGradient>
<linearGradient id="paint1_linear_6074_15999" x1="7.52832" y1="1.62305" x2="24.811" y2="18.9058" gradientUnits="userSpaceOnUse">
<stop stop-color="#FFFBC9"/>
<stop offset="1" stop-color="#FFF347"/>
</linearGradient>
<linearGradient id="paint2_linear_6074_15999" x1="2.06592" y1="7.87598" x2="19.3486" y2="25.1587" gradientUnits="userSpaceOnUse">
<stop stop-color="#FFAA00"/>
<stop offset="1" stop-color="#E35B00"/>
</linearGradient>
<linearGradient id="paint3_linear_6074_15999" x1="6.70557" y1="6.65771" x2="20.1714" y2="20.1235" gradientUnits="userSpaceOnUse">
<stop stop-color="#FFFBC9"/>
<stop offset="1" stop-color="#FFF347"/>
</linearGradient>
<linearGradient id="paint4_linear_6074_15999" x1="7.05127" y1="7.00342" x2="19.8257" y2="19.7778" gradientUnits="userSpaceOnUse">
<stop stop-color="#FF8C40"/>
<stop offset="1" stop-color="#E85D00"/>
</linearGradient>
<linearGradient id="paint5_linear_6074_15999" x1="10.0615" y1="3.99268" x2="22.8364" y2="16.7676" gradientUnits="userSpaceOnUse">
<stop stop-color="#E04E00"/>
<stop offset="1" stop-color="#B83A00"/>
</linearGradient>
<linearGradient id="paint6_linear_6074_15999" x1="9.7034" y1="8.52539" x2="18.6966" y2="17.5181" gradientUnits="userSpaceOnUse">
<stop stop-color="#E04E00"/>
<stop offset="1" stop-color="#B83A00"/>
</linearGradient>
<linearGradient id="paint7_linear_6074_15999" x1="9.7034" y1="8.03711" x2="18.6966" y2="17.0298" gradientUnits="userSpaceOnUse">
<stop stop-color="#FFDE24"/>
<stop offset="1" stop-color="#FFAE00"/>
</linearGradient>
<linearGradient id="paint8_linear_6074_15999" x1="9.89477" y1="7.84668" x2="18.8874" y2="16.8394" gradientUnits="userSpaceOnUse">
<stop stop-color="#FFFBC9"/>
<stop offset="1" stop-color="#FFF347"/>
</linearGradient>
<clipPath id="clip0_6074_15999">
<rect width="25" height="25" fill="white" transform="translate(0.938477 0.890625)"/>
</clipPath>
</defs>
</svg>
