<svg width="26" height="26" viewBox="0 0 26 26" fill="none" xmlns="http://www.w3.org/2000/svg">
<g clip-path="url(#clip0_6082_15857)">
<path d="M19.8608 3.37695V22.4644H4.9751C4.5459 22.4644 4.19824 22.1162 4.19824 21.687V7.4043L9.12695 2.59961H19.0835C19.5127 2.59961 19.8608 2.94775 19.8608 3.37695Z" fill="#EAF6FF"/>
<path d="M19.8608 15.0508V22.4653H12.4131V17.0874C12.4131 15.9624 13.3247 15.0508 14.4497 15.0508H19.8608Z" fill="#C8EFFE"/>
<path d="M19.0836 2.59961H18.1567C18.586 2.59961 18.934 2.94756 18.934 3.37681V22.4642H19.8609V3.37686C19.8608 2.94761 19.5129 2.59961 19.0836 2.59961Z" fill="#C8EFFE"/>
<path d="M18.2529 1.82031V20.9077H3.36719C2.93799 20.9077 2.58984 20.5596 2.58984 20.1304V5.14307L6.69678 1.04297H17.4756C17.9048 1.04297 18.2529 1.39111 18.2529 1.82031Z" fill="#EAF6FF"/>
<path d="M18.2529 15.0508V20.9087H12.4131V17.0874C12.4131 15.9624 13.3247 15.0508 14.4497 15.0508H18.2529Z" fill="#C8EFFE"/>
<path d="M17.4754 1.04297H16.2705C16.6998 1.04297 17.0477 1.39092 17.0477 1.82017V20.9075H18.2526V1.82017C18.2526 1.39092 17.9046 1.04297 17.4754 1.04297Z" fill="#C8EFFE"/>
<path d="M21.8424 25.3115H15.6546C14.5299 25.3115 13.6182 24.3998 13.6182 23.275V17.0873C13.6182 15.9625 14.5299 15.0508 15.6546 15.0508H21.8424C22.9671 15.0508 23.8789 15.9625 23.8789 17.0873V23.275C23.8789 24.3998 22.9671 25.3115 21.8424 25.3115Z" fill="#4FC123"/>
<path d="M21.8426 15.0488H20.6377C21.7624 15.0488 22.6742 15.9606 22.6742 17.0853V23.2731C22.6742 24.3978 21.7624 25.3096 20.6377 25.3096H21.8426C22.9673 25.3096 23.8791 24.3978 23.8791 23.2731V17.0854C23.8791 15.9606 22.9673 15.0488 21.8426 15.0488Z" fill="#47A920"/>
<path d="M2.58984 5.14297L6.69668 1.04297V4.36572C6.69668 4.79497 6.34868 5.14297 5.91943 5.14297H2.58984Z" fill="#C8EFFE"/>
<path d="M5.49204 2.24585V4.36572C5.49204 4.79497 5.14409 5.14292 4.71484 5.14292H5.91973C6.34897 5.14292 6.69692 4.79497 6.69692 4.36572V1.04297L5.49204 2.24585Z" fill="#99E6FC"/>
<path d="M18.0773 20.7175L17.0976 19.7379C16.9094 19.5496 16.6043 19.5496 16.416 19.7379L15.7764 20.3775C15.5882 20.5657 15.5882 20.8708 15.7764 21.059L17.4151 22.6978C17.7548 23.0374 18.3054 23.0374 18.645 22.6978L21.8495 19.4933C22.0377 19.3051 22.0377 19 21.8495 18.8117L21.257 18.2193C21.0688 18.0311 20.7637 18.0311 20.5755 18.2193L18.0773 20.7175Z" fill="#D1F19E"/>
<path d="M21.8494 18.8117L21.2569 18.2193C21.0687 18.0311 20.7636 18.0311 20.5753 18.2193L20.2792 18.5154C20.349 18.5382 20.4147 18.5769 20.4702 18.6323L20.6445 18.8117C20.8327 19 20.8327 19.3051 20.6445 19.4933L17.8768 22.3373C17.7185 22.4956 17.5144 22.5791 17.3071 22.5898L17.415 22.6977C17.7546 23.0374 18.3053 23.0374 18.6449 22.6977L21.8494 19.4933C22.0375 19.3051 22.0375 18.9999 21.8494 18.8117Z" fill="#BBEC6C"/>
<path d="M15.1119 9.93013H9.54087C9.19146 9.93013 8.9082 9.64687 8.9082 9.29746V3.72642C8.9082 3.377 9.19146 3.09375 9.54087 3.09375H15.1119C15.4613 3.09375 15.7446 3.377 15.7446 3.72642V9.29746C15.7446 9.64687 15.4613 9.93013 15.1119 9.93013Z" fill="#C8EFFE"/>
<path d="M15.1121 3.09375H13.9072C14.2566 3.09375 14.5399 3.377 14.5399 3.72642V9.29746C14.5399 9.64687 14.2566 9.93013 13.9072 9.93013H15.1121C15.4615 9.93013 15.7448 9.64687 15.7448 9.29746V3.72642C15.7448 3.377 15.4615 3.09375 15.1121 3.09375Z" fill="#99E6FC"/>
<path d="M12.3283 7.29292C11.8447 7.29292 11.4526 6.90088 11.4526 6.41728V6.01821C11.4526 5.53462 11.8447 5.14258 12.3283 5.14258C12.8119 5.14258 13.2039 5.53462 13.2039 6.01821V6.41728C13.2039 6.90088 12.8119 7.29292 12.3283 7.29292Z" fill="#FFDFCF"/>
<path d="M12.7071 7.29297H11.9494C11.2007 7.29297 10.5938 7.8999 10.5938 8.64863V9.929H14.0628V8.64863C14.0628 7.8999 13.4559 7.29297 12.7071 7.29297Z" fill="#0593FC"/>
<path d="M12.7074 7.29297H11.9497C11.8734 7.29297 11.7988 7.29956 11.7261 7.31167C12.3684 7.41831 12.8582 7.97617 12.8582 8.64868V9.92905H14.063V8.64863C14.063 7.8999 13.4561 7.29297 12.7074 7.29297Z" fill="#0181FA"/>
<path d="M23.8788 18.3243C24.0811 18.3243 24.245 18.1604 24.245 17.9581V17.0853C24.245 15.7604 23.1672 14.6826 21.8423 14.6826H20.2271V3.37598C20.2271 2.74541 19.7141 2.23242 19.0835 2.23242H18.6191V1.81934C18.6191 1.18877 18.1062 0.675781 17.4756 0.675781H6.69673C6.61655 0.682617 6.53662 0.689062 6.43755 0.783301L2.3312 4.88281C2.22637 4.9875 2.19487 5.14507 2.25151 5.28198C2.30815 5.4189 2.44175 5.5082 2.58994 5.5082H5.91953C6.55 5.5082 7.06294 4.99526 7.06294 4.36479V1.4082H17.4756C17.7023 1.4082 17.8867 1.59263 17.8867 1.81934V14.6826H15.6545C14.3296 14.6826 13.2518 15.7604 13.2518 17.0853V20.5405H3.36719C3.14048 20.5405 2.95605 20.3561 2.95605 20.1294V6.85313C2.95605 6.65083 2.79214 6.48691 2.58984 6.48691C2.38755 6.48691 2.22363 6.65083 2.22363 6.85313V20.1294C2.22363 20.76 2.73662 21.2729 3.36719 21.2729H3.83203V21.686C3.83203 22.3166 4.34482 22.8296 4.9751 22.8296H13.2519V23.2731C13.2519 24.5979 14.3297 25.6758 15.6545 25.6758H21.8424C23.1672 25.6758 24.2451 24.5979 24.2451 23.2731V19.6676C24.2451 19.4653 24.0812 19.3014 23.8789 19.3014C23.6766 19.3014 23.5126 19.4653 23.5126 19.6676V23.2731C23.5126 24.194 22.7633 24.9434 21.8424 24.9434H15.6545C14.7335 24.9434 13.9842 24.194 13.9842 23.2731V17.0853C13.9842 16.1643 14.7335 15.415 15.6545 15.415H21.8423C22.7633 15.415 23.5126 16.1643 23.5126 17.0853V17.9581C23.5126 18.1604 23.6765 18.3243 23.8788 18.3243ZM6.33052 4.36479C6.33052 4.59146 6.14619 4.77578 5.91953 4.77578H3.4751L6.33052 1.92505V4.36479ZM4.9751 22.0972C4.74863 22.0972 4.56445 21.9127 4.56445 21.686V21.2729H13.2519V22.0972H4.9751ZM18.6191 2.96484H19.0835C19.3102 2.96484 19.4946 3.14927 19.4946 3.37598V14.6826H18.6191V2.96484Z" fill="black"/>
<path d="M20.3161 17.9589L18.0769 20.1981L17.3562 19.4774C17.0255 19.1468 16.4874 19.1468 16.1567 19.4774L15.517 20.1171C15.1864 20.4478 15.1864 20.9859 15.517 21.3166L17.1558 22.9553C17.3892 23.1887 17.6996 23.3173 18.0297 23.3173C18.3598 23.3173 18.6702 23.1887 18.9036 22.9553L22.108 19.7509C22.4387 19.4202 22.4387 18.8821 22.108 18.5514L21.5156 17.9589C21.1849 17.6283 20.6468 17.6283 20.3161 17.9589ZM21.5901 19.233L18.3856 22.4375C18.2906 22.5325 18.1642 22.5849 18.0297 22.5849C17.8952 22.5849 17.7688 22.5326 17.6737 22.4374L16.035 20.7987C16.0055 20.7692 16.0011 20.7348 16.0011 20.7168C16.0011 20.6989 16.0055 20.6645 16.035 20.635L16.6746 19.9954C16.7041 19.9659 16.7385 19.9615 16.7564 19.9615C16.7744 19.9615 16.8088 19.9659 16.8383 19.9954L17.818 20.975C17.9609 21.1179 18.1928 21.1179 18.3358 20.975L20.834 18.4768C20.8635 18.4473 20.8979 18.4429 20.9158 18.4429C20.9337 18.4429 20.9682 18.4473 20.9977 18.4768L21.5901 19.0692C21.6353 19.1144 21.6353 19.1878 21.5901 19.233Z" fill="black"/>
<path d="M15.1119 10.2953C15.6627 10.2953 16.1108 9.84722 16.1108 9.29643V3.72539C16.1108 3.17466 15.6627 2.72656 15.1119 2.72656H9.54087C8.99009 2.72656 8.54199 3.17466 8.54199 3.72539V9.29643C8.54199 9.84722 8.99009 10.2953 9.54087 10.2953H15.1119ZM10.9601 9.56289V8.64873C10.9601 8.10312 11.404 7.65923 11.9496 7.65923H12.7073C13.2529 7.65923 13.6968 8.10312 13.6968 8.64873V9.56289H10.9601ZM12.8378 6.41743C12.8378 6.69834 12.6093 6.92686 12.3284 6.92686C12.0475 6.92686 11.8189 6.69834 11.8189 6.41743V6.01836C11.8189 5.73745 12.0475 5.50894 12.3284 5.50894C12.6093 5.50894 12.8378 5.73745 12.8378 6.01836V6.41743ZM9.27441 9.29643V3.72539C9.27441 3.57847 9.39395 3.45898 9.54087 3.45898H15.1119C15.2588 3.45898 15.3784 3.57847 15.3784 3.72539V9.29643C15.3784 9.44336 15.2588 9.56289 15.1119 9.56289H14.4292V8.64873C14.4292 7.94033 13.9991 7.33071 13.3865 7.0667C13.5029 6.87764 13.5703 6.65527 13.5703 6.41743V6.01836C13.5703 5.33364 13.0132 4.77651 12.3284 4.77651C11.6437 4.77651 11.0866 5.33359 11.0866 6.01836V6.41743C11.0866 6.65527 11.1539 6.87764 11.2704 7.0667C10.6577 7.33071 10.2276 7.94038 10.2276 8.64873V9.56289H9.54092C9.39399 9.56289 9.27441 9.44336 9.27441 9.29643Z" fill="black"/>
<path d="M4.77734 12.7744C4.77734 12.9767 4.94126 13.1406 5.14355 13.1406H15.635C15.8373 13.1406 16.0012 12.9767 16.0012 12.7744C16.0012 12.5721 15.8373 12.4082 15.635 12.4082H5.14355C4.94126 12.4082 4.77734 12.5721 4.77734 12.7744Z" fill="black"/>
<path d="M10.9561 14.2617H5.14355C4.94126 14.2617 4.77734 14.4256 4.77734 14.6279C4.77734 14.8302 4.94126 14.9941 5.14355 14.9941H10.9561C11.1583 14.9941 11.3223 14.8302 11.3223 14.6279C11.3223 14.4256 11.1583 14.2617 10.9561 14.2617Z" fill="black"/>
<path d="M10.9562 16.1133H9.75781C9.55552 16.1133 9.3916 16.2772 9.3916 16.4795C9.3916 16.6818 9.55552 16.8457 9.75781 16.8457H10.9562C11.1585 16.8457 11.3224 16.6818 11.3224 16.4795C11.3224 16.2772 11.1584 16.1133 10.9562 16.1133Z" fill="black"/>
<path d="M5.14355 16.8457H8.0498C8.2521 16.8457 8.41602 16.6818 8.41602 16.4795C8.41602 16.2772 8.2521 16.1133 8.0498 16.1133H5.14355C4.94126 16.1133 4.77734 16.2772 4.77734 16.4795C4.77734 16.6818 4.94126 16.8457 5.14355 16.8457Z" fill="black"/>
<path d="M5.14355 18.6973H10.9561C11.1583 18.6973 11.3223 18.5333 11.3223 18.3311C11.3223 18.1288 11.1583 17.9648 10.9561 17.9648H5.14355C4.94126 17.9648 4.77734 18.1288 4.77734 18.3311C4.77734 18.5333 4.94126 18.6973 5.14355 18.6973Z" fill="black"/>
<path d="M6.08812 8.4666L4.88465 9.67001C4.74158 9.81303 4.74158 10.0449 4.8846 10.1879C4.95613 10.2594 5.04984 10.2952 5.14359 10.2952C5.23729 10.2952 5.33104 10.2594 5.40252 10.1879L6.60599 8.98452C6.74905 8.8415 6.74905 8.60961 6.60604 8.46664C6.46302 8.32368 6.23113 8.32358 6.08812 8.4666Z" fill="black"/>
</g>
<defs>
<clipPath id="clip0_6082_15857">
<rect width="25" height="25" fill="white" transform="translate(0.734375 0.675781)"/>
</clipPath>
</defs>
</svg>
