<svg width="25" height="25" viewBox="0 0 25 25" fill="none" xmlns="http://www.w3.org/2000/svg">
<g clip-path="url(#clip0_6086_16041)">
<path d="M8.64258 24.0844H16.6426V22.4844H8.64258V24.0844Z" fill="#57565C"/>
<path d="M17.4429 5.68516H19.8429V3.28516H17.4429V5.68516Z" fill="#898890"/>
<path d="M17.8428 6.65234C16.9748 7.03125 16.4914 7.96699 16.685 8.89414C16.8785 9.82109 17.6957 10.4854 18.6428 10.4854C19.5899 10.4854 20.4071 9.82109 20.6006 8.89414C20.7942 7.96699 20.3108 7.03125 19.4428 6.65234V5.68359H17.8428V6.65234Z" fill="#FFA733"/>
<path d="M20.0425 6.40801V6.08437C20.2634 6.08437 20.4425 5.90527 20.4425 5.68438V3.28437C20.4425 3.06348 20.2634 2.88438 20.0425 2.88438H19.2425V1.68438C19.2425 1.02168 18.7052 0.484375 18.0425 0.484375H8.44248C7.33838 0.485742 6.44385 1.38027 6.44248 2.48438V22.0844H4.44248C4.22158 22.0844 4.04248 22.2635 4.04248 22.4844V24.0844C4.04248 24.3053 4.22158 24.4844 4.44248 24.4844H12.4425C12.6634 24.4844 12.8425 24.3053 12.8425 24.0844V22.4844C12.8425 22.2635 12.6634 22.0844 12.4425 22.0844H7.24248V2.48438C7.24248 1.82168 7.77979 1.28438 8.44248 1.28438H18.0425C18.2634 1.28438 18.4425 1.46348 18.4425 1.68438V2.88438H17.6425C17.4216 2.88438 17.2425 3.06348 17.2425 3.28437V5.68438C17.2425 5.90527 17.4216 6.08437 17.6425 6.08437V6.40801C16.7017 6.95117 16.2431 8.0584 16.5243 9.10762C16.8054 10.1568 17.7562 10.8865 18.8425 10.8865C19.9288 10.8865 20.8796 10.1568 21.1606 9.10762C21.4419 8.0584 20.9833 6.95117 20.0425 6.40801ZM12.0425 23.6844H4.84248V22.8844H12.0425V23.6844ZM18.0425 3.68438H19.6425V5.28438H18.0425V3.68438ZM18.8425 10.0844C18.0862 10.0826 17.4345 9.55176 17.28 8.81152C17.1253 8.07129 17.5103 7.32383 18.2024 7.01953C18.3481 6.95605 18.4425 6.81211 18.4425 6.65313V6.08437H19.2425V6.65313C19.2425 6.81211 19.3368 6.95605 19.4825 7.01953C20.1747 7.32383 20.5597 8.07129 20.405 8.81152C20.2505 9.55176 19.5987 10.0826 18.8425 10.0844Z" fill="black"/>
<path d="M18.2427 11.6836H19.0427V13.2836H18.2427V11.6836Z" fill="black"/>
<path d="M20.6226 11.0305L21.1882 10.4648L22.3196 11.5961L21.754 12.1617L20.6226 11.0305Z" fill="black"/>
<path d="M21.8433 8.08398H23.4433V8.88398H21.8433V8.08398Z" fill="black"/>
<path d="M13.8428 8.08398H15.4428V8.88398H13.8428V8.08398Z" fill="black"/>
<path d="M14.7939 11.5963L15.9254 10.4648L16.491 11.0307L15.3596 12.1619L14.7939 11.5963Z" fill="black"/>
</g>
<defs>
<clipPath id="clip0_6086_16041">
<rect width="24" height="24" fill="white" transform="translate(0.643066 0.484375)"/>
</clipPath>
</defs>
</svg>
