<svg width="24" height="24" viewBox="0 0 24 24" fill="none" xmlns="http://www.w3.org/2000/svg">
<path d="M13.7402 2.03906H8.86393C8.78364 2.38715 8.73371 2.74155 8.7147 3.09828C6.95264 3.24589 5.60898 5.2092 6.7455 7.33513L7.24988 8.26824H16.8332L17.205 7.40197C18.2064 4.89834 16.4367 2.03906 13.7402 2.03906Z" fill="#2D4A60"/>
<path d="M10.4692 11.6224H11.9067C12.288 11.6224 12.6536 11.4709 12.9232 11.2013C13.1928 10.9318 13.3442 10.5661 13.3442 10.1849V9.22656C13.3442 8.84531 13.1928 8.47968 12.9232 8.2101C12.6536 7.94051 12.288 7.78906 11.9067 7.78906H10.4692V11.6224Z" fill="#8FA5A5"/>
<path d="M13.3447 11.6224H11.9072C11.526 11.6224 11.1603 11.4709 10.8908 11.2013C10.6212 10.9318 10.4697 10.5661 10.4697 10.1849V9.22656C10.4697 8.84531 10.6212 8.47968 10.8908 8.2101C11.1603 7.94051 11.526 7.78906 11.9072 7.78906H13.3447V11.6224Z" fill="#8FA5A5"/>
<path d="M7.3004 15.9356C6.27566 15.9356 5.27791 16.2642 4.45363 16.873C3.62935 17.4818 3.02195 18.3388 2.72061 19.3183L1.84473 22.1648H21.9697L21.0938 19.3182C20.7924 18.3387 20.185 17.4817 19.3607 16.8729C18.5365 16.2641 17.5387 15.9356 16.514 15.9355L7.3004 15.9356Z" fill="#00CF66"/>
<path d="M9.51137 15.9356L8.63036 18.2851C8.57244 18.4395 8.55537 18.6063 8.58078 18.7692C8.6062 18.9322 8.67324 19.0858 8.77543 19.2153C8.87762 19.3448 9.01149 19.4457 9.1641 19.5082C9.3167 19.5708 9.48287 19.5929 9.64654 19.5725L11.9072 19.2898L14.1678 19.5724C14.3315 19.5928 14.4977 19.5707 14.6503 19.5081C14.8029 19.4456 14.9367 19.3447 15.0389 19.2152C15.1411 19.0857 15.2082 18.9321 15.2336 18.7691C15.259 18.6062 15.2419 18.4394 15.184 18.285L14.303 15.9355L9.51137 15.9356Z" fill="#D9E1E2"/>
<path d="M14.3029 13.5391V16.08C14.3029 16.5848 14.1037 17.0693 13.7486 17.4281L11.907 19.2891L10.0655 17.4281C9.71042 17.0693 9.51124 16.5848 9.51123 16.08V13.5391H14.3029Z" fill="#F9A06F"/>
<path d="M11.9072 15.4557C10.7635 15.4557 9.66658 15.0014 8.85783 14.1926C8.04908 13.3839 7.59473 12.287 7.59473 11.1432V8.4C7.59473 7.85672 7.81054 7.33569 8.1947 6.95154C8.57886 6.56738 9.09988 6.35156 9.64316 6.35156H14.1713C14.7146 6.35156 15.2356 6.56738 15.6198 6.95154C16.0039 7.33569 16.2197 7.85672 16.2197 8.4V11.1432C16.2197 12.287 15.7654 13.3839 14.9566 14.1926C14.1479 15.0014 13.051 15.4557 11.9072 15.4557Z" fill="#FFD188"/>
<path d="M12.3861 12.3418H11.4277C11.0308 12.3418 10.709 12.6636 10.709 13.0605C10.709 13.4575 11.0308 13.7793 11.4277 13.7793H12.3861C12.783 13.7793 13.1048 13.4575 13.1048 13.0605C13.1048 12.6636 12.783 12.3418 12.3861 12.3418Z" fill="#7B8C8C"/>
<path d="M22.4277 22.0239L21.5517 19.1772C21.224 18.0976 20.5569 17.1525 19.6494 16.4822C18.7418 15.8119 17.6423 15.4521 16.5141 15.4564H14.7823V14.9772C14.7823 14.9743 14.7815 14.9716 14.7815 14.9687C15.2956 14.5819 15.7272 14.096 16.0506 13.5397H16.2198C16.6882 13.539 17.1401 13.367 17.4904 13.0561C17.8407 12.7452 18.0651 12.3169 18.1215 11.852C18.4166 11.6851 18.6622 11.4429 18.8332 11.1502C19.0042 10.8574 19.0944 10.5245 19.0948 10.1855V9.22718C19.0941 8.79193 18.9454 8.36985 18.6732 8.0302C18.4011 7.69056 18.0215 7.45354 17.5968 7.35803C17.8178 6.70472 17.8844 6.00908 17.7912 5.32573C17.698 4.64237 17.4477 3.98993 17.0598 3.41964C16.2599 2.23819 15.0009 1.56055 13.6058 1.56055H8.7298C8.62476 1.56051 8.52261 1.59503 8.43912 1.65877C8.35562 1.72251 8.2954 1.81194 8.26773 1.91327C8.2035 2.16868 8.15875 2.4286 8.13387 2.69078C7.17968 2.95101 6.41502 3.54978 6.01845 4.36754C5.5872 5.25596 5.62485 6.32164 6.10982 7.38584C5.7098 7.50052 5.3579 7.74214 5.10717 8.07427C4.85645 8.40641 4.7205 8.81104 4.71981 9.22718V10.1855C4.72039 10.6937 4.92251 11.1808 5.28183 11.5402C5.64115 11.8995 6.12833 12.1016 6.63649 12.1022H7.21221C7.44916 13.2479 8.09679 14.2674 9.03316 14.9687C9.03316 14.9716 9.03231 14.9743 9.03231 14.9772V15.4564H7.30048C6.17227 15.4521 5.07277 15.8119 4.16526 16.4822C3.25775 17.1525 2.5906 18.0976 2.26289 19.1772L1.38692 22.0239C1.36486 22.0955 1.35994 22.1713 1.37253 22.2453C1.38512 22.3192 1.41489 22.3891 1.45943 22.4494C1.50397 22.5097 1.56204 22.5587 1.62897 22.5925C1.69591 22.6263 1.76983 22.6439 1.84481 22.6439H21.9698C22.0448 22.6439 22.1187 22.6263 22.1856 22.5925C22.2525 22.5587 22.3106 22.5097 22.3551 22.4494C22.3997 22.3891 22.4294 22.3192 22.442 22.2453C22.4546 22.1714 22.4497 22.0956 22.4277 22.0239V22.0239ZM9.07934 18.453L9.45839 17.4423C9.53774 17.5577 9.62698 17.666 9.72509 17.766L10.8821 18.9348L9.58727 19.0965C9.50543 19.1068 9.42233 19.0957 9.34602 19.0644C9.26971 19.0331 9.20277 18.9826 9.15169 18.9179C9.10061 18.8531 9.06711 18.7763 9.05443 18.6948C9.04175 18.6133 9.05033 18.5299 9.07934 18.4527V18.453ZM14.0895 17.7657C14.1877 17.6657 14.2769 17.5573 14.3563 17.4418L14.7355 18.4529C14.7644 18.5301 14.773 18.6135 14.7603 18.695C14.7475 18.7765 14.714 18.8533 14.6629 18.9181C14.6118 18.9828 14.5449 19.0333 14.4686 19.0646C14.3923 19.0959 14.3092 19.107 14.2273 19.0967L12.9326 18.935L14.0895 17.7657ZM16.4908 12.5374C16.5343 12.3948 16.5723 12.2499 16.6024 12.102H17.0448C16.9224 12.3125 16.7242 12.4682 16.4908 12.5376V12.5374ZM18.1365 9.22718V10.1855C18.1362 10.4396 18.0352 10.6832 17.8555 10.8628C17.6758 11.0425 17.4322 11.1435 17.1782 11.1438H16.699V8.40062C16.699 8.35615 16.6945 8.3128 16.6923 8.26891H16.9144H16.9156H16.9165H17.1782C17.4322 8.26918 17.6758 8.37023 17.8555 8.54988C18.0351 8.72953 18.1362 8.97311 18.1365 9.22718ZM9.12354 2.51887H13.6059C14.678 2.51887 15.6477 3.04306 16.2666 3.95695C16.5891 4.43068 16.7906 4.97631 16.8532 5.546C16.9159 6.11569 16.8378 6.69205 16.6259 7.22457L16.5915 7.31055H16.4483C16.2428 6.88075 15.92 6.51776 15.5171 6.26343C15.1143 6.0091 14.6478 5.87378 14.1714 5.87305H9.92558C9.91107 5.84746 9.89422 5.82326 9.87526 5.80077C8.92934 4.69708 9.02085 3.19337 9.12354 2.51887ZM6.88055 4.78567C7.11747 4.29741 7.55518 3.91966 8.11105 3.70399C8.15458 4.41825 8.33862 5.24931 8.83595 6.00759C8.51671 6.11617 8.22231 6.28731 7.96998 6.51099C7.71764 6.73467 7.51243 7.00641 7.36633 7.31032H7.13436L7.04002 7.12129C6.61075 6.26328 6.55576 5.45563 6.88055 4.78567ZM6.63653 11.1439C6.38245 11.1436 6.13886 11.0425 5.9592 10.8629C5.77954 10.6832 5.67849 10.4396 5.67821 10.1855V9.22718C5.67849 8.97311 5.77954 8.72951 5.9592 8.54985C6.13886 8.37019 6.38245 8.26914 6.63653 8.26887H6.83783H6.83868H6.83971H7.12236C7.12007 8.31275 7.11571 8.3561 7.11571 8.40058V11.1439H6.63653ZM8.07403 11.1439V8.40062C8.0745 7.98458 8.23997 7.58571 8.53415 7.29152C8.82833 6.99733 9.2272 6.83184 9.64324 6.83137H14.1714C14.5874 6.83183 14.9863 6.99731 15.2805 7.2915C15.5747 7.58569 15.7402 7.98457 15.7406 8.40062V11.1439C15.7404 11.6368 15.6446 12.125 15.4584 12.5814H14.6808C14.5876 12.3681 14.4343 12.1865 14.2396 12.0589C14.0449 11.9312 13.8172 11.8631 13.5844 11.8627H12.6261C12.4679 11.8613 12.311 11.8913 12.1645 11.9508C12.0179 12.0104 11.8846 12.0985 11.7723 12.2098C11.66 12.3212 11.5708 12.4537 11.5099 12.5997C11.4491 12.7457 11.4177 12.9024 11.4177 13.0605C11.4177 13.2187 11.4491 13.3754 11.5099 13.5214C11.5708 13.6674 11.66 13.7999 11.7723 13.9113C11.8846 14.0226 12.0179 14.1107 12.1645 14.1702C12.311 14.2298 12.4679 14.2598 12.6261 14.2584H13.5844C13.8172 14.258 14.0448 14.1899 14.2395 14.0622C14.4342 13.9346 14.5875 13.753 14.6807 13.5397H14.8949C14.399 14.1596 13.7226 14.6101 12.9594 14.8289C12.1962 15.0476 11.3839 15.0238 10.6348 14.7607C9.88576 14.4976 9.23697 14.0082 8.77819 13.3603C8.31942 12.7123 8.07338 11.9378 8.07403 11.1439ZM13.824 13.0605C13.824 13.1241 13.7987 13.185 13.7538 13.2299C13.7089 13.2748 13.648 13.3001 13.5845 13.3001H12.6261C12.5625 13.3001 12.5016 13.2749 12.4566 13.2299C12.4117 13.185 12.3865 13.1241 12.3865 13.0605C12.3865 12.997 12.4117 12.936 12.4566 12.8911C12.5016 12.8462 12.5625 12.8209 12.6261 12.8209H13.5844C13.6479 12.821 13.7088 12.8462 13.7538 12.8911C13.7987 12.9361 13.8239 12.997 13.824 13.0605L13.824 13.0605ZM11.9074 15.9355C12.5673 15.9356 13.22 15.7984 13.824 15.5327V16.0807C13.8245 16.2683 13.7881 16.4541 13.7167 16.6276C13.6454 16.801 13.5406 16.9588 13.4083 17.0917L11.9073 18.6084L10.4064 17.0915C10.2741 16.9586 10.1693 16.8009 10.098 16.6274C10.0266 16.4539 9.99018 16.2681 9.99067 16.0806V15.5325C10.5947 15.7982 11.2474 15.9355 11.9073 15.9355L11.9074 15.9355ZM2.49366 21.6855L3.17872 19.4589C3.44695 18.5756 3.99284 17.8024 4.73535 17.254C5.47786 16.7056 6.37741 16.4113 7.30048 16.4147H8.82005L8.18216 18.1166C8.09529 18.3482 8.06968 18.5983 8.10778 18.8427C8.14589 19.0872 8.24643 19.3176 8.39967 19.5118C8.55292 19.706 8.75369 19.8574 8.98256 19.9513C9.21143 20.0451 9.46066 20.0784 9.70613 20.0477L11.4281 19.8325V21.6855L2.49366 21.6855ZM12.3865 21.6855V19.8325L14.1085 20.0477C14.169 20.0554 14.23 20.0592 14.291 20.0592C14.5229 20.0584 14.7512 20.0016 14.9565 19.8935C15.1617 19.7854 15.3377 19.6293 15.4695 19.4385C15.6013 19.2476 15.685 19.0277 15.7134 18.7976C15.7419 18.5674 15.7142 18.3337 15.6328 18.1166L14.9947 16.4147H16.5142C17.4373 16.4113 18.3368 16.7056 19.0793 17.254C19.8219 17.8024 20.3678 18.5756 20.636 19.4589L21.321 21.6855H12.3865Z" fill="black"/>
</svg>
