<svg width="24" height="24" viewBox="0 0 24 24" fill="none" xmlns="http://www.w3.org/2000/svg">
<path d="M13.6943 1.75781H8.81803C8.73775 2.1059 8.68781 2.4603 8.6688 2.81703C6.90674 2.96464 5.56308 4.92795 6.6996 7.05388L7.20399 7.98699H16.7873L17.1591 7.12072C18.1605 4.61709 16.3908 1.75781 13.6943 1.75781Z" fill="#2D4A60"/>
<path d="M10.4233 11.3411H11.8608C12.2421 11.3411 12.6077 11.1897 12.8773 10.9201C13.1469 10.6505 13.2983 10.2849 13.2983 9.90363V8.94531C13.2983 8.56406 13.1469 8.19843 12.8773 7.92885C12.6077 7.65926 12.2421 7.50781 11.8608 7.50781H10.4233V11.3411Z" fill="#8FA5A5"/>
<path d="M13.2988 11.3411H11.8613C11.4801 11.3411 11.1144 11.1897 10.8449 10.9201C10.5753 10.6505 10.4238 10.2849 10.4238 9.90363V8.94531C10.4238 8.56406 10.5753 8.19843 10.8449 7.92885C11.1144 7.65926 11.4801 7.50781 11.8613 7.50781H13.2988V11.3411Z" fill="#8FA5A5"/>
<path d="M7.2545 15.6544C6.22976 15.6544 5.23201 15.9829 4.40773 16.5917C3.58345 17.2005 2.97605 18.0576 2.67471 19.037L1.79883 21.8836H21.9238L21.0479 19.0369C20.7465 18.0575 20.1391 17.2005 19.3148 16.5916C18.4906 15.9828 17.4928 15.6543 16.4681 15.6543L7.2545 15.6544Z" fill="#00CF66"/>
<path d="M9.46547 15.6544L8.58446 18.0038C8.52654 18.1582 8.50947 18.325 8.53488 18.488C8.5603 18.6509 8.62734 18.8046 8.72953 18.934C8.83172 19.0635 8.96559 19.1644 9.1182 19.227C9.2708 19.2896 9.43698 19.3117 9.60064 19.2912L11.8613 19.0086L14.1219 19.2911C14.2856 19.3116 14.4518 19.2895 14.6044 19.2269C14.757 19.1643 14.8909 19.0634 14.993 18.934C15.0952 18.8045 15.1623 18.6508 15.1877 18.4879C15.2131 18.3249 15.196 18.1581 15.1381 18.0037L14.2571 15.6543L9.46547 15.6544Z" fill="#D9E1E2"/>
<path d="M14.257 13.2578V15.7987C14.257 16.3036 14.0578 16.788 13.7027 17.1469L11.8612 19.0078L10.0196 17.1469C9.66452 16.788 9.46534 16.3036 9.46533 15.7987V13.2578H14.257Z" fill="#F9A06F"/>
<path d="M11.8613 15.1745C10.7176 15.1745 9.62068 14.7201 8.81193 13.9114C8.00318 13.1026 7.54883 12.0057 7.54883 10.862V8.11875C7.54883 7.57547 7.76464 7.05444 8.1488 6.67029C8.53296 6.28613 9.05399 6.07031 9.59727 6.07031H14.1254C14.6687 6.07031 15.1897 6.28613 15.5739 6.67029C15.958 7.05444 16.1738 7.57547 16.1738 8.11875V10.862C16.1738 12.0057 15.7195 13.1026 14.9107 13.9114C14.102 14.7201 13.0051 15.1745 11.8613 15.1745Z" fill="#FFD188"/>
<path d="M12.3402 12.0605H11.3818C10.9849 12.0605 10.6631 12.3823 10.6631 12.7793C10.6631 13.1763 10.9849 13.498 11.3818 13.498H12.3402C12.7371 13.498 13.0589 13.1763 13.0589 12.7793C13.0589 12.3823 12.7371 12.0605 12.3402 12.0605Z" fill="#7B8C8C"/>
<path d="M22.3818 21.7426L21.5058 18.8959C21.1781 17.8163 20.511 16.8712 19.6035 16.2009C18.6959 15.5306 17.5964 15.1709 16.4682 15.1751H14.7364V14.6959C14.7364 14.6931 14.7356 14.6904 14.7356 14.6875C15.2497 14.3006 15.6813 13.8147 16.0047 13.2584H16.1739C16.6423 13.2577 17.0942 13.0857 17.4445 12.7748C17.7948 12.4639 18.0192 12.0357 18.0756 11.5707C18.3707 11.4038 18.6163 11.1617 18.7873 10.8689C18.9583 10.5762 19.0485 10.2433 19.0489 9.90425V8.94593C19.0482 8.51068 18.8995 8.0886 18.6274 7.74895C18.3552 7.40931 17.9756 7.17229 17.5509 7.07678C17.7719 6.42347 17.8385 5.72783 17.7453 5.04448C17.6521 4.36113 17.4018 3.70868 17.0139 3.13839C16.214 1.95694 14.955 1.2793 13.5599 1.2793H8.6839C8.57886 1.27926 8.47672 1.31378 8.39322 1.37752C8.30972 1.44126 8.2495 1.53069 8.22184 1.63202C8.15761 1.88743 8.11285 2.14735 8.08797 2.40953C7.13378 2.66976 6.36912 3.26853 5.97255 4.08629C5.5413 4.97471 5.57895 6.04039 6.06392 7.10459C5.6639 7.21927 5.312 7.46089 5.06128 7.79302C4.81055 8.12516 4.6746 8.52979 4.67391 8.94593V9.90425C4.67449 10.4124 4.87661 10.8996 5.23593 11.2589C5.59525 11.6182 6.08243 11.8204 6.59059 11.8209H7.16631C7.40326 12.9666 8.05089 13.9861 8.98726 14.6875C8.98726 14.6904 8.98641 14.693 8.98641 14.6959V15.1751H7.25458C6.12637 15.1709 5.02688 15.5306 4.11936 16.2009C3.21185 16.8712 2.5447 17.8163 2.21699 18.8959L1.34102 21.7426C1.31897 21.8143 1.31404 21.8901 1.32663 21.964C1.33923 22.0379 1.36899 22.1078 1.41353 22.1681C1.45807 22.2284 1.51614 22.2775 1.58307 22.3112C1.65001 22.345 1.72393 22.3626 1.79891 22.3626H21.9239C21.9989 22.3626 22.0728 22.345 22.1397 22.3112C22.2066 22.2775 22.2647 22.2285 22.3092 22.1682C22.3538 22.1079 22.3835 22.038 22.3961 21.9641C22.4087 21.8902 22.4038 21.8143 22.3818 21.7427V21.7426ZM9.03344 18.1718L9.41249 17.161C9.49184 17.2765 9.58108 17.3848 9.67919 17.4848L10.8362 18.6536L9.54137 18.8153C9.45953 18.8255 9.37643 18.8144 9.30012 18.7831C9.22381 18.7518 9.15688 18.7014 9.10579 18.6366C9.05471 18.5719 9.02121 18.495 9.00853 18.4135C8.99586 18.332 9.00444 18.2486 9.03344 18.1714V18.1718ZM14.0436 17.4845C14.1418 17.3844 14.231 17.2761 14.3104 17.1606L14.6896 18.1716C14.7185 18.2489 14.7271 18.3323 14.7144 18.4137C14.7017 18.4952 14.6681 18.5721 14.617 18.6368C14.5659 18.7016 14.499 18.752 14.4227 18.7833C14.3464 18.8146 14.2633 18.8257 14.1814 18.8155L12.8867 18.6538L14.0436 17.4845ZM16.4449 12.2562C16.4884 12.1136 16.5264 11.9687 16.5565 11.8208H16.9989C16.8765 12.0312 16.6783 12.187 16.4449 12.2563V12.2562ZM18.0906 8.94593V9.90425C18.0903 10.1583 17.9893 10.4019 17.8096 10.5816C17.6299 10.7612 17.3863 10.8623 17.1323 10.8626H16.6531V8.11937C16.6531 8.0749 16.6486 8.03155 16.6464 7.98766H16.8685H16.8697H16.8706H17.1323C17.3863 7.98793 17.6299 8.08898 17.8096 8.26863C17.9892 8.44828 18.0903 8.69186 18.0906 8.94593ZM9.07764 2.23762H13.56C14.6321 2.23762 15.6018 2.76181 16.2207 3.6757C16.5432 4.14943 16.7447 4.69506 16.8073 5.26475C16.87 5.83444 16.7919 6.4108 16.58 6.94332L16.5456 7.0293H16.4024C16.1969 6.5995 15.8741 6.23651 15.4712 5.98218C15.0684 5.72785 14.6019 5.59252 14.1255 5.5918H9.87968C9.86517 5.56621 9.84833 5.54201 9.82937 5.51952C8.88345 4.41583 8.97495 2.91212 9.07764 2.23762ZM6.83465 4.50442C7.07157 4.01616 7.50929 3.63841 8.06515 3.42274C8.10868 4.137 8.29272 4.96806 8.79005 5.72634C8.47081 5.83492 8.17641 6.00606 7.92408 6.22974C7.67174 6.45342 7.46653 6.72516 7.32043 7.02907H7.08846L6.99412 6.84004C6.56485 5.98203 6.50986 5.17438 6.83465 4.50442ZM6.59063 10.8626C6.33656 10.8623 6.09296 10.7613 5.9133 10.5816C5.73364 10.402 5.63259 10.1584 5.63231 9.9043V8.94593C5.63259 8.69186 5.73364 8.44826 5.9133 8.2686C6.09296 8.08894 6.33656 7.98789 6.59063 7.98762H6.79193H6.79278H6.79381H7.07646C7.07417 8.0315 7.06982 8.07485 7.06982 8.11933V10.8626H6.59063ZM8.02813 10.8626V8.11937C8.0286 7.70333 8.19407 7.30446 8.48825 7.01027C8.78244 6.71608 9.1813 6.55059 9.59734 6.55012H14.1255C14.5415 6.55058 14.9404 6.71606 15.2346 7.01025C15.5288 7.30444 15.6943 7.70332 15.6947 8.11937V10.8627C15.6945 11.3556 15.5987 11.8438 15.4125 12.3002H14.6349C14.5417 12.0868 14.3884 11.9053 14.1937 11.7776C13.999 11.65 13.7713 11.5818 13.5385 11.5814H12.5802C12.422 11.58 12.2651 11.61 12.1186 11.6696C11.972 11.7292 11.8387 11.8172 11.7264 11.9286C11.6141 12.0399 11.5249 12.1725 11.464 12.3185C11.4032 12.4645 11.3719 12.6211 11.3719 12.7793C11.3719 12.9375 11.4032 13.0941 11.464 13.2401C11.5249 13.3861 11.6141 13.5187 11.7264 13.63C11.8387 13.7414 11.972 13.8294 12.1186 13.889C12.2651 13.9486 12.422 13.9786 12.5802 13.9772H13.5385C13.7713 13.9768 13.9989 13.9086 14.1936 13.781C14.3883 13.6533 14.5416 13.4718 14.6348 13.2584H14.849C14.3531 13.8784 13.6767 14.3289 12.9135 14.5476C12.1503 14.7664 11.338 14.7425 10.5889 14.4794C9.83986 14.2163 9.19107 13.727 8.7323 13.079C8.27352 12.4311 8.02748 11.6565 8.02813 10.8626ZM13.7781 12.7793C13.7781 12.8428 13.7528 12.9037 13.7079 12.9486C13.663 12.9936 13.6021 13.0188 13.5386 13.0189H12.5802C12.5166 13.0189 12.4557 12.9936 12.4107 12.9487C12.3658 12.9038 12.3406 12.8428 12.3406 12.7793C12.3406 12.7157 12.3658 12.6548 12.4107 12.6099C12.4557 12.5649 12.5166 12.5397 12.5802 12.5397H13.5385C13.602 12.5397 13.6629 12.565 13.7079 12.6099C13.7528 12.6548 13.778 12.7157 13.7781 12.7793L13.7781 12.7793ZM11.8615 15.6543C12.5214 15.6543 13.1741 15.5171 13.7781 15.2514V15.7995C13.7786 15.987 13.7422 16.1729 13.6708 16.3463C13.5995 16.5198 13.4947 16.6775 13.3624 16.8105L11.8614 18.3271L10.3605 16.8103C10.2282 16.6773 10.1234 16.5196 10.0521 16.3461C9.98074 16.1727 9.94428 15.9869 9.94477 15.7993V15.2513C10.5488 15.517 11.2015 15.6542 11.8614 15.6543L11.8615 15.6543ZM2.44776 21.4043L3.13282 19.1776C3.40105 18.2944 3.94694 17.5212 4.68945 16.9728C5.43196 16.4244 6.33152 16.13 7.25458 16.1334H8.77415L8.13626 17.8353C8.0494 18.0669 8.02378 18.3171 8.06188 18.5615C8.09999 18.8059 8.20053 19.0364 8.35377 19.2306C8.50702 19.4248 8.70779 19.5761 8.93666 19.67C9.16553 19.7639 9.41476 19.7971 9.66023 19.7665L11.3822 19.5512V21.4043L2.44776 21.4043ZM12.3406 21.4043V19.5513L14.0626 19.7665C14.1231 19.7741 14.1841 19.778 14.2451 19.7779C14.477 19.7772 14.7053 19.7204 14.9106 19.6123C15.1158 19.5042 15.2918 19.3481 15.4236 19.1572C15.5554 18.9664 15.6391 18.7465 15.6675 18.5163C15.696 18.2861 15.6683 18.0525 15.5869 17.8353L14.9488 16.1334H16.4683C17.3914 16.13 18.2909 16.4244 19.0334 16.9728C19.776 17.5212 20.3219 18.2944 20.5901 19.1776L21.2751 21.4043H12.3406Z" fill="black"/>
</svg>
