<svg width="26" height="25" viewBox="0 0 26 25" fill="none" xmlns="http://www.w3.org/2000/svg">
<g clip-path="url(#clip0_6093_15999)">
<path d="M13.1035 6.08398V18.9165C20.8552 18.9165 24.2891 14.2468 25.1307 12.8749C25.2719 12.6449 25.2719 12.3556 25.1307 12.1255C24.2891 10.7536 20.8552 6.08398 13.1035 6.08398Z" fill="#FCF5F5"/>
<path d="M13.1035 6.08398V6.1437C19.4681 6.65856 22.5386 10.4204 23.5112 11.9025C23.7496 12.2657 23.7496 12.7347 23.5112 13.098C22.5386 14.58 19.4681 18.3419 13.1035 18.8567V18.9165C20.8552 18.9165 24.2891 14.2468 25.1307 12.8749C25.2719 12.6449 25.2719 12.3556 25.1307 12.1256C24.2891 10.7536 20.8552 6.08398 13.1035 6.08398Z" fill="#EBE1DC"/>
<path d="M13.1035 6.08398V18.9165C16.6471 18.9165 19.5197 16.0438 19.5197 12.5002C19.5197 8.95656 16.6471 6.08398 13.1035 6.08398Z" fill="#60B7FF"/>
<path d="M13.1035 6.08398V6.25526C15.9347 6.92265 18.0421 9.46523 18.0421 12.5002C18.0421 15.5352 15.9347 18.0778 13.1035 18.7452V18.9165C16.6471 18.9165 19.5197 16.0438 19.5197 12.5002C19.5197 8.95661 16.6471 6.08398 13.1035 6.08398Z" fill="#26A6FE"/>
<path d="M13.1035 9.38867V15.6136C14.8225 15.6136 16.216 14.2201 16.216 12.5011C16.216 10.7821 14.8225 9.38867 13.1035 9.38867Z" fill="#685E68"/>
<path d="M13.1035 9.38867V9.7613C14.0769 10.2874 14.7383 11.317 14.7383 12.5012C14.7383 13.6853 14.0769 14.7149 13.1035 15.2411V15.6137C14.8225 15.6137 16.216 14.2202 16.216 12.5012C16.216 10.7822 14.8225 9.38867 13.1035 9.38867Z" fill="#554E56"/>
<path d="M1.07657 12.8749C1.91817 14.2469 5.35204 18.9165 13.1038 18.9165V6.08398C5.35209 6.08398 1.91817 10.7536 1.07657 12.1255C0.935415 12.3556 0.935415 12.6448 1.07657 12.8749Z" fill="#E2DEE2"/>
<path d="M6.6875 12.5002C6.6875 16.0438 9.56013 18.9165 13.1037 18.9165V6.08398C9.56018 6.08398 6.6875 8.95666 6.6875 12.5002Z" fill="#CBC4CC"/>
<path d="M9.99121 12.5012C9.99121 14.2202 11.3847 15.6137 13.1037 15.6137V9.38867C11.3847 9.38867 9.99121 10.7822 9.99121 12.5012Z" fill="#918291"/>
<path d="M25.4429 11.9344C24.5622 10.4988 21.1241 5.86543 13.4697 5.72155V3.88767C13.4697 3.68544 13.3058 3.52148 13.1035 3.52148C12.9013 3.52148 12.7373 3.68544 12.7373 3.88767V5.72194C9.76179 5.77784 7.11004 6.51676 4.85085 7.92141C4.67909 8.02819 4.62645 8.25396 4.73318 8.42573C4.83997 8.5975 5.06578 8.65018 5.23755 8.54335C6.47917 7.77142 7.84852 7.21135 9.33256 6.86581C7.51783 8.08429 6.32113 10.1552 6.32113 12.5005C6.32113 14.8455 7.51739 16.916 9.33159 18.1346C4.41875 16.9901 2.07597 13.8045 1.38847 12.6837C1.31913 12.5707 1.31913 12.4303 1.38847 12.3173C1.77951 11.6798 2.66827 10.4325 4.22726 9.24091C4.38794 9.11812 4.4186 8.88825 4.29581 8.72757C4.17301 8.56688 3.94319 8.53617 3.78251 8.65902C2.12934 9.92266 1.18184 11.2535 0.764236 11.9343C0.549942 12.2836 0.549942 12.7175 0.764236 13.0667C1.6449 14.5022 5.08302 19.1356 12.7374 19.2795V21.1133C12.7374 21.3156 12.9013 21.4795 13.1036 21.4795C13.3058 21.4795 13.4698 21.3156 13.4698 21.1133V19.279C16.0804 19.2297 18.4515 18.6517 20.5224 17.5581C20.7013 17.4637 20.7697 17.2421 20.6752 17.0633C20.5808 16.8844 20.3593 16.8161 20.1804 16.9105C19.1556 17.4517 18.0514 17.8601 16.8762 18.134C18.69 16.9154 19.886 14.8451 19.886 12.5004C19.886 10.1556 18.6897 8.08493 16.8755 6.8664C21.7884 8.01081 24.1311 11.1965 24.8186 12.3172C24.888 12.4303 24.888 12.5707 24.8186 12.6837C24.4337 13.3113 23.3155 14.9177 21.2525 16.2765C21.0836 16.3877 21.0369 16.6149 21.1482 16.7838C21.2185 16.8906 21.3353 16.9486 21.4543 16.9486C21.5234 16.9486 21.5933 16.929 21.6554 16.8882C23.7626 15.5002 24.9328 13.8981 25.4429 13.0667C25.6571 12.7175 25.6571 12.2836 25.4429 11.9344ZM12.7373 15.2217C11.3956 15.042 10.3572 13.8906 10.3572 12.5005C10.3572 11.1104 11.3956 9.95898 12.7373 9.77931V15.2217ZM13.4697 9.77936C14.8114 9.95903 15.8498 11.1104 15.8498 12.5005C15.8498 13.8906 14.8114 15.042 13.4697 15.2217V9.77936ZM7.0535 12.5005C7.0535 9.28749 9.57122 6.65191 12.7373 6.46188V9.04122C10.9907 9.2248 9.62483 10.706 9.62483 12.5005C9.62483 14.295 10.9907 15.7762 12.7373 15.9597V18.5391C9.57122 18.3491 7.0535 15.7135 7.0535 12.5005ZM19.1536 12.5005C19.1536 15.7136 16.6358 18.3492 13.4697 18.5392V15.9598C15.2163 15.7763 16.5821 14.2951 16.5821 12.5006C16.5821 10.7061 15.2163 9.2249 13.4697 9.04132V6.46198C16.6358 6.65186 19.1536 9.28749 19.1536 12.5005Z" fill="black"/>
</g>
<defs>
<clipPath id="clip0_6093_15999">
<rect width="25" height="25" fill="white" transform="translate(0.603516)"/>
</clipPath>
</defs>
</svg>
