<svg width="28" height="28" viewBox="0 0 28 28" fill="none" xmlns="http://www.w3.org/2000/svg">
<path d="M21.7495 4.45508V22.6505L17.1089 25.127H4.45264C3.75232 25.127 3.18701 24.5616 3.18701 23.8613V4.45508C3.18701 3.75477 3.75232 3.18945 4.45264 3.18945H20.4839C21.1842 3.18945 21.7495 3.75477 21.7495 4.45508Z" fill="#2675E2"/>
<path d="M21.7495 4.45508V14.1582H3.18701V4.45508C3.18701 3.75477 3.75232 3.18945 4.45264 3.18945H20.4839C21.1842 3.18945 21.7495 3.75477 21.7495 4.45508Z" fill="#155FB7"/>
<path d="M20.062 5.7207V11.627H4.87451V5.7207H20.062Z" fill="#EDEBEA"/>
<path d="M7.40576 15.8574V17.5449H5.71826V15.8574H7.40576Z" fill="#EDEBEA"/>
<path d="M17.1089 25.127C21.5358 25.127 25.1245 21.5382 25.1245 17.1113C25.1245 12.6844 21.5358 9.0957 17.1089 9.0957C12.682 9.0957 9.09326 12.6844 9.09326 17.1113C9.09326 21.5382 12.682 25.127 17.1089 25.127Z" fill="#0B4F6C"/>
<path d="M17.1089 23.4395C20.6038 23.4395 23.437 20.6063 23.437 17.1113C23.437 13.6164 20.6038 10.7832 17.1089 10.7832C13.614 10.7832 10.7808 13.6164 10.7808 17.1113C10.7808 20.6063 13.614 23.4395 17.1089 23.4395Z" fill="#EDEBEA"/>
<path d="M17.4759 12.8926L14.5776 17.6387H16.6997L16.2398 21.3301L19.6401 16.2929H17.3325L17.4759 12.8926Z" fill="#FCBF49"/>
<path d="M22.0659 10.4288V4.45508C22.0659 3.5818 21.3572 2.87305 20.4839 2.87305H4.45264C3.57936 2.87305 2.87061 3.5818 2.87061 4.45508V23.8613C2.87061 24.7346 3.57936 25.4434 4.45264 25.4434H17.1089C21.7031 25.4434 25.4409 21.7055 25.4409 17.1113C25.4409 14.3734 24.1078 11.9518 22.0659 10.4288ZM4.45264 3.50586H20.4839C21.007 3.50586 21.4331 3.93195 21.4331 4.45508V10.0027C21.0956 9.79602 20.7454 9.60617 20.3784 9.45008V5.7207C20.3784 5.54773 20.235 5.4043 20.062 5.4043H4.87451C4.70154 5.4043 4.55811 5.54773 4.55811 5.7207V11.627C4.55811 11.7999 4.70154 11.9434 4.87451 11.9434H10.5867C10.1269 12.5213 9.74295 13.1541 9.44764 13.8418H3.50342V4.45508C3.50342 3.93195 3.92951 3.50586 4.45264 3.50586ZM11.1394 11.3105H5.19092V6.03711H19.7456V9.21383C18.9145 8.93539 18.0328 8.7793 17.1089 8.7793C14.7675 8.7793 12.6539 9.75383 11.1394 11.3105ZM4.45264 24.8105C3.92951 24.8105 3.50342 24.3845 3.50342 23.8613V14.4746H9.21139C8.93295 15.3057 8.77686 16.1874 8.77686 17.1113C8.77686 18.3559 9.05951 19.5329 9.54889 20.5918H6.56201C6.38904 20.5918 6.24561 20.7352 6.24561 20.9082C6.24561 21.0812 6.38904 21.2246 6.56201 21.2246H9.87373C10.0847 21.5959 10.3251 21.946 10.5867 22.2793H8.24951C8.07654 22.2793 7.93311 22.4227 7.93311 22.5957C7.93311 22.7687 8.07654 22.9121 8.24951 22.9121H11.1394C11.924 23.7221 12.8733 24.3718 13.9322 24.8105H4.45264ZM17.1089 24.8105C12.8648 24.8105 9.40967 21.3554 9.40967 17.1113C9.40967 12.8673 12.8648 9.41211 17.1089 9.41211C21.3529 9.41211 24.8081 12.8673 24.8081 17.1113C24.8081 21.3554 21.3529 24.8105 17.1089 24.8105ZM17.1089 10.4668C13.447 10.4668 10.4644 13.4495 10.4644 17.1113C10.4644 20.7732 13.447 23.7559 17.1089 23.7559C20.7708 23.7559 23.7534 20.7732 23.7534 17.1113C23.7534 13.4495 20.7708 10.4668 17.1089 10.4668ZM17.1089 23.123C13.7929 23.123 11.0972 20.4273 11.0972 17.1113C11.0972 13.7954 13.7929 11.0996 17.1089 11.0996C20.4248 11.0996 23.1206 13.7954 23.1206 17.1113C23.1206 20.4273 20.4248 23.123 17.1089 23.123ZM19.6401 15.9765H17.6615L17.7923 12.9052C17.7965 12.7618 17.7079 12.631 17.5687 12.5888C17.4295 12.5466 17.2819 12.6057 17.2059 12.728L14.3076 17.4741C14.2486 17.5712 14.2444 17.6935 14.3034 17.7948C14.3583 17.896 14.4637 17.9551 14.5776 17.9551H16.3411L15.9234 21.2921C15.9065 21.4355 15.9909 21.5748 16.1259 21.6254C16.1639 21.638 16.2019 21.6465 16.2356 21.6465C16.3369 21.6465 16.4381 21.5959 16.4972 21.5073L19.8975 16.4701C19.9608 16.373 19.9692 16.2465 19.9144 16.1452C19.8595 16.0398 19.754 15.9765 19.6359 15.9765H19.6401ZM16.7165 20.056L17.0119 17.6766C17.0245 17.588 16.995 17.4952 16.9359 17.4277C16.8769 17.3602 16.7883 17.3223 16.6997 17.3223H15.1387L17.1047 14.1034L17.0119 16.2802C17.0119 16.3646 17.0414 16.449 17.1004 16.5123C17.1595 16.5755 17.2439 16.6093 17.3283 16.6093H19.0411L16.7123 20.056H16.7165ZM7.72217 17.5416V15.8541C7.72217 15.6812 7.57873 15.5377 7.40576 15.5377H5.71826C5.54529 15.5377 5.40186 15.6812 5.40186 15.8541V17.5416C5.40186 17.7146 5.54529 17.858 5.71826 17.858H7.40576C7.57873 17.858 7.72217 17.7146 7.72217 17.5416ZM7.08936 17.2252H6.03467V16.1705H7.08936V17.2252Z" fill="#050819"/>
</svg>
