<svg width="23" height="24" viewBox="0 0 23 24" fill="none" xmlns="http://www.w3.org/2000/svg">
<g clip-path="url(#clip0_6000_15735)">
<path d="M20.2598 6.7832L15.543 5.43555L14.1953 0.71875H4.76172C3.64528 0.71875 2.74023 1.62379 2.74023 2.74023V21.6973C2.74023 22.8137 3.64528 23.7188 4.76172 23.7188H18.2383C19.3547 23.7188 20.2598 22.8137 20.2598 21.6973V6.7832Z" fill="#734BBD"/>
<path d="M6.10938 12.8926C6.48152 12.8926 6.7832 12.5909 6.7832 12.2188C6.7832 11.8466 6.48152 11.5449 6.10938 11.5449C5.73723 11.5449 5.43555 11.8466 5.43555 12.2188C5.43555 12.5909 5.73723 12.8926 6.10938 12.8926Z" fill="#FFF5F5"/>
<path d="M6.10938 15.5879C6.48152 15.5879 6.7832 15.2862 6.7832 14.9141C6.7832 14.5419 6.48152 14.2402 6.10938 14.2402C5.73723 14.2402 5.43555 14.5419 5.43555 14.9141C5.43555 15.2862 5.73723 15.5879 6.10938 15.5879Z" fill="#FFF5F5"/>
<path d="M6.10938 18.2832C6.48152 18.2832 6.7832 17.9815 6.7832 17.6094C6.7832 17.2372 6.48152 16.9355 6.10938 16.9355C5.73723 16.9355 5.43555 17.2372 5.43555 17.6094C5.43555 17.9815 5.73723 18.2832 6.10938 18.2832Z" fill="#FFF5F5"/>
<path d="M20.2598 6.7832V21.6973C20.2598 22.8137 19.3547 23.7188 18.2383 23.7188H11.5V0.71875H14.1953L15.543 5.43555L20.2598 6.7832Z" fill="#5F45A9"/>
<path d="M15.543 12.8926H8.80469C8.43224 12.8926 8.13086 12.5912 8.13086 12.2188C8.13086 11.8463 8.43224 11.5449 8.80469 11.5449H15.543C15.9154 11.5449 16.2168 11.8463 16.2168 12.2188C16.2168 12.5912 15.9154 12.8926 15.543 12.8926Z" fill="#FFF5F5"/>
<path d="M15.543 15.5879H8.80469C8.43224 15.5879 8.13086 15.2865 8.13086 14.9141C8.13086 14.5416 8.43224 14.2402 8.80469 14.2402H15.543C15.9154 14.2402 16.2168 14.5416 16.2168 14.9141C16.2168 15.2865 15.9154 15.5879 15.543 15.5879Z" fill="#FFF5F5"/>
<path d="M15.543 18.2832H8.80469C8.43224 18.2832 8.13086 17.9818 8.13086 17.6094C8.13086 17.2369 8.43224 16.9355 8.80469 16.9355H15.543C15.9154 16.9355 16.2168 17.2369 16.2168 17.6094C16.2168 17.9818 15.9154 18.2832 15.543 18.2832Z" fill="#FFF5F5"/>
<path d="M11.5 18.2832H15.543C15.9154 18.2832 16.2168 17.9818 16.2168 17.6094C16.2168 17.2369 15.9154 16.9355 15.543 16.9355H11.5V18.2832Z" fill="#E3E7EA"/>
<path d="M11.5 15.5879H15.543C15.9154 15.5879 16.2168 15.2865 16.2168 14.9141C16.2168 14.5416 15.9154 14.2402 15.543 14.2402H11.5V15.5879Z" fill="#E3E7EA"/>
<path d="M11.5 12.8926H15.543C15.9154 12.8926 16.2168 12.5912 16.2168 12.2188C16.2168 11.8463 15.9154 11.5449 15.543 11.5449H11.5V12.8926Z" fill="#E3E7EA"/>
<path d="M20.2598 6.7832H15.543C14.8018 6.7832 14.1953 6.17676 14.1953 5.43555V0.71875C14.3705 0.71875 14.5457 0.786133 14.6669 0.920943L20.0576 6.31157C20.1924 6.43281 20.2598 6.60801 20.2598 6.7832Z" fill="#9B7ED0"/>
</g>
<defs>
<clipPath id="clip0_6000_15735">
<rect width="23" height="23" fill="white" transform="translate(0 0.71875)"/>
</clipPath>
</defs>
</svg>
