<svg width="31" height="31" viewBox="0 0 31 31" fill="none" xmlns="http://www.w3.org/2000/svg">
<path d="M21.2808 8.47461C21.2808 9.58713 20.9509 10.6747 20.3328 11.5997C19.7147 12.5247 18.8362 13.2457 17.8084 13.6714C16.7805 14.0972 15.6495 14.2086 14.5584 13.9915C13.4672 13.7745 12.465 13.2388 11.6783 12.4521C10.8916 11.6654 10.3559 10.6631 10.1388 9.57199C9.9218 8.48085 10.0332 7.34985 10.4589 6.32201C10.8847 5.29418 11.6057 4.41568 12.5307 3.79759C13.4557 3.17951 14.5432 2.84961 15.6558 2.84961C17.1476 2.84961 18.5783 3.44224 19.6332 4.49713C20.6881 5.55203 21.2808 6.98277 21.2808 8.47461ZM28.312 23.4746C28.3129 24.4114 28.0359 25.3274 27.5161 26.1066C26.9962 26.8859 26.2569 27.4935 25.3916 27.8524C24.5263 28.2113 23.574 28.3055 22.6552 28.1229C21.7363 27.9404 20.8923 27.4894 20.2299 26.827C19.5675 26.1646 19.1165 25.3206 18.934 24.4018C18.7515 23.483 18.8456 22.5306 19.2045 21.6654C19.5635 20.8001 20.171 20.0607 20.9503 19.5409C21.7296 19.021 22.6456 18.744 23.5823 18.7449C24.8367 18.7449 26.0397 19.2432 26.9267 20.1302C27.8137 21.0172 28.312 22.2202 28.312 23.4746ZM26.437 23.4746C26.437 23.3503 26.3876 23.2311 26.2997 23.1432C26.2118 23.0552 26.0926 23.0059 25.9683 23.0059H24.0933V21.1309C24.0933 21.0065 24.0439 20.8873 23.956 20.7994C23.8681 20.7115 23.7488 20.6621 23.6245 20.6621C23.5002 20.6621 23.381 20.7115 23.2931 20.7994C23.2051 20.8873 23.1558 21.0065 23.1558 21.1309V23.0059H21.2808C21.1564 23.0059 21.0372 23.0552 20.9493 23.1432C20.8614 23.2311 20.812 23.3503 20.812 23.4746C20.812 23.5989 20.8614 23.7182 20.9493 23.8061C21.0372 23.894 21.1564 23.9434 21.2808 23.9434H23.1558V25.8184C23.1558 25.9427 23.2051 26.0619 23.2931 26.1498C23.381 26.2377 23.5002 26.2871 23.6245 26.2871C23.7488 26.2871 23.8681 26.2377 23.956 26.1498C24.0439 26.0619 24.0933 25.9427 24.0933 25.8184V23.9434H25.9683C26.0926 23.9434 26.2118 23.894 26.2997 23.8061C26.3876 23.7182 26.437 23.5989 26.437 23.4746ZM17.9104 23.4746C17.9133 22.0027 18.4879 20.5894 19.5128 19.533C20.5378 18.4765 21.933 17.8595 23.4042 17.8121C22.7502 17.3705 22.0347 17.0277 21.2808 16.7949C21.0604 16.7246 20.8401 16.673 20.6151 16.6215L20.4183 16.584C20.2401 16.5512 20.062 16.5277 19.8792 16.5043L19.6683 16.4809C19.4292 16.4809 19.1995 16.4434 18.937 16.4434H12.3745C12.1261 16.4434 11.8823 16.4434 11.6433 16.4809L11.4323 16.5043C11.2495 16.5043 11.0714 16.5512 10.8933 16.584L10.7011 16.6215C10.4714 16.673 10.2323 16.7246 10.0308 16.7949C8.40187 17.2962 6.97659 18.3065 5.96418 19.6774C4.95177 21.0484 4.40557 22.7078 4.40576 24.4121C4.40576 25.4067 4.80085 26.3605 5.50411 27.0638C6.20737 27.767 7.1612 28.1621 8.15576 28.1621H20.3948C19.6303 27.6422 19.0043 26.9434 18.5714 26.1264C18.1384 25.3095 17.9115 24.3992 17.9104 23.4746Z" fill="url(#paint0_linear_5875_15763)"/>
<defs>
<linearGradient id="paint0_linear_5875_15763" x1="16.3589" y1="2.84961" x2="16.3589" y2="28.2137" gradientUnits="userSpaceOnUse">
<stop stop-color="#535AFF"/>
<stop offset="1" stop-color="#05BAFF"/>
</linearGradient>
</defs>
</svg>
