<svg width="31" height="30" viewBox="0 0 31 30" fill="none" xmlns="http://www.w3.org/2000/svg">
<g clip-path="url(#clip0_6134_16010)">
<path d="M21.2808 7.97461C21.2808 9.08713 20.9509 10.1747 20.3328 11.0997C19.7147 12.0247 18.8362 12.7457 17.8084 13.1714C16.7805 13.5972 15.6495 13.7086 14.5584 13.4915C13.4672 13.2745 12.465 12.7388 11.6783 11.9521C10.8916 11.1654 10.3559 10.1631 10.1388 9.07199C9.9218 7.98085 10.0332 6.84985 10.4589 5.82201C10.8847 4.79418 11.6057 3.91568 12.5307 3.29759C13.4557 2.67951 14.5432 2.34961 15.6558 2.34961C17.1476 2.34961 18.5783 2.94224 19.6332 3.99713C20.6881 5.05203 21.2808 6.48277 21.2808 7.97461ZM28.312 22.9746C28.3129 23.9114 28.0359 24.8274 27.5161 25.6066C26.9962 26.3859 26.2569 26.9935 25.3916 27.3524C24.5263 27.7113 23.574 27.8055 22.6552 27.6229C21.7363 27.4404 20.8923 26.9894 20.2299 26.327C19.5675 25.6646 19.1165 24.8206 18.934 23.9018C18.7515 22.983 18.8456 22.0306 19.2045 21.1654C19.5635 20.3001 20.171 19.5607 20.9503 19.0409C21.7296 18.521 22.6456 18.244 23.5823 18.2449C24.8367 18.2449 26.0397 18.7432 26.9267 19.6302C27.8137 20.5172 28.312 21.7202 28.312 22.9746ZM17.9104 22.9746C17.9133 21.5027 18.4879 20.0894 19.5128 19.033C20.5378 17.9765 21.933 17.3595 23.4042 17.3121C22.7502 16.8705 22.0347 16.5277 21.2808 16.2949C21.0604 16.2246 20.8401 16.173 20.6151 16.1215L20.4183 16.084C20.2401 16.0512 20.062 16.0277 19.8792 16.0043L19.6683 15.9809C19.4292 15.9809 19.1995 15.9434 18.937 15.9434H12.3745C12.1261 15.9434 11.8823 15.9434 11.6433 15.9809L11.4323 16.0043C11.2495 16.0043 11.0714 16.0512 10.8933 16.084L10.7011 16.1215C10.4714 16.173 10.2323 16.2246 10.0308 16.2949C8.40187 16.7962 6.97659 17.8065 5.96418 19.1774C4.95177 20.5484 4.40557 22.2078 4.40576 23.9121C4.40576 24.9067 4.80085 25.8605 5.50411 26.5638C6.20737 27.267 7.1612 27.6621 8.15576 27.6621H20.3948C19.6303 27.1422 19.0043 26.4434 18.5714 25.6264C18.1384 24.8095 17.9115 23.8992 17.9104 22.9746Z" fill="url(#paint0_linear_6134_16010)"/>
</g>
<path d="M23.0244 25.2305C22.9683 25.2869 22.8918 25.3184 22.8123 25.3184C22.7328 25.3184 22.6563 25.2869 22.6002 25.2305L20.9063 23.5363C20.7305 23.3605 20.7305 23.0754 20.9063 22.8999L21.1184 22.6878C21.2942 22.512 21.5789 22.512 21.7547 22.6878L22.8123 23.7454L25.6699 20.8877C25.8457 20.7119 26.1308 20.7119 26.3063 20.8877L26.5184 21.0998C26.6942 21.2756 26.6942 21.5607 26.5184 21.7362L23.0244 25.2305Z" fill="white"/>
<defs>
<linearGradient id="paint0_linear_6134_16010" x1="16.3589" y1="2.34961" x2="16.3589" y2="27.7137" gradientUnits="userSpaceOnUse">
<stop stop-color="#CE9B1C"/>
<stop offset="1" stop-color="#754F0A"/>
</linearGradient>
<clipPath id="clip0_6134_16010">
<rect width="30" height="30" fill="white" transform="translate(0.655762 0.00585938)"/>
</clipPath>
</defs>
</svg>
